<svg xmlns="http://www.w3.org/2000/svg" viewBox="0 0 53.22 31.18"><defs><style>.cls-1{fill:#1d1d1b;}</style></defs><g id="Layer_2" data-name="Layer 2"><g id="Layer_1-2" data-name="Layer 1"><polygon class="cls-1" points="8.1 29.07 13.49 19.83 10.99 15.44 5.62 24.74 8.1 29.07"/><polygon class="cls-1" points="25.11 0 16.77 14.37 5.16 14.37 2.48 19.09 0 14.71 2.68 10.06 14.17 10.06 17.52 4.37 10.98 4.37 8.27 9.04 5.75 4.67 8.46 0 25.11 0"/><path class="cls-1" d="M20.58,22.87h-.9v4H18.16V16.76h2.67a5,5,0,0,1,2.91.73,2.51,2.51,0,0,1,1,2.2,2.6,2.6,0,0,1-.65,1.9,2.86,2.86,0,0,1-1.63.82,2.76,2.76,0,0,1,1.22,1.33l1.74,3.16H23.77L22.18,24a2.44,2.44,0,0,0-.68-.84A1.59,1.59,0,0,0,20.58,22.87Zm.19-4.81H19.68v3.51h1.09a3.26,3.26,0,0,0,1.83-.42,1.53,1.53,0,0,0,.6-1.35,1.49,1.49,0,0,0-.6-1.34A3.45,3.45,0,0,0,20.77,18.06Z"/><path class="cls-1" d="M31.4,26.9q-.39-1.39-.78-2.64h-4.2q-.39,1.24-.78,2.64H24.07a72.11,72.11,0,0,1,3.67-10.14H29.3A69.75,69.75,0,0,1,33,26.9Zm-2.88-8.56A44.59,44.59,0,0,0,26.83,23h3.39A46.66,46.66,0,0,0,28.52,18.34Z"/><path class="cls-1" d="M38.36,26.9l-3-4.4c-.38.25-.88.54-1.5.88V26.9h-1.5V16.76h1.5v5.1a9.65,9.65,0,0,0,2.76-2.22A6.82,6.82,0,0,0,38,16.76H39.5a8.52,8.52,0,0,1-3,4.91l3.6,5.23Z"/><path class="cls-1" d="M45.88,26.9c-.27-.93-.53-1.81-.79-2.64h-4.2q-.39,1.24-.78,2.64H38.55a71,71,0,0,1,3.66-10.14h1.57A71,71,0,0,1,47.44,26.9ZM43,18.34A47.06,47.06,0,0,0,41.3,23h3.39A44.23,44.23,0,0,0,43,18.34Z"/><path class="cls-1" d="M53,17.89a29.15,29.15,0,0,1-2.08,3.84Q49.72,23.5,48,25.6h5.19v1.3h-7V25.74a43.23,43.23,0,0,0,5.18-7.68h-5v-1.3H53Z"/><path class="cls-1" d="M42,31a2.07,2.07,0,0,1-.86.2,1.37,1.37,0,0,1-1.06-.4,1.53,1.53,0,0,1-.38-1.08,1.6,1.6,0,0,1,.38-1.1,1.29,1.29,0,0,1,1-.43,1.83,1.83,0,0,1,.79.17l-.1.36a1.81,1.81,0,0,0-.69-.14.85.85,0,0,0-.72.31,1.26,1.26,0,0,0-.25.83,1.17,1.17,0,0,0,.26.8.92.92,0,0,0,.74.29,1.74,1.74,0,0,0,.45-.06v-.81h-.56v-.36h1Z"/><path class="cls-1" d="M43.34,30h-.26v1.15h-.43V28.22h.76a1.45,1.45,0,0,1,.84.21.74.74,0,0,1,.29.63.78.78,0,0,1-.18.55.87.87,0,0,1-.47.23.8.8,0,0,1,.35.39l.5.9h-.48l-.46-.84a.62.62,0,0,0-.19-.24A.45.45,0,0,0,43.34,30Zm.06-1.38h-.32v1h.32a.93.93,0,0,0,.52-.12.42.42,0,0,0,.17-.38.43.43,0,0,0-.17-.39A1,1,0,0,0,43.4,28.6Z"/><path class="cls-1" d="M47.28,28.59a2,2,0,0,1,0,2.18,1.27,1.27,0,0,1-1.87,0,2,2,0,0,1,0-2.18,1.25,1.25,0,0,1,1.87,0Zm-1.54.27a1.45,1.45,0,0,0-.2.82,1.41,1.41,0,0,0,.2.81.77.77,0,0,0,1.22,0,1.41,1.41,0,0,0,.2-.81,1.45,1.45,0,0,0-.2-.82.69.69,0,0,0-.61-.3A.68.68,0,0,0,45.74,28.86Z"/><path class="cls-1" d="M48.17,30V28.22h.43V30c0,.55.22.82.67.82s.67-.27.67-.82V28.22h.44V30c0,.79-.37,1.18-1.11,1.18S48.17,30.79,48.17,30Z"/><path class="cls-1" d="M51.85,30.14H51.5v1h-.43V28.22h.78a1.32,1.32,0,0,1,.86.25,1,1,0,0,1,0,1.43A1.37,1.37,0,0,1,51.85,30.14Zm0-1.54H51.5v1.17h.34a.89.89,0,0,0,.54-.14.63.63,0,0,0,0-.9A.9.9,0,0,0,51.84,28.6Z"/></g></g></svg>