<svg xmlns="http://www.w3.org/2000/svg" viewBox="0 0 27.52 41.01"><defs><style>.cls-1,.cls-2{fill:#1d1d1b;}.cls-2{font-size:0.32px;font-family:AdobeArabic-Regular, Adobe Arabic;}</style></defs><g id="Layer_2" data-name="Layer 2"><g id="Layer_1-2" data-name="Layer 1"><path class="cls-1" d="M27.29,13.09a9,9,0,0,0-5-3,9,9,0,0,0,1.27-5.84l-.05-.33H22.6a8.53,8.53,0,0,0-5.45,1.65A8.91,8.91,0,0,0,13.86.07L13.76,0l-.1.07a8.91,8.91,0,0,0-3.29,5.45A8.54,8.54,0,0,0,4.91,3.87H4.05l0,.33a9,9,0,0,0,1.27,5.84,9,9,0,0,0-5,3L0,13.33l.19.26a8.84,8.84,0,0,0,5.49,3.3A8.69,8.69,0,0,0,3.94,23v.33l.32,0a7.05,7.05,0,0,0,1.08.07,10.1,10.1,0,0,0,4.24-1,8.27,8.27,0,0,0,4.16-4.56v0a8.13,8.13,0,0,0,4.16,4.56,9,9,0,0,0,4.23,1,6.78,6.78,0,0,0,1.08-.07l.33,0V23a8.65,8.65,0,0,0-1.76-6.14,8.85,8.85,0,0,0,5.5-3.3l.19-.26Zm-13.46.3a.46.46,0,0,1-.45-.46.45.45,0,0,1,.45-.45.46.46,0,0,1,.46.45A.47.47,0,0,1,13.83,13.39Zm11.79.11a7.2,7.2,0,0,1-4.56,2.65h-.4a12.5,12.5,0,0,1-4.3-.88,8.51,8.51,0,0,0,4.44,1.64v0a6.47,6.47,0,0,1,1.49,5l0,.15-.15,0a4,4,0,0,1-.75.07A7.23,7.23,0,0,1,17,20.78a8.48,8.48,0,0,1-1.15-1.27,8,8,0,0,1-1.08-4.79c.14-1.51,1.11-1.88,1.54-1.88,0,0-.94-.44-1.87-.91a1.76,1.76,0,0,0-1-.11,1.7,1.7,0,0,1,.35-1.12s-1.12-.54-1.69.3a2,2,0,0,0-.32,1,2.28,2.28,0,0,1,1.18.06,1.18,1.18,0,0,0-.26.35c-.73,1.42.37,2.76-.36,5.14a8.26,8.26,0,0,1-1,2.14,6.73,6.73,0,0,1-.88,1.09,7.22,7.22,0,0,1-4.34,1.43,3.94,3.94,0,0,1-.76-.07l-.15,0,0-.15a6.47,6.47,0,0,1,1.49-5v0a8.54,8.54,0,0,0,4.44-1.64,12.5,12.5,0,0,1-4.3.88h-.4A7.2,7.2,0,0,1,1.9,13.5l-.08-.12.09-.13a6.71,6.71,0,0,1,4-2.44,8.25,8.25,0,0,0,4.68,2.35,12,12,0,0,1-3.93-2.71,7.17,7.17,0,0,1-1.35-5.1l0-.15.16,0a6.49,6.49,0,0,1,.75,0,6.27,6.27,0,0,1,4.13,1.41A8.4,8.4,0,0,0,12,11a11.81,11.81,0,0,1-.87-4.7,7.16,7.16,0,0,1,2.65-4.56h0a7.16,7.16,0,0,1,2.65,4.56,11.81,11.81,0,0,1-.87,4.7,8.4,8.4,0,0,0,1.65-4.48,6.27,6.27,0,0,1,4.13-1.41,6.49,6.49,0,0,1,.75,0l.15,0,0,.15a7.17,7.17,0,0,1-1.35,5.1A12,12,0,0,1,17,13.16a8.18,8.18,0,0,0,4.68-2.35,6.71,6.71,0,0,1,4,2.44l.09.13Z"/><rect class="cls-1" x="0.14" y="34.82" width="27.23" height="0.09"/><rect class="cls-1" x="0.14" y="37.89" width="27.23" height="0.09"/><path class="cls-1" d="M25.88,26.83a.36.36,0,0,0,.23.08.37.37,0,0,0,.25-.09.29.29,0,0,0,.1-.22.32.32,0,0,0-.1-.22.37.37,0,0,0-.25-.09.32.32,0,0,0-.23.09.28.28,0,0,0-.1.22A.28.28,0,0,0,25.88,26.83Z"/><path class="cls-1" d="M26.11,26.92a.36.36,0,0,1-.24-.09h0a.28.28,0,0,1-.1-.23.27.27,0,0,1,.1-.22.33.33,0,0,1,.24-.1.35.35,0,0,1,.25.09.3.3,0,0,1,.1.23.29.29,0,0,1-.1.23A.35.35,0,0,1,26.11,26.92Zm-.23-.1a.38.38,0,0,0,.23.08.36.36,0,0,0,.24-.08.27.27,0,0,0,.1-.22.25.25,0,0,0-.1-.21.32.32,0,0,0-.24-.09.33.33,0,0,0-.23.09.29.29,0,0,0-.09.21.29.29,0,0,0,.09.22Z"/><path class="cls-1" d="M16.19,28.58a.69.69,0,0,0,.66.46.79.79,0,0,0,.65-.25,1.18,1.18,0,0,0,.21-.77v-.15a1.17,1.17,0,0,1,0-.32.28.28,0,0,1,.21-.21h0v-.09H17v.09h0c.16,0,.24.21.24.49V28a1.56,1.56,0,0,1,0,.49c0,.15-.16.23-.36.26h-.08a.42.42,0,0,1-.34-.11.75.75,0,0,1-.13-.54v0a1.51,1.51,0,0,1,0-.32.31.31,0,0,1,.21-.22h0v-.1h-1v.1h0c.16.05.24.21.24.5v.06a1,1,0,0,1,0,.4.37.37,0,0,1-.35.26h-.09a.42.42,0,0,1-.38-.21,1,1,0,0,1-.11-.44v-.24a1.22,1.22,0,0,1,0-.32.27.27,0,0,1,.21-.21h0v-.09h-1v.09h0c.16,0,.24.21.24.49V28a1.6,1.6,0,0,1,0,.49.39.39,0,0,1-.36.26H6.63a.4.4,0,0,1-.36-.27,2.46,2.46,0,0,1,0-.51v-.13c0-.3.08-.47.23-.51h0v-.1h0a7.06,7.06,0,0,1-.92,0h0v.09h0c.15,0,.23.21.23.49V28a2.27,2.27,0,0,1,0,.49c0,.15-.16.23-.36.26H5.28a.42.42,0,0,1-.34-.11.75.75,0,0,1-.13-.54v0a1.17,1.17,0,0,1,0-.32.28.28,0,0,1,.21-.22h0v-.1h-1v.1h0c.16.05.23.22.23.5v.06a1.33,1.33,0,0,1,0,.4.39.39,0,0,1-.36.26H3.85c-.29,0-.45-.19-.49-.57v-.3c0-.38,0-.46,0-.47a.45.45,0,0,1,.17-.1h0v-.1h-1v.1h0a.25.25,0,0,1,.2.16.69.69,0,0,1,.05.29c0,.1,0,.2,0,.3a1.55,1.55,0,0,1-.22.87.89.89,0,0,1-.78.42A.91.91,0,0,1,1.07,29a1.39,1.39,0,0,1-.23-.83v-.28a.8.8,0,0,1,.05-.26.26.26,0,0,1,.2-.15h0v-.1h0l-.44,0-.5,0h0v.1h0a.29.29,0,0,1,.18.1s0,.08,0,.42c0,.05,0,.11,0,.18a1.2,1.2,0,0,0,.42,1,1.55,1.55,0,0,0,1.09.37,2,2,0,0,0,.74-.1,1.27,1.27,0,0,0,.39-.3,1.19,1.19,0,0,0,.33-.53.68.68,0,0,0,.64.44.8.8,0,0,0,.66-.25.72.72,0,0,0,.12-.21.69.69,0,0,0,.65.46A.85.85,0,0,0,6,28.82a.81.81,0,0,0,.62.2H14a.79.79,0,0,0,.65-.23.73.73,0,0,0,.13-.23.69.69,0,0,0,.67.48.79.79,0,0,0,.65-.25A.72.72,0,0,0,16.19,28.58Z"/><path class="cls-1" d="M1.84,29.54a1.61,1.61,0,0,1-1.1-.37,1.29,1.29,0,0,1-.42-1,1.21,1.21,0,0,0,0-.18c0-.34,0-.41,0-.42a.3.3,0,0,0-.17-.09h0v-.11h0a4.35,4.35,0,0,0,.5,0,3.71,3.71,0,0,0,.44,0h0v.12h0a.28.28,0,0,0-.19.14.6.6,0,0,0-.05.26v.28a1.36,1.36,0,0,0,.23.82.9.9,0,0,0,.76.4.88.88,0,0,0,.77-.43,1.44,1.44,0,0,0,.22-.86c0-.1,0-.2,0-.3a.72.72,0,0,0,0-.29.26.26,0,0,0-.19-.16h0v-.12h1v.11h0a.31.31,0,0,0-.16.09,1.2,1.2,0,0,0,0,.47v.3c0,.38.2.56.48.56h.08a.41.41,0,0,0,.36-.25,1.33,1.33,0,0,0,0-.4V28c0-.28-.08-.44-.23-.49h0v-.11h1v.11h0a.28.28,0,0,0-.2.21,1.22,1.22,0,0,0,0,.32v0a.81.81,0,0,0,.12.54.45.45,0,0,0,.33.1h.09a.38.38,0,0,0,.35-.25,2,2,0,0,0,0-.49v-.18c0-.28-.08-.44-.23-.49h0l0-.1h0a7.06,7.06,0,0,0,.92,0h0v.11h0c-.16.05-.23.21-.23.51V28a1.82,1.82,0,0,0,0,.51.39.39,0,0,0,.35.26H14a.41.41,0,0,0,.36-.25,2.27,2.27,0,0,0,0-.49v-.18c0-.28-.08-.44-.23-.49h0v-.11h1v.1h0a.28.28,0,0,0-.2.21,1.22,1.22,0,0,0,0,.32v.24a.78.78,0,0,0,.11.43.39.39,0,0,0,.37.21h.09a.4.4,0,0,0,.35-.25,1.44,1.44,0,0,0,0-.4V28c0-.28-.08-.44-.23-.49h0v-.11h1v.11h0a.3.3,0,0,0-.2.21,1.51,1.51,0,0,0,0,.32v0a.81.81,0,0,0,.12.54.45.45,0,0,0,.33.1h.09a.41.41,0,0,0,.36-.25,2.53,2.53,0,0,0,0-.49v-.18c0-.28-.08-.44-.23-.49h0v-.11h1v.11h0a.28.28,0,0,0-.2.21,1.22,1.22,0,0,0,0,.32V28a1.16,1.16,0,0,1-.21.77.8.8,0,0,1-.67.26.71.71,0,0,1-.65-.45.68.68,0,0,1-.11.19.78.78,0,0,1-.66.26.71.71,0,0,1-.67-.46.67.67,0,0,1-.12.2A.83.83,0,0,1,14,29H6.62a.81.81,0,0,1-.62-.2.85.85,0,0,1-.63.22.69.69,0,0,1-.65-.45.68.68,0,0,1-.11.19.8.8,0,0,1-.67.26.69.69,0,0,1-.64-.43,1.23,1.23,0,0,1-.32.52,1.47,1.47,0,0,1-.4.3A2.22,2.22,0,0,1,1.84,29.54ZM.11,27.45h0a.3.3,0,0,1,.17.09s0,.1,0,.43v.18a1.23,1.23,0,0,0,.41,1,1.59,1.59,0,0,0,1.09.36,2,2,0,0,0,.74-.1,1.34,1.34,0,0,0,.39-.3,1.17,1.17,0,0,0,.32-.52v0a.69.69,0,0,0,.64.44.74.74,0,0,0,.65-.25.56.56,0,0,0,.12-.2v0a.67.67,0,0,0,.64.45A.77.77,0,0,0,6,28.81H6a.83.83,0,0,0,.62.21H14a.79.79,0,0,0,.64-.24.54.54,0,0,0,.13-.22v0a.67.67,0,0,0,.66.47.73.73,0,0,0,.64-.25.56.56,0,0,0,.12-.2v0a.68.68,0,0,0,.65.45.73.73,0,0,0,.64-.25A1.13,1.13,0,0,0,17.7,28v-.15a1.31,1.31,0,0,1,0-.33.32.32,0,0,1,.21-.21h0v-.08H17v.08h0c.16.05.23.21.23.5V28a1.73,1.73,0,0,1,0,.49.39.39,0,0,1-.37.26h-.09a.48.48,0,0,1-.34-.11.78.78,0,0,1-.13-.55v0a1,1,0,0,1,0-.33.28.28,0,0,1,.2-.21h0v-.08h0l-.47,0-.46,0h0v.08h0c.16,0,.23.21.23.5v.06a1.33,1.33,0,0,1,0,.4.38.38,0,0,1-.36.26h-.09a.43.43,0,0,1-.39-.22,1.05,1.05,0,0,1-.11-.44v-.24a.92.92,0,0,1,0-.33.28.28,0,0,1,.21-.21h0v-.08h-1v.08h0c.16.05.24.21.24.5V28a2.21,2.21,0,0,1,0,.5.4.4,0,0,1-.36.26H6.63a.4.4,0,0,1-.37-.28,2.38,2.38,0,0,1,0-.51v-.13c0-.31.08-.48.24-.52h0v-.08h0a7.21,7.21,0,0,1-.93,0h0v.08h0c.16,0,.24.21.24.5V28a2.27,2.27,0,0,1,0,.49.39.39,0,0,1-.37.26H5.27a.48.48,0,0,1-.34-.11.78.78,0,0,1-.13-.55v0a1.31,1.31,0,0,1,0-.33A.32.32,0,0,1,5,27.54h0v-.08H5l-.47,0-.45,0h0v.08h0c.15,0,.23.21.23.5v.06a1.33,1.33,0,0,1,0,.4.39.39,0,0,1-.37.26H3.85c-.29,0-.46-.19-.5-.58v-.3a1.41,1.41,0,0,1,0-.48.38.38,0,0,1,.18-.09h0v-.08h0a4.1,4.1,0,0,1-.49,0,3.78,3.78,0,0,1-.46,0h0v.08h0a.27.27,0,0,1,.21.16.8.8,0,0,1,0,.3v.3a1.45,1.45,0,0,1-.23.87.86.86,0,0,1-.78.43.89.89,0,0,1-.77-.4,1.33,1.33,0,0,1-.24-.83v-.28a.8.8,0,0,1,.05-.26.26.26,0,0,1,.2-.15h0v-.08h0l-.44,0-.5,0h0Z"/><path class="cls-1" d="M19.15,29.27a.88.88,0,0,0,.19-.6,5.83,5.83,0,0,0,0-.63,8.51,8.51,0,0,1,0-.89v-.06l-.05,0a3.29,3.29,0,0,1-.67.15h0v.1h0a.18.18,0,0,1,.19.11,1.26,1.26,0,0,1,0,.26v.84c0,.55-.11.82-.32.82s-.26-.17-.34-.5v0H18.1l-.13.47h0a.76.76,0,0,0,.53.24h0A.81.81,0,0,0,19.15,29.27Z"/><path class="cls-1" d="M18.55,29.59h0a.8.8,0,0,1-.54-.24v0h0l.14-.47h.09v0c.07.33.18.49.33.49s.31-.27.31-.81v-.84a1.07,1.07,0,0,0,0-.25.17.17,0,0,0-.18-.11h0v-.11h0a3.21,3.21,0,0,0,.66-.15l.07,0v.07a8.51,8.51,0,0,0,0,.89,5.83,5.83,0,0,1,0,.63.94.94,0,0,1-.19.6h0A.82.82,0,0,1,18.55,29.59ZM18,29.32v0a.77.77,0,0,0,.52.23h0a.81.81,0,0,0,.6-.31.92.92,0,0,0,.18-.59,5.88,5.88,0,0,0,0-.63,8.75,8.75,0,0,1,0-.9v0h0a3.29,3.29,0,0,1-.67.15h0v.08h0a.19.19,0,0,1,.2.12,1.18,1.18,0,0,1,0,.26v.84c0,.55-.12.83-.33.83s-.27-.17-.35-.51v0h-.07Z"/><path class="cls-1" d="M27.41,29V29h0a.37.37,0,0,1-.25-.34,2.46,2.46,0,0,1,0-.48v-.33c0-.26,0-.52,0-.77V27l0,0a4.64,4.64,0,0,1-.77.14h0v.09h0a.22.22,0,0,1,.2.12,1,1,0,0,1,0,.27v.57a1.33,1.33,0,0,0,0,.35.65.65,0,0,0,.11.22h-6v-2.2c0-.32,0-.56,0-.76v-.05h-.05a2.34,2.34,0,0,1-.67.15h0V26h0c.1,0,.17,0,.19.11a.75.75,0,0,1,0,.26V28.2a3.48,3.48,0,0,1,0,.44.34.34,0,0,1-.24.3h0V29Z"/><path class="cls-1" d="M27.42,29H19.91v-.09h0a.32.32,0,0,0,.24-.29,3.48,3.48,0,0,0,0-.44V26.38a1.41,1.41,0,0,0,0-.25A.18.18,0,0,0,20,26h0v-.11h0a2.68,2.68,0,0,0,.67-.14l.06,0v.06c0,.2,0,.44,0,.76v2.19h6a.43.43,0,0,1-.11-.21,1.33,1.33,0,0,1,0-.35v-.57a.87.87,0,0,0,0-.26.21.21,0,0,0-.19-.12h0v-.11h0A5.85,5.85,0,0,0,27.1,27l.06,0V27c0,.25,0,.51,0,.77v.33c0,.26,0,.42,0,.48a.38.38,0,0,0,.26.33h0Zm-7.49,0H27.4V29h0a.39.39,0,0,1-.26-.35,3.8,3.8,0,0,1,0-.48v-.33c0-.26,0-.52,0-.77v0h0a3.75,3.75,0,0,1-.77.15h0v.07h0a.2.2,0,0,1,.21.12,1.38,1.38,0,0,1,0,.27v.57a2.5,2.5,0,0,0,0,.35.5.5,0,0,0,.12.21v0h-6V26.56c0-.32,0-.56,0-.76v0h0a3.15,3.15,0,0,1-.67.15h0V26h0a.21.21,0,0,1,.2.12.87.87,0,0,1,0,.26V28.2a4.39,4.39,0,0,1,0,.44.37.37,0,0,1-.25.31h0Z"/><path class="cls-1" d="M1,33.78c0-.05-.07-.18-.07-.39V31.34L3.08,34h.09V31.21a.82.82,0,0,1,.05-.35.33.33,0,0,1,.3-.13h.12v-.09H2.48v.09h.11a.35.35,0,0,1,.29.1.62.62,0,0,1,.07.38v1.93l-2-2.5H0v.09l.21,0a.71.71,0,0,1,.23.1,2.43,2.43,0,0,1,.21.22v2.32a.7.7,0,0,1-.05.36.33.33,0,0,1-.3.13H.19V34H1.35v-.09H1.24A.37.37,0,0,1,1,33.78Z"/><path class="cls-1" d="M3.18,34h-.1L.89,31.36v2a.74.74,0,0,0,.06.38.37.37,0,0,0,.29.1h.12V34H.18v-.11H.31a.32.32,0,0,0,.29-.12.67.67,0,0,0,.06-.36V31.08a1.45,1.45,0,0,0-.22-.22.65.65,0,0,0-.22-.1.56.56,0,0,0-.21,0H0v-.11H.92l2,2.48v-1.9a.69.69,0,0,0-.06-.37.37.37,0,0,0-.29-.1H2.47v-.11H3.65v.11H3.52a.33.33,0,0,0-.29.12.68.68,0,0,0,0,.35Zm-.1,0h.08V31.21a.72.72,0,0,1,.06-.36.32.32,0,0,1,.3-.13h.11v-.08H2.49v.08h.1a.38.38,0,0,1,.3.11.62.62,0,0,1,.07.38v1.95l0,0-2-2.5H0v.08l.21,0a.93.93,0,0,1,.22.1,1.68,1.68,0,0,1,.22.23h0v2.32a.93.93,0,0,1-.05.37.38.38,0,0,1-.31.13H.2V34H1.35v-.07H1.24a.39.39,0,0,1-.3-.11h0a.73.73,0,0,1-.07-.39V31.32h0Z"/><path class="cls-1" d="M6.25,33.81a.52.52,0,0,1-.27.07V34H7.29v-.09A.61.61,0,0,1,7,33.77a1.33,1.33,0,0,1-.25-.44L5.56,30.56H5.47L4.3,33.3a1.53,1.53,0,0,1-.28.49.63.63,0,0,1-.27.09V34h1v-.09a.69.69,0,0,1-.31-.07.17.17,0,0,1-.07-.14.74.74,0,0,1,.08-.29l.23-.53H6l.2.48a1.2,1.2,0,0,1,.1.35A.17.17,0,0,1,6.25,33.81ZM4.8,32.67l.58-1.34L6,32.67Z"/><path class="cls-1" d="M7.3,34H6v-.11H6a.57.57,0,0,0,.26-.06h0a.19.19,0,0,0,.07-.13,1,1,0,0,0-.1-.34L6,32.86H4.73l-.22.52a.81.81,0,0,0-.09.29.19.19,0,0,0,.07.13.64.64,0,0,0,.31.07h0V34H3.74v-.11h0A.44.44,0,0,0,4,33.78a1.39,1.39,0,0,0,.28-.48l1.18-2.75h.1l1.16,2.77a1,1,0,0,0,.25.43.48.48,0,0,0,.31.11h0ZM6,34h1.3v-.07A.49.49,0,0,1,7,33.77a1.14,1.14,0,0,1-.26-.43L5.55,30.57H5.48L4.31,33.31a1.81,1.81,0,0,1-.28.48.6.6,0,0,1-.27.1V34h1v-.07a.58.58,0,0,1-.31-.08.17.17,0,0,1-.07-.14.7.7,0,0,1,.08-.29l.23-.53H6l.21.48a1.11,1.11,0,0,1,.09.35.17.17,0,0,1-.07.14.49.49,0,0,1-.27.07Zm0-1.28H4.79l.59-1.38Zm-1.15,0H5.93l-.55-1.31Z"/><path class="cls-1" d="M7.86,33.74a.34.34,0,0,1-.3.14H7.43V34H8.86v-.09H8.73a.36.36,0,0,1-.28-.11.73.73,0,0,1-.07-.39v-1h.35L9.86,34h.89v-.09a1,1,0,0,1-.44-.14,1.79,1.79,0,0,1-.41-.44l-.69-.95A1.18,1.18,0,0,0,9.84,32a.79.79,0,0,0,.2-.53.73.73,0,0,0-.18-.5,1,1,0,0,0-.43-.29,3,3,0,0,0-.78-.07H7.43v.09h.13a.32.32,0,0,1,.28.11c0,.05.07.18.07.39v2.15A.7.7,0,0,1,7.86,33.74Zm.52-2.87a2.43,2.43,0,0,1,.39-.05.72.72,0,0,1,.52.2.69.69,0,0,1,.19.51.64.64,0,0,1-.24.52,1.07,1.07,0,0,1-.72.21H8.38Z"/><path class="cls-1" d="M10.76,34H9.85L8.73,32.42H8.39v1c0,.21,0,.34.07.39a.33.33,0,0,0,.27.1h.14V34H7.43v-.11h.13a.3.3,0,0,0,.29-.13h0a.7.7,0,0,0,.05-.36V31.23a.76.76,0,0,0-.06-.39.36.36,0,0,0-.28-.1H7.43v-.11H8.65a2.53,2.53,0,0,1,.78.08.86.86,0,0,1,.44.28.76.76,0,0,1,.18.51.8.8,0,0,1-.21.54,1.17,1.17,0,0,1-.61.31l.68.95a1.54,1.54,0,0,0,.4.43,1,1,0,0,0,.44.14h0Zm-.89,0h.87v-.07a1.09,1.09,0,0,1-.44-.14,1.8,1.8,0,0,1-.4-.44l-.7-1h0A1.11,1.11,0,0,0,9.83,32a.77.77,0,0,0,.2-.52A.71.71,0,0,0,9.85,31a.82.82,0,0,0-.42-.29,2.94,2.94,0,0,0-.78-.08H7.44v.08h.12a.37.37,0,0,1,.29.11c.05.05.07.18.07.4v2.15a.9.9,0,0,1,0,.37.34.34,0,0,1-.31.14H7.44V34H8.85v-.07H8.73a.36.36,0,0,1-.28-.11.7.7,0,0,1-.07-.4v-1h.36ZM8.52,32.27H8.38V30.86h0a2.31,2.31,0,0,1,.39,0,.69.69,0,0,1,.52.19.72.72,0,0,1,.2.52.68.68,0,0,1-.24.53A1.11,1.11,0,0,1,8.52,32.27Zm-.13,0h.13a1.09,1.09,0,0,0,.71-.2.63.63,0,0,0,.24-.52.65.65,0,0,0-.19-.5.69.69,0,0,0-.51-.2,2.47,2.47,0,0,0-.38.05Z"/><path class="cls-1" d="M12,30.91a1,1,0,0,1,.6-.17,1,1,0,0,1,.67.22,1.4,1.4,0,0,1,.44.73h.07l-.07-1.13h-.09a.48.48,0,0,1-.09.19.15.15,0,0,1-.11,0,.5.5,0,0,1-.15-.05,1.56,1.56,0,0,0-.71-.18,1.7,1.7,0,0,0-.86.23,1.62,1.62,0,0,0-.62.65,1.88,1.88,0,0,0-.22.91,1.72,1.72,0,0,0,.34,1.08,1.63,1.63,0,0,0,2.08.41,1.78,1.78,0,0,0,.58-.65l-.08,0a1.65,1.65,0,0,1-.54.55,1.1,1.1,0,0,1-.57.14,1.27,1.27,0,0,1-.67-.18,1.06,1.06,0,0,1-.44-.51,2.05,2.05,0,0,1-.14-.78,2.46,2.46,0,0,1,.15-.92A1.16,1.16,0,0,1,12,30.91Z"/><path class="cls-1" d="M12.51,34.06a1.53,1.53,0,0,1-1.29-.62,1.83,1.83,0,0,1-.34-1.08,1.94,1.94,0,0,1,.23-.93,1.73,1.73,0,0,1,.61-.65,1.77,1.77,0,0,1,.87-.23,1.53,1.53,0,0,1,.71.18l.15.05a.17.17,0,0,0,.11,0,.37.37,0,0,0,.08-.18h.11l.07,1.15h-.09A1.46,1.46,0,0,0,13.3,31a1,1,0,0,0-.67-.22,1.12,1.12,0,0,0-.6.16,1.07,1.07,0,0,0-.42.54,2.4,2.4,0,0,0-.15.91,2.05,2.05,0,0,0,.14.78,1.1,1.1,0,0,0,.44.51,1.3,1.3,0,0,0,.66.17,1,1,0,0,0,.56-.14,1.76,1.76,0,0,0,.55-.55h0l.09.06h0a1.83,1.83,0,0,1-.59.66A1.47,1.47,0,0,1,12.51,34.06Zm.08-3.49a1.61,1.61,0,0,0-.86.23,1.63,1.63,0,0,0-.61.64,1.9,1.9,0,0,0-.22.92,1.71,1.71,0,0,0,.34,1.07,1.51,1.51,0,0,0,1.27.61,1.46,1.46,0,0,0,.79-.21,1.74,1.74,0,0,0,.58-.64l-.06,0a1.76,1.76,0,0,1-.55.55,1.17,1.17,0,0,1-.57.14,1.24,1.24,0,0,1-.67-.18,1,1,0,0,1-.44-.51,1.92,1.92,0,0,1-.15-.79,2.3,2.3,0,0,1,.16-.92A1.07,1.07,0,0,1,12,30.9h0a1.14,1.14,0,0,1,.61-.17,1.07,1.07,0,0,1,.68.23,1.42,1.42,0,0,1,.44.73h.06l-.08-1.12h-.07a.44.44,0,0,1-.09.18.21.21,0,0,1-.12.05.47.47,0,0,1-.16-.05A1.52,1.52,0,0,0,12.59,30.57Z"/><path class="cls-1" d="M14.61,33.76a.35.35,0,0,1-.3.12h-.12V34h1.43v-.09H15.5a.43.43,0,0,1-.22-.06.22.22,0,0,1-.11-.1,1.24,1.24,0,0,1,0-.34V31.23a.74.74,0,0,1,.06-.38.35.35,0,0,1,.3-.12h.12v-.09H14.19v.09h.12a.43.43,0,0,1,.22.06.22.22,0,0,1,.11.1,1.24,1.24,0,0,1,0,.34v2.15A.74.74,0,0,1,14.61,33.76Z"/><path class="cls-1" d="M15.63,34H14.18v-.11h.13a.34.34,0,0,0,.29-.12.69.69,0,0,0,.06-.37V31.23a1.11,1.11,0,0,0,0-.33.26.26,0,0,0-.1-.11.54.54,0,0,0-.22-.05h-.13v-.11h1.45v.11H15.5a.37.37,0,0,0-.29.11.74.74,0,0,0-.06.38v2.15a1.11,1.11,0,0,0,0,.33.19.19,0,0,0,.1.1.43.43,0,0,0,.22.06h.13ZM14.2,34h1.41v-.07H15.5a.46.46,0,0,1-.23-.06.29.29,0,0,1-.11-.11,1.24,1.24,0,0,1,0-.34V31.23a.79.79,0,0,1,.06-.39.39.39,0,0,1,.31-.12h.11v-.08H14.2v.08h.11a.46.46,0,0,1,.23.06.21.21,0,0,1,.1.11.81.81,0,0,1,0,.34v2.15a.71.71,0,0,1-.06.38h0a.36.36,0,0,1-.31.13H14.2Z"/><path class="cls-1" d="M17,34a1.18,1.18,0,0,0,.27,0,1.05,1.05,0,0,0,.76-.28.87.87,0,0,0,.29-.65.85.85,0,0,0-.09-.38,1,1,0,0,0-.26-.32,6.27,6.27,0,0,0-.64-.38,3.23,3.23,0,0,1-.73-.49.44.44,0,0,1-.1-.28.5.5,0,0,1,.16-.36.64.64,0,0,1,.43-.15,1,1,0,0,1,.44.11.76.76,0,0,1,.32.32,1.33,1.33,0,0,1,.16.52h.09V30.56H18c0,.08,0,.13-.07.15a.12.12,0,0,1-.1,0,.55.55,0,0,1-.19-.06,1.38,1.38,0,0,0-.57-.13,1,1,0,0,0-.7.26.85.85,0,0,0-.18,1,1,1,0,0,0,.27.31,5.9,5.9,0,0,0,.61.38,6,6,0,0,1,.53.32.9.9,0,0,1,.21.23.57.57,0,0,1,.06.25.47.47,0,0,1-.17.38.69.69,0,0,1-.49.17,1,1,0,0,1-.49-.12.81.81,0,0,1-.33-.3,1.63,1.63,0,0,1-.17-.54h-.09v1.15h.09a.28.28,0,0,1,.05-.15.13.13,0,0,1,.1,0,1.07,1.07,0,0,1,.3.08A1.54,1.54,0,0,0,17,34Z"/><path class="cls-1" d="M17.22,34.06A1.18,1.18,0,0,1,17,34a1.33,1.33,0,0,1-.32-.09,1.2,1.2,0,0,0-.3-.07.12.12,0,0,0-.09,0,.28.28,0,0,0,0,.15h-.11V32.9h.11a1.63,1.63,0,0,0,.17.54.79.79,0,0,0,.33.29,1,1,0,0,0,.48.12.73.73,0,0,0,.48-.16.51.51,0,0,0,.18-.38.55.55,0,0,0-.07-.24.66.66,0,0,0-.21-.24L17,32.52a5.45,5.45,0,0,1-.61-.38,1.19,1.19,0,0,1-.28-.32.79.79,0,0,1-.09-.38.84.84,0,0,1,.28-.63,1,1,0,0,1,.7-.26,1.56,1.56,0,0,1,.57.13.55.55,0,0,0,.19.06.17.17,0,0,0,.1,0,.26.26,0,0,0,.06-.15h.11v1.17H18a1.33,1.33,0,0,0-.16-.53.8.8,0,0,0-.32-.31.84.84,0,0,0-.43-.11.6.6,0,0,0-.42.15.46.46,0,0,0-.16.35.39.39,0,0,0,.1.27,2.63,2.63,0,0,0,.72.49,5,5,0,0,1,.64.39.83.83,0,0,1,.27.32.82.82,0,0,1,.09.38.89.89,0,0,1-.29.66A1.12,1.12,0,0,1,17.22,34.06Zm-.89-.21a1.69,1.69,0,0,1,.31.08L17,34h0l.27,0a1,1,0,0,0,.75-.27.84.84,0,0,0,.29-.65.85.85,0,0,0-.09-.38,1,1,0,0,0-.26-.31,4.22,4.22,0,0,0-.64-.38,2.59,2.59,0,0,1-.72-.5.43.43,0,0,1-.11-.28.48.48,0,0,1,.17-.36.59.59,0,0,1,.43-.16.88.88,0,0,1,.44.12.82.82,0,0,1,.33.31,1.58,1.58,0,0,1,.16.53H18V30.57H18a.35.35,0,0,1-.07.15.14.14,0,0,1-.11,0,.58.58,0,0,1-.2-.06,1.34,1.34,0,0,0-.56-.13,1,1,0,0,0-.69.26.8.8,0,0,0-.27.61.75.75,0,0,0,.09.37.88.88,0,0,0,.27.31,4.13,4.13,0,0,0,.61.39,4.73,4.73,0,0,1,.52.31.71.71,0,0,1,.22.24.57.57,0,0,1,.06.25.51.51,0,0,1-.18.39.69.69,0,0,1-.49.16,1.14,1.14,0,0,1-.49-.11.91.91,0,0,1-.34-.3,2,2,0,0,1-.17-.54H16.1V34h.07a.21.21,0,0,1,.06-.15A.12.12,0,0,1,16.33,33.85Z"/><path class="cls-1" d="M18.86,31.44a.82.82,0,0,0,.09.38,1,1,0,0,0,.27.31,5.9,5.9,0,0,0,.61.38,6,6,0,0,1,.53.32.9.9,0,0,1,.21.23.57.57,0,0,1,.06.25.47.47,0,0,1-.17.38.69.69,0,0,1-.49.17,1,1,0,0,1-.49-.12.88.88,0,0,1-.33-.3A1.63,1.63,0,0,1,19,32.9h-.09v1.15H19A.28.28,0,0,1,19,33.9a.13.13,0,0,1,.1,0,1.07,1.07,0,0,1,.3.08,1.54,1.54,0,0,0,.32.08l.27,0a1.05,1.05,0,0,0,.76-.28.84.84,0,0,0,.29-.65.85.85,0,0,0-.09-.38,1,1,0,0,0-.26-.32,6.27,6.27,0,0,0-.64-.38,3.23,3.23,0,0,1-.73-.49.44.44,0,0,1-.1-.28.47.47,0,0,1,.17-.36.6.6,0,0,1,.42-.15,1,1,0,0,1,.44.11.76.76,0,0,1,.32.32,1.33,1.33,0,0,1,.16.52h.09V30.56h-.09a.37.37,0,0,1-.06.15.15.15,0,0,1-.11,0,.55.55,0,0,1-.19-.06,1.38,1.38,0,0,0-.57-.13,1,1,0,0,0-.7.26A.83.83,0,0,0,18.86,31.44Z"/><path class="cls-1" d="M20,34.06l-.27,0a1.22,1.22,0,0,1-.32-.09,1.2,1.2,0,0,0-.3-.07.12.12,0,0,0-.09,0,.32.32,0,0,0-.05.15h-.11V32.9H19a1.63,1.63,0,0,0,.17.54.86.86,0,0,0,.33.29,1,1,0,0,0,.48.12.71.71,0,0,0,.48-.16.51.51,0,0,0,.18-.38.55.55,0,0,0-.07-.24.59.59,0,0,0-.21-.24l-.52-.31a5.45,5.45,0,0,1-.61-.38,1.19,1.19,0,0,1-.28-.32.79.79,0,0,1-.09-.38.84.84,0,0,1,.28-.63,1,1,0,0,1,.7-.26,1.56,1.56,0,0,1,.57.13.5.5,0,0,0,.19.06.17.17,0,0,0,.1,0,.26.26,0,0,0,.06-.15h.11v1.17h-.11a1.33,1.33,0,0,0-.16-.53.8.8,0,0,0-.32-.31.84.84,0,0,0-.43-.11.6.6,0,0,0-.42.15.46.46,0,0,0-.16.35.39.39,0,0,0,.1.27,2.81,2.81,0,0,0,.72.49,5,5,0,0,1,.64.39.83.83,0,0,1,.27.32.85.85,0,0,1,.09.38.89.89,0,0,1-.29.66A1.12,1.12,0,0,1,20,34.06Zm-.89-.21a1.51,1.51,0,0,1,.31.08l.31.09L20,34a1,1,0,0,0,.75-.27.85.85,0,0,0,.3-.65.86.86,0,0,0-.1-.38.85.85,0,0,0-.26-.31,4.54,4.54,0,0,0-.63-.38,2.69,2.69,0,0,1-.73-.5.43.43,0,0,1-.11-.28.48.48,0,0,1,.17-.36.59.59,0,0,1,.43-.16.88.88,0,0,1,.44.12.82.82,0,0,1,.33.31,1.58,1.58,0,0,1,.16.53h.07V30.57h-.07a.35.35,0,0,1-.07.15.14.14,0,0,1-.11,0,.58.58,0,0,1-.2-.06,1.34,1.34,0,0,0-.56-.13,1,1,0,0,0-.69.26.8.8,0,0,0-.27.61.75.75,0,0,0,.09.37.88.88,0,0,0,.27.31,5.18,5.18,0,0,0,.61.39,4.73,4.73,0,0,1,.52.31.71.71,0,0,1,.22.24.57.57,0,0,1,.06.25.51.51,0,0,1-.18.39.69.69,0,0,1-.49.16,1,1,0,0,1-.49-.11.88.88,0,0,1-.33-.3,1.61,1.61,0,0,1-.18-.54H18.9V34H19a.31.31,0,0,1,.06-.15A.12.12,0,0,1,19.13,33.85Z"/><path class="cls-1" d="M22.33,33.86a1.48,1.48,0,0,0,.83.19,1.43,1.43,0,0,0,.8-.2,1,1,0,0,0,.39-.47,2.64,2.64,0,0,0,.1-.78V31.25a.7.7,0,0,1,.05-.36.33.33,0,0,1,.3-.16h.13v-.09H23.75v.09h.12a.35.35,0,0,1,.29.11.73.73,0,0,1,.07.39v1.35a2.16,2.16,0,0,1-.1.75.78.78,0,0,1-.35.37,1.25,1.25,0,0,1-.59.14.94.94,0,0,1-.43-.09.69.69,0,0,1-.27-.23,1.19,1.19,0,0,1-.13-.39,3.91,3.91,0,0,1,0-.45V31.23a.74.74,0,0,1,.06-.37.32.32,0,0,1,.29-.13h.13v-.09H21.37v.09h.13a.37.37,0,0,1,.27.09.65.65,0,0,1,.09.41v1.3a3,3,0,0,0,.07.82A1.12,1.12,0,0,0,22.33,33.86Z"/><path class="cls-1" d="M23.16,34.06a1.57,1.57,0,0,1-.83-.19h0a1,1,0,0,1-.4-.52,2.5,2.5,0,0,1-.08-.82v-1.3a.61.61,0,0,0-.09-.4.33.33,0,0,0-.26-.09h-.14v-.11h1.46v.11h-.14a.31.31,0,0,0-.28.12.74.74,0,0,0-.06.37v1.45a3.61,3.61,0,0,0,0,.44.89.89,0,0,0,.13.39.69.69,0,0,0,.27.23.9.9,0,0,0,.42.09,1.18,1.18,0,0,0,.58-.14.8.8,0,0,0,.35-.36,1.94,1.94,0,0,0,.1-.75V31.23a.73.73,0,0,0-.07-.39.34.34,0,0,0-.28-.1h-.13v-.11h1.19v.11H24.8a.31.31,0,0,0-.29.16.66.66,0,0,0-.05.35V32.6a2.59,2.59,0,0,1-.1.78,1,1,0,0,1-.4.48A1.41,1.41,0,0,1,23.16,34.06Zm-.82-.21a1.44,1.44,0,0,0,.82.19,1.4,1.4,0,0,0,.79-.19,1,1,0,0,0,.39-.48,2.24,2.24,0,0,0,.1-.77V31.25a.84.84,0,0,1,0-.36.36.36,0,0,1,.31-.17h.12v-.08H23.75v.08h.12a.37.37,0,0,1,.29.11c.05.05.07.18.07.4v1.35a2.18,2.18,0,0,1-.09.75.72.72,0,0,1-.36.37,1.15,1.15,0,0,1-.59.15.83.83,0,0,1-.43-.1.81.81,0,0,1-.28-.23,1,1,0,0,1-.12-.39,2.57,2.57,0,0,1,0-.45V31.23a.79.79,0,0,1,.06-.38.33.33,0,0,1,.3-.13h.12v-.08H21.38v.08h.12a.36.36,0,0,1,.28.1.72.72,0,0,1,.08.41v1.3a2.87,2.87,0,0,0,.08.82,1,1,0,0,0,.4.5Z"/><path class="cls-1" d="M27.42,32.74a.91.91,0,0,0-.27-.32,5,5,0,0,0-.63-.38,3,3,0,0,1-.73-.49.44.44,0,0,1-.1-.28.5.5,0,0,1,.16-.36.63.63,0,0,1,.43-.15,1,1,0,0,1,.43.11.85.85,0,0,1,.33.32,1.33,1.33,0,0,1,.16.52h.09V30.56H27.2c0,.08,0,.13-.07.15a.12.12,0,0,1-.1,0,.65.65,0,0,1-.2-.06,1.3,1.3,0,0,0-.56-.13,1,1,0,0,0-.7.26.85.85,0,0,0-.18,1,1,1,0,0,0,.27.31,5,5,0,0,0,.61.38,6,6,0,0,1,.53.32.9.9,0,0,1,.21.23.57.57,0,0,1,.06.25.48.48,0,0,1-.18.38.67.67,0,0,1-.48.17,1,1,0,0,1-.49-.12.81.81,0,0,1-.33-.3,1.63,1.63,0,0,1-.17-.54h-.09v1.15h.09a.28.28,0,0,1,0-.15.12.12,0,0,1,.1,0,1.07,1.07,0,0,1,.3.08,1.54,1.54,0,0,0,.32.08,1.12,1.12,0,0,0,.27,0,1.05,1.05,0,0,0,.76-.28.87.87,0,0,0,.29-.65A.85.85,0,0,0,27.42,32.74Z"/><path class="cls-1" d="M26.46,34.06a1.12,1.12,0,0,1-.27,0,1.33,1.33,0,0,1-.32-.09,1.3,1.3,0,0,0-.3-.07.12.12,0,0,0-.09,0s0,.07-.05.15h-.11V32.9h.11a1.63,1.63,0,0,0,.17.54.91.91,0,0,0,.32.29,1,1,0,0,0,.49.12.73.73,0,0,0,.48-.16.5.5,0,0,0,.17-.38.53.53,0,0,0-.06-.24.93.93,0,0,0-.21-.24l-.52-.31a5.45,5.45,0,0,1-.61-.38.92.92,0,0,1-.28-.32.79.79,0,0,1-.09-.38.86.86,0,0,1,.27-.63,1,1,0,0,1,.71-.26,1.56,1.56,0,0,1,.57.13.55.55,0,0,0,.19.06.17.17,0,0,0,.1,0,.57.57,0,0,0,.06-.15h.11v1.17h-.11a1.39,1.39,0,0,0-.16-.52.8.8,0,0,0-.32-.31.84.84,0,0,0-.43-.11.6.6,0,0,0-.42.15.47.47,0,0,0-.17.35.4.4,0,0,0,.11.27,2.63,2.63,0,0,0,.72.49,5,5,0,0,1,.64.39,1,1,0,0,1,.27.32h0a.85.85,0,0,1,.09.38.88.88,0,0,1-.3.66A1.08,1.08,0,0,1,26.46,34.06Zm-.89-.21a1.48,1.48,0,0,1,.3.08l.32.09.27,0a1,1,0,0,0,.75-.27.87.87,0,0,0,.29-.65.85.85,0,0,0-.09-.38h0a1,1,0,0,0-.26-.31,4.22,4.22,0,0,0-.64-.38,2.59,2.59,0,0,1-.72-.5.38.38,0,0,1-.11-.28.44.44,0,0,1,.17-.36.57.57,0,0,1,.43-.16.88.88,0,0,1,.44.12.82.82,0,0,1,.33.31,1.39,1.39,0,0,1,.15.53h.08V30.57H27.2a.26.26,0,0,1-.06.15.15.15,0,0,1-.11,0,.58.58,0,0,1-.2-.06,1.34,1.34,0,0,0-.56-.13,1,1,0,0,0-.69.26.81.81,0,0,0-.28.61.76.76,0,0,0,.1.37.88.88,0,0,0,.27.31,5.8,5.8,0,0,0,.6.39,4.64,4.64,0,0,1,.53.31.59.59,0,0,1,.21.24.47.47,0,0,1,.07.25.51.51,0,0,1-.18.39.69.69,0,0,1-.49.16,1,1,0,0,1-.49-.11.92.92,0,0,1-.34-.3,1.63,1.63,0,0,1-.17-.54h-.07V34h.07a.21.21,0,0,1,.06-.15A.11.11,0,0,1,25.57,33.85Z"/><path class="cls-1" d="M4.57,36.41a.41.41,0,0,1,.22.1.3.3,0,0,1,.1.24.36.36,0,0,1-.06.2.4.4,0,0,1-.19.15,1.11,1.11,0,0,1-.36,0H3.6v0h0a.17.17,0,0,0,.13-.05.32.32,0,0,0,0-.16V36a.29.29,0,0,0,0-.17.14.14,0,0,0-.12,0h0v0h.62a1,1,0,0,1,.28,0,.4.4,0,0,1,.24.13.33.33,0,0,1,.09.23.28.28,0,0,1-.07.19A.38.38,0,0,1,4.57,36.41ZM4,36.35h.2a.67.67,0,0,0,.23,0,.2.2,0,0,0,.12-.1.3.3,0,0,0,.05-.15.28.28,0,0,0-.11-.22.45.45,0,0,0-.3-.09.58.58,0,0,0-.19,0ZM4,37a1,1,0,0,0,.24,0,.45.45,0,0,0,.3-.09.3.3,0,0,0,.1-.21.37.37,0,0,0-.05-.17.31.31,0,0,0-.15-.12.62.62,0,0,0-.25,0H4Z"/><path class="cls-1" d="M5.93,35.67a.67.67,0,0,1,.49.21.72.72,0,0,1,.21.53.77.77,0,0,1-.21.55.7.7,0,0,1-.5.22.63.63,0,0,1-.5-.22.73.73,0,0,1-.21-.54.71.71,0,0,1,.24-.56A.65.65,0,0,1,5.93,35.67Zm0,.08a.37.37,0,0,0-.31.14.79.79,0,0,0-.14.52.88.88,0,0,0,.15.55.37.37,0,0,0,.3.14.41.41,0,0,0,.34-.16.75.75,0,0,0,.13-.5.93.93,0,0,0-.14-.55A.39.39,0,0,0,5.91,35.75Z"/><path class="cls-1" d="M7.87,35.74v0h.51v0H8.33a.14.14,0,0,0-.13.07.24.24,0,0,0,0,.15v.59a1.05,1.05,0,0,1,0,.34.4.4,0,0,1-.17.2.57.57,0,0,1-.34.09.69.69,0,0,1-.36-.08.46.46,0,0,1-.17-.22,1,1,0,0,1,0-.36V36a.36.36,0,0,0,0-.18.16.16,0,0,0-.12,0H6.84v0h.63v0H7.41a.15.15,0,0,0-.13.06.42.42,0,0,0,0,.16v.62a1.48,1.48,0,0,0,0,.2.38.38,0,0,0,.06.17.31.31,0,0,0,.12.1.48.48,0,0,0,.18,0A.46.46,0,0,0,7.89,37,.36.36,0,0,0,8,36.87a.92.92,0,0,0,0-.33V36a.29.29,0,0,0,0-.17.17.17,0,0,0-.12,0Z"/><path class="cls-1" d="M9.79,35.7V36h0a.23.23,0,0,0,0-.13.2.2,0,0,0-.09-.09.26.26,0,0,0-.14,0H9.3v1.1a.29.29,0,0,0,0,.17s.06,0,.12,0H9.5v0H8.89v0h0a.14.14,0,0,0,.13-.05.47.47,0,0,0,0-.16v-1.1H8.92l-.14,0a.23.23,0,0,0-.1.07.34.34,0,0,0,0,.16h0l0-.34Z"/><path class="cls-1" d="M10.65,37.1v0H10v0h.05a.14.14,0,0,0,.13-.05.47.47,0,0,0,0-.16V36a.5.5,0,0,0,0-.15.07.07,0,0,0-.05,0,.16.16,0,0,0-.09,0H10v0h.61v0H10.6a.17.17,0,0,0-.13,0s0,.08,0,.17v.93a.45.45,0,0,0,0,.14.1.1,0,0,0,0,0,.18.18,0,0,0,.1,0Z"/><path class="cls-1" d="M11.79,37.16a.79.79,0,0,0,.23.27.61.61,0,0,0,.29.11v0a.89.89,0,0,1-.31-.06.94.94,0,0,1-.32-.15,1.37,1.37,0,0,1-.26-.2,1.29,1.29,0,0,1-.24-.13.57.57,0,0,1-.2-.26.75.75,0,0,1-.07-.35.77.77,0,0,1,.2-.54.69.69,0,0,1,.51-.21.67.67,0,0,1,.49.21.75.75,0,0,1,.21.54.78.78,0,0,1-.15.47A.74.74,0,0,1,11.79,37.16Zm-.18-1.41a.4.4,0,0,0-.31.14.78.78,0,0,0-.15.53.87.87,0,0,0,.15.54.37.37,0,0,0,.31.14.39.39,0,0,0,.32-.14.78.78,0,0,0,.15-.51A1.15,1.15,0,0,0,12,36a.54.54,0,0,0-.16-.2A.46.46,0,0,0,11.61,35.75Z"/><path class="cls-1" d="M13.56,35.74v0h.51v0H14a.14.14,0,0,0-.13.07s0,.07,0,.15v.59a1,1,0,0,1,0,.34.38.38,0,0,1-.16.2.61.61,0,0,1-.35.09A.69.69,0,0,1,13,37.1a.46.46,0,0,1-.17-.22,1.48,1.48,0,0,1,0-.36V36a.34.34,0,0,0,0-.18.15.15,0,0,0-.12,0h-.05v0h.62v0H13.1a.12.12,0,0,0-.12.06s0,.07,0,.16v.62a1.68,1.68,0,0,0,0,.2A.38.38,0,0,0,13,37a.4.4,0,0,0,.12.1.48.48,0,0,0,.18,0,.46.46,0,0,0,.26-.07.36.36,0,0,0,.15-.15.92.92,0,0,0,0-.33V36a.29.29,0,0,0,0-.17.17.17,0,0,0-.12,0Z"/><path class="cls-1" d="M14.68,35.78v.57H15c.09,0,.14,0,.17,0a.24.24,0,0,0,.06-.17h0v.5h0a.49.49,0,0,0,0-.13.09.09,0,0,0-.06-.06.28.28,0,0,0-.14,0h-.31V37l0,0h.51a.3.3,0,0,0,.1-.07.69.69,0,0,0,.14-.2h0l-.12.36H14.27v0h.05a.15.15,0,0,0,.09,0,.08.08,0,0,0,.05,0,.45.45,0,0,0,0-.14V36a.29.29,0,0,0,0-.17s-.06,0-.12,0h-.05v0h1.11V36h0a.37.37,0,0,0,0-.16.12.12,0,0,0-.08-.06.3.3,0,0,0-.15,0Z"/><path class="cls-1" d="M16.79,36.37h.67V36c0-.08,0-.13,0-.15a.1.1,0,0,0-.05,0,.17.17,0,0,0-.1,0h-.05v0h.62v0h-.05l-.1,0s0,0,0,.06a.37.37,0,0,0,0,.14v.93a.37.37,0,0,0,0,.14.07.07,0,0,0,0,0,.16.16,0,0,0,.1,0h.05v0h-.62v0h.05c.06,0,.11,0,.13-.05a.28.28,0,0,0,0-.16v-.44h-.67v.44a.45.45,0,0,0,0,.14.08.08,0,0,0,.05,0,.15.15,0,0,0,.09,0H17v0h-.62v0h.05a.14.14,0,0,0,.13-.05s0-.08,0-.16V36a.5.5,0,0,0,0-.15.08.08,0,0,0,0,0,.19.19,0,0,0-.1,0h-.05v0H17v0h-.06l-.09,0s0,0-.05.06a.45.45,0,0,0,0,.14Z"/><path class="cls-1" d="M18.83,35.67a.67.67,0,0,1,.49.21.72.72,0,0,1,.21.53.77.77,0,0,1-.21.55.7.7,0,0,1-.5.22.63.63,0,0,1-.5-.22.73.73,0,0,1-.21-.54.71.71,0,0,1,.24-.56A.65.65,0,0,1,18.83,35.67Zm0,.08a.37.37,0,0,0-.31.14.85.85,0,0,0-.14.52.88.88,0,0,0,.15.55.39.39,0,0,0,.3.14.41.41,0,0,0,.34-.16.75.75,0,0,0,.13-.5.93.93,0,0,0-.14-.55A.39.39,0,0,0,18.81,35.75Z"/><path class="cls-1" d="M21,35.7,21,36h0a.86.86,0,0,0,0-.13.2.2,0,0,0-.09-.09.32.32,0,0,0-.14,0H20.5v1.1a.29.29,0,0,0,0,.17.17.17,0,0,0,.13,0h.05v0h-.62v0h.05c.07,0,.11,0,.13-.05a.28.28,0,0,0,0-.16v-1.1h-.18l-.14,0a.16.16,0,0,0-.09.07.25.25,0,0,0-.05.16h0l0-.34Z"/><path class="cls-1" d="M21.64,35.78v.57H22c.08,0,.14,0,.16,0a.21.21,0,0,0,.06-.17h0v.5h0a.7.7,0,0,0,0-.13.13.13,0,0,0-.07-.06.24.24,0,0,0-.13,0h-.32v.47c0,.07,0,.11,0,.12l0,0h.5a.26.26,0,0,0,.11-.07.69.69,0,0,0,.13-.2h0l-.13.36H21.23v0h.05a.16.16,0,0,0,.1,0,.07.07,0,0,0,0,0,.37.37,0,0,0,0-.14V36a.29.29,0,0,0,0-.17.17.17,0,0,0-.13,0h-.05v0h1.11l0,.32h0a.6.6,0,0,0-.05-.16.16.16,0,0,0-.08-.06.3.3,0,0,0-.15,0Z"/><path class="cls-1" d="M23.89,36.74h0l-.12.39H22.68v0h.06a.15.15,0,0,0,.13-.06.4.4,0,0,0,0-.15V36a.29.29,0,0,0,0-.17.17.17,0,0,0-.12,0h-.06v0h.66v0l-.17,0s-.05,0-.06.06a.42.42,0,0,0,0,.16v.91a.29.29,0,0,0,0,.12l0,0h.27l.24,0,.12-.09A1.11,1.11,0,0,0,23.89,36.74Z"/><text class="cls-2" transform="translate(13.74 16.35)">&apos;</text><path class="cls-1" d="M13,39.47a1.5,1.5,0,0,1,.38.38.75.75,0,0,1-.13.94.9.9,0,0,1-.65.22.85.85,0,0,1-.6-.19.63.63,0,0,1-.09-.84,1.05,1.05,0,0,1,.41-.29,1.63,1.63,0,0,1-.4-.39.68.68,0,0,1-.09-.35.61.61,0,0,1,.22-.46.87.87,0,0,1,.62-.2.85.85,0,0,1,.58.17.56.56,0,0,1,.09.76A.94.94,0,0,1,13,39.47Zm-.54.31a.58.58,0,0,0-.08.1.66.66,0,0,0-.07.2,1.24,1.24,0,0,0,0,.27,1,1,0,0,0,0,.31.35.35,0,0,0,.14.17.27.27,0,0,0,.17.06.3.3,0,0,0,.24-.11.37.37,0,0,0,.1-.28A.93.93,0,0,0,12.47,39.78Zm.39-.41a.53.53,0,0,0,.11-.21,1.12,1.12,0,0,0,0-.27.56.56,0,0,0-.11-.38.25.25,0,0,0-.22-.1.29.29,0,0,0-.22.09.32.32,0,0,0-.09.23.54.54,0,0,0,.1.3A1.47,1.47,0,0,0,12.86,39.37Z"/><path class="cls-1" d="M15.23,39.47a1.57,1.57,0,0,1,.39.38.77.77,0,0,1,.1.4.68.68,0,0,1-.24.54.9.9,0,0,1-.65.22.85.85,0,0,1-.6-.19.63.63,0,0,1-.09-.84,1.05,1.05,0,0,1,.41-.29,1.63,1.63,0,0,1-.4-.39.68.68,0,0,1-.09-.35.59.59,0,0,1,.23-.46,1.05,1.05,0,0,1,1.19,0,.56.56,0,0,1,.09.76A.86.86,0,0,1,15.23,39.47Zm-.53.31-.09.1a1.11,1.11,0,0,0-.07.2,1.24,1.24,0,0,0,0,.27,1,1,0,0,0,.05.31.29.29,0,0,0,.13.17.32.32,0,0,0,.18.06.34.34,0,0,0,.24-.11.41.41,0,0,0,.09-.28A.94.94,0,0,0,14.7,39.78Zm.38-.41a.53.53,0,0,0,.11-.21,1.1,1.1,0,0,0,0-.27.61.61,0,0,0-.11-.38.28.28,0,0,0-.23-.1.31.31,0,0,0-.22.09.32.32,0,0,0-.09.23.54.54,0,0,0,.1.3A1.47,1.47,0,0,0,15.08,39.37Z"/></g></g></svg>