<svg xmlns="http://www.w3.org/2000/svg" viewBox="0 0 38.84 38.27"><defs><style>.cls-1{fill:#010101;}</style></defs><g id="Layer_2" data-name="Layer 2"><g id="Layer_1-2" data-name="Layer 1"><path class="cls-1" d="M16,16.82a.4.4,0,0,0-.16-.55,42.84,42.84,0,0,1-4.93-3.14,9.77,9.77,0,0,1-2-2A6,6,0,0,1,7.74,8.64a2.11,2.11,0,0,1,1-2.19,6.22,6.22,0,0,1,2.65-.84,21.31,21.31,0,0,1,5.79.3A49.87,49.87,0,0,1,28.35,9.39,48.81,48.81,0,0,1,38.5,15.25a.21.21,0,0,0,.29,0,.2.2,0,0,0,0-.28h0A50.13,50.13,0,0,0,28.46,8.56a55.12,55.12,0,0,0-11.41-4A21.81,21.81,0,0,0,11,4,10.33,10.33,0,0,0,5.35,5.92a12.62,12.62,0,0,0-3.38,5c-.07.18-.13.37-.21.56-.28.67-.52,1.32-.73,1.93L.82,14C.33,15.53.08,16.63.08,16.63L0,16.92c5.19.09,10.46.14,15.66.11a.4.4,0,0,0,.36-.21"/><path class="cls-1" d="M32.65,2.76c1.37,0,1.85.36,2,2.52a.13.13,0,0,0,.14.13.15.15,0,0,0,.14-.13c.13-2.14.64-2.52,2-2.52a.14.14,0,0,0,.14-.14.14.14,0,0,0-.14-.14c-1.16,0-1.86-.39-2-2.35A.14.14,0,0,0,34.79,0a.13.13,0,0,0-.14.13c-.15,2-.84,2.35-2,2.35a.14.14,0,0,0-.14.14.14.14,0,0,0,.14.14"/><path class="cls-1" d="M33.79,23h1.62l.47,1a.46.46,0,0,0,.41.26h.3l-1.7-3.49-.06-.12-1.75,3.58,0,0h.8v-.12h0a.41.41,0,0,1-.35-.4.5.5,0,0,1,0-.21Zm-.58,1.14Zm1.39-2.8.75,1.55h-1.5Z"/><path class="cls-1" d="M4.78,22.59a1.11,1.11,0,0,0-.34-.18l-.25-.06a.81.81,0,0,0,.22-.07,1,1,0,0,0,.28-.17.69.69,0,0,0,.2-.25A.65.65,0,0,0,5,21.55a1,1,0,0,0,0-.27A.73.73,0,0,0,4.73,21a1.06,1.06,0,0,0-.38-.22,2,2,0,0,0-.74-.09H2.25v.12h.14a.41.41,0,0,1,.41.41v3.05h.13a.42.42,0,0,0,.34-.17,1.33,1.33,0,0,0,.24.1l.23.05.2,0a1.31,1.31,0,0,0,.41-.06A1.23,1.23,0,0,0,4.78,24,.81.81,0,0,0,5,23.68a1,1,0,0,0,.09-.42.71.71,0,0,0-.1-.39,1,1,0,0,0-.25-.28M3.35,22.3V20.82h.13a1.64,1.64,0,0,1,.44,0,.44.44,0,0,1,.22.1.48.48,0,0,1,.17.22,1.16,1.16,0,0,1,.07.41,1.27,1.27,0,0,1,0,.37.62.62,0,0,1-.12.23.4.4,0,0,1-.19.11.88.88,0,0,1-.24,0Zm1,.34a1,1,0,0,1,.16.61,2.05,2.05,0,0,1,0,.47.69.69,0,0,1-.16.28.4.4,0,0,1-.26.15.27.27,0,0,1-.16,0l-.07,0h0A.61.61,0,0,1,3.54,24a.84.84,0,0,1-.15-.3,1.27,1.27,0,0,1,0-.29v-1h.52a.55.55,0,0,1,.48.22"/><path class="cls-1" d="M9.53,22.59a1.11,1.11,0,0,0-.34-.18l-.25-.06a.81.81,0,0,0,.22-.07,1,1,0,0,0,.28-.17.69.69,0,0,0,.2-.25.65.65,0,0,0,.08-.31,1,1,0,0,0-.05-.27A.73.73,0,0,0,9.48,21a1.15,1.15,0,0,0-.38-.22,2,2,0,0,0-.75-.09H7v.12h.14a.41.41,0,0,1,.41.41v3.05h.13A.39.39,0,0,0,8,24.11l.24.1.24.05.2,0h.05a1.09,1.09,0,0,0,.36-.06A1.23,1.23,0,0,0,9.53,24a.81.81,0,0,0,.26-.33,1,1,0,0,0,.09-.42.71.71,0,0,0-.1-.39,1,1,0,0,0-.25-.28M8.1,22.43h.52a.55.55,0,0,1,.48.22,1,1,0,0,1,.16.61,2.05,2.05,0,0,1,0,.47.69.69,0,0,1-.16.28.4.4,0,0,1-.26.15.28.28,0,0,1-.16,0l-.07,0h0A.61.61,0,0,1,8.29,24a.7.7,0,0,1-.15-.3.88.88,0,0,1,0-.29ZM9,22.16a.4.4,0,0,1-.19.11.88.88,0,0,1-.24,0H8.1V20.82h.31l.26,0a.44.44,0,0,1,.22.1.48.48,0,0,1,.17.22,1.18,1.18,0,0,1,.06.41,1.31,1.31,0,0,1,0,.37.71.71,0,0,1-.12.23"/><path class="cls-1" d="M16.68,20.69a1.66,1.66,0,0,0-1.21.56,1.89,1.89,0,0,0,0,2.56,1.57,1.57,0,0,0,2.42,0,1.89,1.89,0,0,0,0-2.56,1.66,1.66,0,0,0-1.21-.56m1.11,1.58v.52q0,1.47-1.11,1.47t-1.11-1.47v-.52a1.57,1.57,0,0,1,.29-1.08,1.07,1.07,0,0,1,1.64,0,1.63,1.63,0,0,1,.29,1.09"/><path class="cls-1" d="M26.38,21.19v2.95h-.5v.12H29v-1.2h-.14v0c0,.94-.14,1-.86,1H26.71a.4.4,0,0,0,.21-.36V22.72h1.29V22h-.11v.14a.42.42,0,0,1-.41.41h-.76V20.81h.69c.91,0,1.07.27,1.07,1v0h.13v-1.2h-3v.12H26a.42.42,0,0,1,.35.38"/><path class="cls-1" d="M30.09,23.8a1.82,1.82,0,0,0,.54.36,1.71,1.71,0,0,0,.59.11,1.39,1.39,0,0,0,.3,0l.24-.06.19-.06.15,0,.12,0a.46.46,0,0,1,.07.07h.11V23.14h-.09v0c0,.12-.07.24-.11.36a.92.92,0,0,1-.18.32,1,1,0,0,1-.3.23,1.37,1.37,0,0,1-.95,0,.71.71,0,0,1-.34-.26,1.37,1.37,0,0,1-.22-.5,3.82,3.82,0,0,1-.08-.83c0-.11,0-.23,0-.37s0-.26.05-.38a1.89,1.89,0,0,1,.11-.36,1,1,0,0,1,.19-.3.93.93,0,0,1,.3-.2,1.08,1.08,0,0,1,.42-.08,1.17,1.17,0,0,1,.45.08,1.08,1.08,0,0,1,.29.21.87.87,0,0,1,.18.31,3.58,3.58,0,0,1,.11.35v0h.1v-1h-.11l-.08.07s0,0-.12,0a.36.36,0,0,1-.14,0l-.16-.07-.21-.06a1,1,0,0,0-.26,0,1.58,1.58,0,0,0-.69.15,1.74,1.74,0,0,0-.54.39,2,2,0,0,0-.36.58,1.72,1.72,0,0,0-.13.68,1.6,1.6,0,0,0,.16.75,2.24,2.24,0,0,0,.39.56"/><path class="cls-1" d="M23.13,22.54h1.66v1.31c0,.26.13.42.34.42h.2V20.69h-1v.12h.09a.42.42,0,0,1,.42.42v1.19H23.13V20.69H22.08v.12h.09a.42.42,0,0,1,.42.42v2.62c0,.26.13.42.34.42h.2V22.54Z"/><path class="cls-1" d="M6.45,20.69h-1v.12h.09a.41.41,0,0,1,.42.41v2.63c0,.26.13.42.34.42h.13v-.48a.06.06,0,0,1,0,0Z"/><path class="cls-1" d="M14.25,20.69h-1v.12h.09a.41.41,0,0,1,.42.41v2.63c0,.26.13.42.34.42h.13v-.48a.06.06,0,0,1,0,0Z"/><path class="cls-1" d="M13.07,23.09c0,.77-.15,1-1.06,1.05h-.88a.4.4,0,0,0,.16-.36V20.69h-1v.12h.09a.42.42,0,0,1,.42.38v2.95h-.51v.13h3v-1.2h-.14Z"/><path class="cls-1" d="M18.76,21.87h.13v0c0-.75.15-1,1.05-1h0v3.13a.34.34,0,0,0,.33.34h.2V21.12a.5.5,0,0,0-.1-.31h.13c.89,0,1,.27,1,1v0h.13V20.69H18.76Z"/><path class="cls-1" d="M37.09,26.37,37,26.24l-1.8,3.68,0,0H36v-.12h0a.41.41,0,0,1-.37-.41.42.42,0,0,1,.06-.21l.25-.52h1.67l.49,1a.47.47,0,0,0,.41.25h.31ZM36.8,27l.77,1.6H36Z"/><path class="cls-1" d="M1.88,26.37l-.06-.13L0,29.92l0,0H.82v-.12h0a.4.4,0,0,1-.36-.41.54.54,0,0,1,0-.21l.26-.52H2.42l.48,1a.48.48,0,0,0,.42.25h.31Zm.48,2.21H.8L1.58,27Z"/><path class="cls-1" d="M16.45,26.24l-1.8,3.68,0,0h.83v-.12h0a.41.41,0,0,1-.37-.41.42.42,0,0,1,.06-.21l.25-.52h1.67l.49,1A.47.47,0,0,0,18,30h.31l-1.75-3.58ZM17,28.58H15.44l.78-1.6Z"/><path class="cls-1" d="M10.32,28.72h-.13v0c0,1-.15,1.06-.89,1.08H8a.41.41,0,0,0,.23-.37V28.36H9.51v-.72H9.39v.14a.43.43,0,0,1-.43.43H8.19V26.4h.7c.95,0,1.1.29,1.1,1.08v0h.14V26.27H7.07v.12h.2a.42.42,0,0,1,.36.39v3H7.11V30h3.21Z"/><path class="cls-1" d="M25.74,27.06a1.79,1.79,0,0,0-.38-.4,2,2,0,0,0-.53-.27l-.21-.06a1.2,1.2,0,0,0-.2,0l-.22,0H22.4v.12h.14a.42.42,0,0,1,.43.42V30h1.3l.25,0,.23,0,.23-.09a1.91,1.91,0,0,0,.41-.24,1.42,1.42,0,0,0,.33-.36,1.78,1.78,0,0,0,.23-.48,2.18,2.18,0,0,0,.08-.6,2,2,0,0,0-.07-.56,1.77,1.77,0,0,0-.21-.49m-.34,1.07a3,3,0,0,1-.07.62,1.81,1.81,0,0,1-.22.55.95.95,0,0,1-.51.44,1.23,1.23,0,0,1-.32.07h-.76V26.4h.4a1.79,1.79,0,0,1,.7.12,1.25,1.25,0,0,1,.46.35,1.53,1.53,0,0,1,.24.55,3.11,3.11,0,0,1,.08.72"/><path class="cls-1" d="M31,26.27H30v.11h.09a.43.43,0,0,1,.43.43v2.71c0,.26.14.43.35.43H31V26.27Z"/><path class="cls-1" d="M3.85,29.83V30h3V28.72H6.69v0c0,.79-.16,1.06-1.1,1.08h-.9a.44.44,0,0,0,.16-.38V26.27h-1v.11h0a.43.43,0,0,1,.42.4v3Z"/><path class="cls-1" d="M35.25,26.27H34.6v2.91l-2-2.89H32.2v0l0,0h-.62v.13h.19a.47.47,0,0,1,.35.12v2.93a.4.4,0,0,1-.4.39h-.14V30h.65V26.65l0,.06.08.11L34.43,30h.29V26.78a.39.39,0,0,1,.39-.39h.14Z"/><path class="cls-1" d="M21.47,29.18l-2-2.89h-.43v0l0,0h-.62v.13h.19a.47.47,0,0,1,.35.12v2.93a.39.39,0,0,1-.4.39h-.14V30h.65V26.65l0,.06.08.11L21.3,30h.29V26.78a.39.39,0,0,1,.38-.39h.15v-.12h-.65Z"/><path class="cls-1" d="M29.2,29.47v0l-.08-.27c0-.05,0-.1,0-.16a2,2,0,0,0-.35-.8.67.67,0,0,0-.29-.22l.17-.06a1.49,1.49,0,0,0,.3-.18.75.75,0,0,0,.21-.26.73.73,0,0,0,.08-.33.79.79,0,0,0-.06-.28.7.7,0,0,0-.19-.3,1.16,1.16,0,0,0-.4-.22,1.8,1.8,0,0,0-.63-.1H26.35v.12h.14a.44.44,0,0,1,.44.43v2.58a.13.13,0,0,1,0,.06V30h.14a.43.43,0,0,0,.43-.43V28.08h.08l.34.05a1,1,0,0,1,.29.25,2.57,2.57,0,0,1,.24.69l0,.09,0,.15,0,.08a.75.75,0,0,0,.73.55h.49v-.12h-.1a.49.49,0,0,1-.46-.35m-.68-1.9a.54.54,0,0,1-.12.24.67.67,0,0,1-.2.12,1,1,0,0,1-.26,0h-.45V26.41l.14,0h.19a1.24,1.24,0,0,1,.27,0,.51.51,0,0,1,.24.1.55.55,0,0,1,.17.24,1,1,0,0,1,.07.42,1.37,1.37,0,0,1-.05.39"/><path class="cls-1" d="M11.66,30v-.12h0a.42.42,0,0,1-.4-.18c0-.11,0-.25.16-.4l1.07-1.06,1,1.52a.45.45,0,0,0,.41.26h.58v-.12h0a.67.67,0,0,1-.5-.31l-1.16-1.68,1.14-1.14.4-.4,0,0h-1.1v.12h0a.41.41,0,0,1,.39.18c0,.11,0,.24-.16.39l-.8.8-.66-1-.33-.52h-.85v.12h0a.68.68,0,0,1,.57.33l.26.37.66,1-.56.57h0L10.59,29.9l0,0h1.11Z"/><path class="cls-1" d="M31.32,33.91a.25.25,0,0,0,.25.24.25.25,0,1,0,0-.49.25.25,0,0,0-.25.25"/><path class="cls-1" d="M30.91,34.15a.25.25,0,0,0,0-.49.25.25,0,1,0,0,.49"/><path class="cls-1" d="M29.71,37.45a.25.25,0,1,0,0,.5.25.25,0,0,0,0-.5"/><path class="cls-1" d="M26.93,33.91a.25.25,0,0,0,.49,0,.25.25,0,1,0-.49,0"/><path class="cls-1" d="M27.59,33.91a.25.25,0,1,0,.25-.25.25.25,0,0,0-.25.25"/><path class="cls-1" d="M23.33,32.86h-.7V33h0a.27.27,0,0,1,.27.27V36.7c0,.21.11.34.28.34h.12V32.86Z"/><path class="cls-1" d="M22.28,32.86h-.7V33h0a.28.28,0,0,1,.27.27v2.32h0v1.37h0c-.39,0-.86-.2-.86-1.13V33.64h-.7v.11h0a.28.28,0,0,1,.28.27v1.77a1.16,1.16,0,0,0,.66,1.14H19.68V37h2.6V32.86Z"/><path class="cls-1" d="M18.43,34.68h0a.27.27,0,0,1,.27.26v2h-.62c-.36,0-.81-.17-.85-1V34.72h-.7v.1h0a.28.28,0,0,1,.28.26v.86h0v1h-.62c-.37,0-.81-.17-.85-1V34.72h-.71v.1h0a.27.27,0,0,1,.27.26v1.85h-.61c-.33,0-.74-.14-.84-.81v-.31a1.17,1.17,0,0,0-.82-1.19,1.27,1.27,0,0,0-.34,0h0a.75.75,0,0,0-.29.06l1.73-1.72.05-.05H13V33h0a.25.25,0,0,1,.23.1q0,.1-.12.27L11.42,35l0,0,.08.06,0,0,.09-.09a1,1,0,0,1,1-.31c.35.14.52.47.52,1.05v1.12H11.41c-.37,0-.81-.17-.85-1V34.58H9.85v.1h0a.27.27,0,0,1,.27.27v2H8.69V35.81A1.36,1.36,0,0,0,8.44,35a1.1,1.1,0,0,0-.94-.44H7.13a1.33,1.33,0,0,0-.67.17.08.08,0,0,0,0,.08l.06.1a.05.05,0,0,0,0,0l0,0a.76.76,0,0,1,.61-.25h.06c.88,0,1,.64,1,1.12v1.12h-2V37h4.3v-.25a1.24,1.24,0,0,0,.68.25h2.29v-.25a1.23,1.23,0,0,0,.77.25h1.09v-.26a1.18,1.18,0,0,0,.78.26h1.09v-.26A1.18,1.18,0,0,0,18,37h1.09V34.57h-.7Z"/><path class="cls-1" d="M3.53,37.5a.25.25,0,1,0,0,.49.25.25,0,0,0,0-.49"/><path class="cls-1" d="M4.19,37.5a.25.25,0,1,0,.25.25.25.25,0,0,0-.25-.25"/><path class="cls-1" d="M1.65,34.16a.25.25,0,1,0,0-.49.25.25,0,0,0,0,.49"/><path class="cls-1" d="M2.07,33.91a.25.25,0,1,0,.49,0,.25.25,0,0,0-.49,0"/><path class="cls-1" d="M10,33.91a.25.25,0,1,0,.49,0,.25.25,0,0,0-.49,0"/><path class="cls-1" d="M5.36,34.57H5.07v.11h0a.27.27,0,0,1,.27.27V37.2a.59.59,0,0,1-.65.58h0v.12h0a1,1,0,0,0,1.07-1.06V34.57Z"/><path class="cls-1" d="M37.4,34.57H36v.11H36a.24.24,0,0,1,.24.24v2h-.62c-.36,0-.81-.17-.85-1v-.13a1.16,1.16,0,0,0-1.14-1.24H33.6a.94.94,0,0,0-.29.06L35,32.91l0,0h-.83V33h0c.12,0,.21,0,.23.1s0,.16-.11.27L32.7,35l0,0,.11.09.06-.06c.09-.09.54-.51,1-.34s.52.47.52,1.05v1.12h-1.7c-.35,0-.78-.16-.84-.92V34.57h-.71v.11h0a.27.27,0,0,1,.27.27v2h-.61c-.37,0-.81-.17-.86-1V34.57h-.7v.11h0a.27.27,0,0,1,.27.27v1h0v1h-.62c-.36,0-.8-.17-.85-1v-1a.27.27,0,0,1,.27-.26h0v-.11H27a1.16,1.16,0,0,0-1.2,1.23A1.14,1.14,0,0,0,27,37h.17a1.27,1.27,0,0,0,.6-.14l0,0-.15-.14h0a.76.76,0,0,1-.53.18c-.39,0-.85-.2-.85-1.13,0-.76.31-1.12,1-1.12h.49v1.26A1.12,1.12,0,0,0,28.87,37H30v-.26a1.23,1.23,0,0,0,.79.26h1.09v-.25a1.18,1.18,0,0,0,.78.25h2.2v-.26a1.19,1.19,0,0,0,.79.26h1.81a1.13,1.13,0,0,0,1.19-1.23,1.39,1.39,0,0,0-.25-.79,1.12,1.12,0,0,0-1-.45m-.1,2.36h-.62V34.68h.49c.88,0,1,.64,1,1.13,0,.92-.46,1.12-.85,1.12"/><path class="cls-1" d="M4,34.58h-.3v.1h0a.27.27,0,0,1,.27.24v2H3.41c-.36,0-.8-.17-.85-1V35a.28.28,0,0,1,.28-.27h0v-.11H1.44a1.16,1.16,0,0,0-1.2,1.24A1.13,1.13,0,0,0,1.43,37H1.6a1.33,1.33,0,0,0,.6-.14h0l-.15-.15h0a.75.75,0,0,1-.52.18c-.39,0-.85-.2-.85-1.12,0-.49.1-1.13,1-1.13h.49V36A1.12,1.12,0,0,0,3.35,37H4.44V35.88h0V34.58H4Z"/><path class="cls-1" d="M20.88,38.12V38c0-.21,0-.28.13-.28h0a.23.23,0,0,1,.16.08l.06,0a.09.09,0,0,0,.05,0l0,0a.08.08,0,0,0,0-.09.7.7,0,0,0-.31-.07h0c-.17,0-.37.12-.37.5v.06h-.24v.14h1v-.14Z"/></g></g></svg>