<svg xmlns="http://www.w3.org/2000/svg" viewBox="0 0 235.61 191.91"><g id="Layer_2" data-name="Layer 2"><g id="Layer_1-2" data-name="Layer 1"><path d="M102.45,21.79l3.68-3H95.27L85,37.55,93.6,53.31l-3.68,3h10.87L111,37.55ZM98,23.87l5.32,9.77.2.39-5.94-1.52L93.34,42.63l-.64-1.17-2.12-3.91Zm0,27.36-2.34-4.31,4.69-11.08,3.41-1.43,1.7,3.14Z"/><path d="M124.46,3l3.68-3H117.28L107,18.78l8.57,15.75-3.68,3H122.8L133,18.78Zm-4.4,2.07,5.31,9.78.2.38-5.94-1.51-4.28,10.12-.64-1.18-2.12-3.9Zm0,27.37-2.34-4.31,4.69-11.09,3.41-1.43,1.7,3.15Z"/><path d="M120,42.93l3.68-3H112.82L102.57,58.69l8.58,15.75-3.68,3h10.87l10.24-18.77ZM115.59,45l5.32,9.78.2.38-6-1.51-4.27,10.12-.64-1.18-2.12-3.9Zm0,27.37-2.34-4.31L117.91,57l3.41-1.42,1.7,3.14Z"/><path d="M142,24.15l3.68-3H134.83L124.59,39.91l8.57,15.76-3.68,3h10.87l10.24-18.78Zm-4.41,2.08L142.92,36l.2.38-5.94-1.52L132.9,45l-.64-1.17-2.12-3.91Zm0,27.37-2.34-4.31,4.69-11.09,3.41-1.43,1.7,3.14Z"/><path d="M40.14,153.36H26.27L5.15,117.66v35.7H0V97.82H7.31l21.11,35.7V97.82h20.8l-9.08,9.56Z"/><path d="M88.92,141.8,76.73,112.88,59.6,153.36H46.85l23.5-55.54h25l-8.45,8.92,19.68,46.62H93.78L88.92,141.8Z"/><path d="M134.41,131.05c7.33-1,14-4.23,14.18-15.62v-2.15C148,98.54,136.4,97.82,127.08,97.82h-15.9v55.54h5.06V109.53h10.84c3.66.08,9.8.8,9.8,4.78V115c0,4.86-8.53,4.78-12.43,4.78l-4.23,12.19,16.9,21.44H152Z"/><path d="M179.53,97.82l-9.08,9.56v46H158.73V97.82Z"/><path d="M235,119.85a27.79,27.79,0,1,1-22-21.57A27.79,27.79,0,0,1,235,119.85Zm-43.24,5.78a16.06,16.06,0,1,0,16.09-16A16,16,0,0,0,191.79,125.63Z"/><path d="M39.45,191.69a13.28,13.28,0,0,1-2.46.18c-6.18,0-7.73-3.7-7.73-5.36,0-3,2.74-6.77,9.14-7.91l.27,1.52c-4.15.47-7.58,3-7.58,6.08,0,2.21,1.74,4.29,6.08,4.29a9.3,9.3,0,0,0,2.1-.25Z"/><path d="M46.29,185.89a7,7,0,0,1,7.21-7.29c3.43,0,6,2.27,6,6.18a6.88,6.88,0,0,1-7,7.09A5.84,5.84,0,0,1,46.29,185.89Zm11.47-1c0-3.24-2.14-4.93-4.51-4.93-3.25,0-5.22,2.58-5.22,5.68a4.6,4.6,0,0,0,4.62,4.91C55.37,190.53,57.76,188.45,57.76,184.87Z"/><path d="M68.42,191.58c.15-1,.15-4.84.15-5.27v-2.42c0-.29,0-4.65-.08-5,.46,0,5-.2,5.73-.27l.07,1.39-4.09.09v4.63c.33,0,2.9-.11,3.75-.17L74,186l-3.81-.07v1.72c0,.29,0,3.72,0,4Z"/><path d="M83.56,191.58c.15-1,.15-4.84.15-5.27v-2.42c0-.29,0-4.65-.07-5,.45,0,5-.2,5.73-.27l.07,1.39-4.1.09v4.63c.33,0,2.9-.11,3.75-.17l.06,1.4-3.81-.07v1.72c0,.29,0,3.72.06,4Z"/><path d="M104.91,191.76c-.29,0-5.75-.18-6.11-.18,0-1,0-4.84,0-5.26v-2.43c0-.29,0-4.65,0-5,.43,0,5.16-.27,5.75-.34l.07,1.43c-.58,0-3.85.09-4.14.09v4.6c.33,0,2.65-.09,3.54-.2l0,1.44-3.59-.08v4.43c.44,0,2.87.05,4.35-.06Z"/><path d="M120.73,191.76c-.29,0-5.74-.18-6.11-.18.06-1,.06-4.84.06-5.26v-2.43c0-.29,0-4.65-.06-5,.44,0,5.17-.27,5.75-.34l.07,1.43c-.58,0-3.84.09-4.13.09v4.6c.33,0,2.65-.09,3.54-.2l.05,1.44-3.59-.08v4.43c.44,0,2.86.05,4.35-.06Z"/><path d="M140.83,190.55c1.78-.36,4-1.27,4-2.74,0-.91-.59-1.38-1.89-2.08-1.54-.84-2.61-1.6-2.61-2.89,0-1.92,2.68-3.71,5.17-4.28l.38,1.4c-1.11.18-3.79,1-3.79,2.57,0,.95,1.28,1.53,2.05,2,1.37.82,2.48,1.4,2.48,2.86,0,1.78-1.89,3.72-5.37,4.54Z"/><path d="M156.3,191.58c0-.8,0-5,0-5.51v-2c0-.31,0-4.79-.09-5.22h1.82c0,.33-.09,4-.09,4.35v1.41l8.08-.34v-1.45c0-.31,0-3.57-.07-4h1.85c-.06.43-.15,5.33-.15,5.76v1.82c0,.23,0,4.77.08,5.11H166c.06-.61.11-3.84.11-4.19v-1.88l-8.08.34V187c0,.82,0,4.15.07,4.57Z"/><path d="M176.75,185.89A7,7,0,0,1,184,178.6c3.43,0,6,2.27,6,6.18a6.88,6.88,0,0,1-7,7.09A5.84,5.84,0,0,1,176.75,185.89Zm11.47-1c0-3.24-2.14-4.93-4.51-4.93-3.25,0-5.22,2.58-5.22,5.68a4.6,4.6,0,0,0,4.62,4.91C185.83,190.53,188.22,188.45,188.22,184.87Z"/><path d="M199,191.58c0-.78.09-5.15.09-6.43v-2c0-.42,0-4,0-4.26a23.68,23.68,0,0,1,3.41.24c2.43.39,3.95,1.55,3.95,3.48,0,2.48-2.28,4.49-5.73,5.18v1.07c0,.36,0,2.34,0,2.72Zm1.67-5.06c2.29-.49,4-1.65,4-3.64,0-.55-.31-2.59-4-2.65Z"/></g></g></svg>