<svg xmlns="http://www.w3.org/2000/svg" viewBox="0 0 151.18 153.68"><g id="Layer_2" data-name="Layer 2"><g id="Layer_1-2" data-name="Layer 1"><path d="M94.2,133.76,96.66,128h0l2.49,5.72Zm12.58,5.37h0l-9.36-21.31a.66.66,0,0,0-.56-.38h-.33a.66.66,0,0,0-.56.38l-9.35,21.3h0l-1.29,3h4.55a1.23,1.23,0,0,0,1.18-.83l1.18-2.78h8.91l1.18,2.75c.3.65.56.86,1.15.86h4.59Z"/><path d="M14.19,117.8H0v24.29H14.19a.65.65,0,0,0,.63-.66v-3.78a.65.65,0,0,0-.63-.66H5.11v-4.68h7.48a.65.65,0,0,0,.62-.66v-3.79a.67.67,0,0,0-.62-.66H5.11v-4.3h9.08a.65.65,0,0,0,.63-.66v-3.78a.65.65,0,0,0-.63-.66"/><path d="M32.15,137h-7.8V118.46a.66.66,0,0,0-.62-.66H19.21v24.29H32.15a.64.64,0,0,0,.62-.66v-3.78a.64.64,0,0,0-.62-.66"/><path d="M51.63,122.69a6.51,6.51,0,0,1,4.43,1.77.54.54,0,0,0,.82,0l2.56-2.81a.67.67,0,0,0,0-1,10.68,10.68,0,0,0-7.93-3.23c-6.55,0-11.83,5.59-11.83,12.53s5.28,12.46,11.83,12.46a10.94,10.94,0,0,0,8-3.37.71.71,0,0,0,0-.93l-2.56-2.89a.62.62,0,0,0-.85,0,6.68,6.68,0,0,1-4.39,1.67c-3.71,0-6.46-3.2-6.46-7s2.72-7.15,6.42-7.15"/><path d="M120.36,128.18h-4.85v-5.42h4.85a2.59,2.59,0,0,1,2.49,2.64,2.72,2.72,0,0,1-2.49,2.78m7.57-2.89a7.34,7.34,0,0,0-7.15-7.49H110.36v24.29h5.14v-.61s0,0,0,0v-8.85h2.26l4.36,9.2a.58.58,0,0,0,.52.31H127a.65.65,0,0,0,.56-1l-4.49-8.82a7.58,7.58,0,0,0,4.85-7"/><path d="M151,140.77l-8.36-11.52,7.67-10.17a.8.8,0,0,0-.59-1.28h-4.13a1,1,0,0,0-.62.34l-7.28,9.62v-10h-5.4v24.29h5.4V130.92l7.58,10.9a.88.88,0,0,0,.59.24h4.52a.82.82,0,0,0,.62-1.29"/><path d="M81.79,117.8H78.51a.64.64,0,0,0-.62.66v8.74H68.51v-8.74a.64.64,0,0,0-.62-.66H63.36v24.29h4.53a.64.64,0,0,0,.62-.66v-9.12h9.38v9.12a.64.64,0,0,0,.62.66H83V117.8H81.79Z"/><path d="M32,100.77a.44.44,0,0,1,.41-.45h.38a.36.36,0,0,1,.35.35l.16,1.46A5.43,5.43,0,0,1,37.71,100a4.35,4.35,0,0,1,4.15,2.49A6.33,6.33,0,0,1,46.62,100c3.46,0,5,2.42,5,6.24v7.3a.44.44,0,0,1-.41.44h-.63c-.19,0-.35-.17-.35-.44v-7.3c0-3.13-1.27-4.77-3.65-4.77a5.35,5.35,0,0,0-4.19,2.32,9.54,9.54,0,0,1,.28,2.45v7.3a.44.44,0,0,1-.41.44h-.6a.39.39,0,0,1-.38-.44v-7.3c0-3.13-1.3-4.77-3.68-4.77a5.09,5.09,0,0,0-4.13,2.35v9.72c0,.27-.12.44-.41.44h-.63c-.23,0-.35-.21-.35-.44Z"/><path d="M65.91,106.32c0-2.65-1.49-5-4.34-5s-4.67,2.18-4.83,5ZM61.57,100c3.33,0,5.74,2.63,5.74,6.24,0,.55,0,1.33-.48,1.33H56.71c.13,2.93,2.09,5.39,4.95,5.39a6.49,6.49,0,0,0,3.74-1.26c.29-.21.42-.24.57,0l.32.47c.1.14.07.34-.12.55a7.38,7.38,0,0,1-4.6,1.6c-3.88,0-6.26-3.2-6.26-7.19S57.69,100,61.57,100"/><path d="M70.86,100.77a.44.44,0,0,1,.41-.45h.58a.44.44,0,0,1,.41.45v7.33c0,3.17,1.36,4.77,3.77,4.77a5.22,5.22,0,0,0,4.19-2.39v-9.71a.41.41,0,0,1,.41-.45h.57a.44.44,0,0,1,.42.45v12.75a.44.44,0,0,1-.42.44h-.38c-.25,0-.35-.21-.38-.41l-.12-1.33a5.65,5.65,0,0,1-4.38,2.08c-3.56,0-5.08-2.35-5.08-6.2Z"/><path d="M92,112.94c2.67,0,4.6-2.63,4.6-5.8s-2.09-5.69-5-5.69a5.74,5.74,0,0,0-3.75,1.43v7.64A5,5,0,0,0,92,112.94M86.44,94.31a.43.43,0,0,1,.41-.44h.54a.43.43,0,0,1,.41.44v7A6.31,6.31,0,0,1,91.74,100c3.58,0,6.21,3.11,6.21,7.13s-2.56,7.19-5.83,7.19a5.91,5.91,0,0,1-4.41-2l-.1,1.23c0,.3-.19.44-.44.44h-.32a.44.44,0,0,1-.41-.44Z"/><path d="M101.86,94.31a.43.43,0,0,1,.41-.44h.57a.43.43,0,0,1,.41.44v19.21c0,.27-.12.44-.41.44h-.63c-.23,0-.35-.21-.35-.44Z"/><path d="M117.75,106.32c0-2.65-1.49-5-4.34-5s-4.67,2.18-4.83,5ZM113.41,100c3.33,0,5.74,2.63,5.74,6.24,0,.55,0,1.33-.48,1.33H108.55c.13,2.93,2.1,5.39,5,5.39a6.49,6.49,0,0,0,3.74-1.26c.29-.21.42-.24.58,0l.31.47c.1.14.07.34-.12.55a7.38,7.38,0,0,1-4.6,1.6c-3.87,0-6.26-3.2-6.26-7.19s2.39-7.13,6.26-7.13"/><path d="M1.87,147.45H.22a.19.19,0,0,1-.19-.2v-.56a.2.2,0,0,1,.19-.2H4.57a.2.2,0,0,1,.19.2v.56a.19.19,0,0,1-.19.2H2.92v5.94a.2.2,0,0,1-.19.19H2.06a.2.2,0,0,1-.19-.19Z"/><path d="M9.1,146.69a.21.21,0,0,1,.19-.2H10a.2.2,0,0,1,.19.2v2.82h3.7v-2.82a.2.2,0,0,1,.2-.2h.66a.22.22,0,0,1,.2.2v6.7a.21.21,0,0,1-.2.19h-.66a.19.19,0,0,1-.2-.19v-2.93h-3.7v2.93a.19.19,0,0,1-.19.19H9.29a.2.2,0,0,1-.19-.19Z"/><path d="M20.11,146.69a.2.2,0,0,1,.19-.2h4.05a.2.2,0,0,1,.19.2v.56a.2.2,0,0,1-.19.2h-3.2v2.06h2.7a.2.2,0,0,1,.19.19v.57a.19.19,0,0,1-.19.19h-2.7v2.18h3.2a.19.19,0,0,1,.19.19v.56a.19.19,0,0,1-.19.19H20.3a.19.19,0,0,1-.19-.19Z"/><path d="M37.91,146.39a3.52,3.52,0,0,1,2.45,1,.19.19,0,0,1,0,.28l-.45.45c-.07.1-.16.1-.25,0a2.78,2.78,0,0,0-1.75-.67,2.63,2.63,0,0,0,0,5.25,2.76,2.76,0,0,0,1.74-.67.18.18,0,0,1,.24,0l.47.45a.2.2,0,0,1,0,.28,3.51,3.51,0,0,1-2.46,1,3.65,3.65,0,1,1,0-7.29"/><path d="M45.05,146.69a.21.21,0,0,1,.19-.2h.67a.2.2,0,0,1,.19.2v2.82h3.71v-2.82a.2.2,0,0,1,.19-.2h.67a.21.21,0,0,1,.19.2v6.7a.2.2,0,0,1-.19.19H50a.19.19,0,0,1-.19-.19v-2.93H46.1v2.93a.19.19,0,0,1-.19.19h-.67a.2.2,0,0,1-.19-.19Z"/><path d="M59.7,151.17l-1.25-2.77H58.4l-1.23,2.77Zm-4.59,2.14,3.11-6.8a.22.22,0,0,1,.17-.12h.1a.22.22,0,0,1,.17.12l3.09,6.8a.18.18,0,0,1-.17.27h-.64a.23.23,0,0,1-.23-.15L60.08,152H56.77c-.2.46-.41.92-.62,1.39a.25.25,0,0,1-.23.15h-.64a.18.18,0,0,1-.17-.27"/><rect x="66" y="146.49" width="1.05" height="7.08" rx="0.19"/><path d="M74.91,149.94a1.26,1.26,0,0,0,1.24-1.26,1.24,1.24,0,0,0-1.24-1.2h-1.8v2.46Zm-2.86-3.25a.2.2,0,0,1,.19-.2H75a2.19,2.19,0,0,1,2.21,2.17,2.24,2.24,0,0,1-1.5,2.05l1.39,2.57a.19.19,0,0,1-.17.3h-.79a.18.18,0,0,1-.16-.09l-1.35-2.68H73.09v2.58a.2.2,0,0,1-.19.19h-.66a.19.19,0,0,1-.19-.19Z"/><path d="M87.48,146.69a.2.2,0,0,1,.2-.2h4a.2.2,0,0,1,.19.2v.56a.2.2,0,0,1-.19.2h-3.2v2.33h2.71a.2.2,0,0,1,.19.2v.55a.2.2,0,0,1-.19.19H88.52v2.67a.2.2,0,0,1-.19.19h-.65a.19.19,0,0,1-.2-.19Z"/><path d="M99.88,151.17l-1.25-2.77h0l-1.23,2.77Zm-4.59,2.14,3.11-6.8a.22.22,0,0,1,.17-.12h.1a.22.22,0,0,1,.18.12l3.08,6.8a.18.18,0,0,1-.17.27h-.64a.23.23,0,0,1-.23-.15l-.63-1.39H97c-.2.46-.41.92-.61,1.39a.25.25,0,0,1-.23.15h-.64a.19.19,0,0,1-.18-.27"/><path d="M109.32,146.39a3.52,3.52,0,0,1,2.45,1,.19.19,0,0,1,0,.28l-.45.45c-.07.1-.16.1-.25,0a2.74,2.74,0,0,0-1.75-.67,2.63,2.63,0,0,0,0,5.25,2.72,2.72,0,0,0,1.74-.67.18.18,0,0,1,.24,0l.47.45a.2.2,0,0,1,0,.28,3.51,3.51,0,0,1-2.46,1,3.65,3.65,0,1,1,0-7.29"/><path d="M117.64,147.45H116a.19.19,0,0,1-.19-.2v-.56a.2.2,0,0,1,.19-.2h4.35a.2.2,0,0,1,.19.2v.56a.19.19,0,0,1-.19.2h-1.65v5.94a.2.2,0,0,1-.19.19h-.67a.2.2,0,0,1-.19-.19Z"/><path d="M128,152.67a2.63,2.63,0,1,0-2.62-2.62,2.63,2.63,0,0,0,2.62,2.62m0-6.28a3.65,3.65,0,1,1-3.63,3.66,3.64,3.64,0,0,1,3.63-3.66"/><path d="M139,149.94a1.26,1.26,0,0,0,1.23-1.26,1.23,1.23,0,0,0-1.23-1.2h-1.8v2.46Zm-2.86-3.25a.2.2,0,0,1,.19-.2h2.75a2.19,2.19,0,0,1,2.21,2.17,2.24,2.24,0,0,1-1.5,2.05l1.39,2.57a.2.2,0,0,1-.18.3h-.79a.18.18,0,0,1-.16-.09l-1.34-2.68h-1.53v2.58a.2.2,0,0,1-.19.19h-.66a.19.19,0,0,1-.19-.19Z"/><path d="M147.66,150.17l-2.36-3.38a.19.19,0,0,1,.16-.3h.75a.21.21,0,0,1,.16.1l1.83,2.58,1.83-2.58a.23.23,0,0,1,.16-.1H151a.19.19,0,0,1,.16.3l-2.39,3.37v3.23a.21.21,0,0,1-.2.19h-.66a.19.19,0,0,1-.2-.19Z"/><path d="M75.59,71.73a33.62,33.62,0,1,1,0-67.23,34,34,0,0,1,31.1,20.1l.63,1.54a32.61,32.61,0,0,1,1.21,3.78l.51,2.39s0,.06,0,.09l.19,1.21a33.45,33.45,0,0,1,.31,4.5,33.79,33.79,0,0,1-34,33.62m0-69.27a35.88,35.88,0,0,0-36,35.65,36,36,0,0,0,72,0,35.88,35.88,0,0,0-36-35.65"/><path d="M75.59,76.23A38.32,38.32,0,0,1,37.08,38.11a38.58,38.58,0,0,1,73.77-15.32s1.72,4.57,2.09,6l.58,2.71s0,.06,0,.09l.21,1.37a37.59,37.59,0,0,1,.34,5.11,38.31,38.31,0,0,1-38.5,38.12m0-75.67A37.79,37.79,0,0,0,37.65,38.11a37.94,37.94,0,0,0,75.88,0A37.79,37.79,0,0,0,75.59.56"/><path d="M60,69.83a36.36,36.36,0,0,0,15.68,3.54c19.84,0,35.91-15.74,35.91-35.16a34.36,34.36,0,0,0-2.93-13.94H106.7a29.68,29.68,0,0,1,3.08,13.94c0,18.41-15.32,33.39-34.15,33.39a34.41,34.41,0,0,1-10.16-1.51c-.49-.15-4.58-1.41-5.52-1.78Z"/><path d="M108.6,24.26h-5.69l-.71.18s5,11.12,1.68,21.17C100.14,56.78,88.7,70.15,70.31,70.15a41.21,41.21,0,0,1-7.1-.63l-1.3-.15,1.21,1.45,5.42,0c.59,0,1.18,0,1.77,0a35.58,35.58,0,0,0,22.92-8.21,37.62,37.62,0,0,0,11.35-16.84c2.91-8.71-.14-17.42-1.38-20.77l.16.05h5.56Z"/><polygon points="109.94 30.74 102.61 25.1 102.95 24.66 110.28 30.3 109.94 30.74"/><polygon points="110.47 33.71 103.97 28.74 104.19 28.2 110.81 33.26 110.47 33.71"/><rect x="107.39" y="30.06" width="0.56" height="7.49" transform="translate(15.4 98.78) rotate(-52.58)"/><rect x="107.52" y="32.94" width="0.56" height="7.14" transform="translate(13.32 99.96) rotate(-52.59)"/><rect x="107.61" y="35.71" width="0.56" height="6.92" transform="translate(11.23 101.06) rotate(-52.58)"/><rect x="103.6" y="41.14" width="5.47" height="0.56" transform="translate(9.14 101.23) rotate(-52.89)"/><polygon points="102.08 51.82 101.63 51.49 109.84 40.67 110.28 41 102.08 51.82"/><rect x="94.6" y="61.55" width="0.56" height="4.51" transform="translate(-19.35 68.82) rotate(-36.43)"/><rect x="96.89" y="59.27" width="0.56" height="4.51" transform="translate(-17.55 69.75) rotate(-36.44)"/><polygon points="100.56 61.22 97.88 57.59 98.33 57.26 101.01 60.89 100.56 61.22"/><rect x="101.25" y="54.14" width="0.56" height="5.14" transform="translate(-13.77 71.91) rotate(-36.7)"/><rect x="103.13" y="51.15" width="0.56" height="5.31" transform="translate(-11.92 70.79) rotate(-35.87)"/><rect x="105.13" y="48.6" width="0.56" height="5.13" transform="translate(-9.86 72.19) rotate(-36.23)"/><rect x="107.14" y="46" width="0.56" height="4.98" transform="translate(-7.99 72.39) rotate(-36)"/><rect x="108.76" y="43.33" width="0.56" height="3.9" transform="translate(-5.84 72.54) rotate(-35.9)"/><rect x="91.68" y="63.29" width="3.03" height="0.56"/><rect x="89.43" y="64.93" width="6.38" height="0.56"/><rect x="85.61" y="66.71" width="8.58" height="0.56"/><rect x="81.93" y="68.31" width="9.92" height="0.56"/><rect x="77.08" y="69.91" width="10.08" height="0.56"/><rect x="81.65" y="70.33" width="0.56" height="2.21"/><rect x="79.17" y="70.19" width="0.56" height="2.81"/><rect x="74.64" y="70.33" width="0.56" height="2.62"/><rect x="72.04" y="70.33" width="0.56" height="2.66"/><rect x="76.69" y="69.83" width="0.56" height="3.08"/><path d="M69,65.86c1-1.42,4.64-6.29,5.36-6.92s1.12-1.71,1.8-2.19a27.06,27.06,0,0,0,8.68-7.43s4.64,1.35,13,.77c0,0,.42.31.16.69a15.62,15.62,0,0,0-3.49,4.91,31.7,31.7,0,0,1-2.13,4.92c-1.5,2.58-2.64,3.13-4.46,5.26,0,0,2.72-1.42,3.28-1.82,4-2.95,8.27-5.63,11.26-14.16a3,3,0,0,0-.85-3.43,9,9,0,0,0-2.8-1.28,35.63,35.63,0,0,0-6.86-2.42c-1-.18-3.35-.51-4.55-.78-1-.23-.82-1-1.35-2.67s-1.35-2.57-1.37-4.78a10.35,10.35,0,0,0-.7-3.25,15.25,15.25,0,0,0,3.91-.43,12.82,12.82,0,0,1,3.58-.33c2.46,0,8-1.92,9.53-2.32a9.28,9.28,0,0,1,2.21-.24c1-.12.64-1,.64-1.43a1.75,1.75,0,0,1,.2-.91,1.21,1.21,0,0,1,.5-.49s2.5-.31,1.19-.87c-.15-.06-.36-.44-.51-.47a6.71,6.71,0,0,0-3.3.47,12.65,12.65,0,0,0-1.24,1.34,2.8,2.8,0,0,1-1.93,1.17c-2.12.48-3.63-.19-5-.17a16.38,16.38,0,0,0-4,.52c-1.53.33-3.82-.54-5.35-.73-2.5-.32-3.29-1.53-2.63-1.6,1.68-.19,1.26-2.87,2.1-4.09,0,0,1.39-1.76,1.11-2.67-.23-.75-3.83-2.51-6.09-1.52-1.17.5-2,3.18-2.35,4.72s-3.06,2.81-4.06,3.5-2.64,2.52-.57,6.46c.18.35,4.3,6.76,5.49,8,.87.93,1.25,1.24,1.38,1.66a4.7,4.7,0,0,1-.2,2.22c-.57,1.4-.15,3.27-.31,3.55-.36.63-2.83,2.23-4.74,5.88A15,15,0,0,1,70.14,57a22,22,0,0,0-3,6.55c-.73,2.61-.77,1.59-1.51,2.87a8.54,8.54,0,0,0-.75,1.73,10.48,10.48,0,0,0-.6,2.16c0,.28,1.69.28,4.51.5,0,0-.89-3.52.14-4.93"/></g></g></svg>