<?xml version="1.0" standalone="no"?>
<!DOCTYPE svg PUBLIC "-//W3C//DTD SVG 20010904//EN"
 "http://www.w3.org/TR/2001/REC-SVG-20010904/DTD/svg10.dtd">
<svg version="1.0" xmlns="http://www.w3.org/2000/svg"
 width="958.000000pt" height="958.000000pt" viewBox="0 0 958.000000 958.000000"
 preserveAspectRatio="xMidYMid meet">

<g transform="translate(0.000000,958.000000) scale(0.100000,-0.100000)"
fill="#000000" stroke="none">
<path d="M4955 9376 c-60 -27 -91 -88 -74 -149 14 -51 50 -79 109 -85 48 -4
52 -3 90 36 33 33 40 46 40 78 0 91 -88 155 -165 120z"/>
<path d="M4518 9364 c-53 -28 -72 -98 -43 -154 35 -67 120 -82 177 -31 30 27
33 35 33 86 0 51 -3 59 -33 86 -37 33 -88 38 -134 13z"/>
<path d="M5294 9296 c-29 -29 -34 -41 -34 -81 0 -40 5 -52 34 -81 40 -40 92
-46 142 -15 67 41 67 151 1 191 -51 32 -103 26 -143 -14z"/>
<path d="M4101 9306 c-74 -41 -63 -162 18 -196 25 -10 40 -10 72 -1 49 15 74
51 74 109 0 37 -5 48 -33 73 -36 32 -89 38 -131 15z"/>
<path d="M5704 9196 c-29 -29 -34 -41 -34 -81 0 -40 5 -52 34 -81 28 -28 41
-34 78 -34 47 1 72 15 100 57 22 35 23 65 2 109 -20 41 -59 64 -110 64 -28 0
-44 -8 -70 -34z"/>
<path d="M3725 9213 c-11 -3 -32 -17 -47 -31 -22 -20 -28 -35 -28 -70 0 -61
40 -102 100 -102 113 0 140 152 34 196 -18 8 -35 13 -36 13 -2 -1 -12 -3 -23
-6z"/>
<path d="M6099 9041 c-41 -42 -41 -107 0 -153 74 -83 210 -4 180 105 -22 79
-122 105 -180 48z"/>
<path d="M3324 9050 c-56 -22 -81 -103 -46 -146 41 -52 100 -58 143 -15 51 51
33 137 -33 160 -36 13 -36 13 -64 1z"/>
<path d="M4655 8984 c-127 -8 -295 -26 -410 -45 -196 -33 -482 -114 -628 -178
-27 -11 -58 -21 -70 -21 -25 0 -232 -103 -363 -180 -344 -202 -659 -487 -905
-817 -48 -65 -95 -126 -104 -136 -28 -32 -100 -149 -158 -257 -119 -223 -227
-505 -281 -735 -15 -60 -33 -135 -41 -165 -50 -196 -67 -701 -31 -965 51 -372
169 -750 334 -1067 57 -109 140 -248 157 -263 6 -5 43 -55 82 -110 200 -282
487 -564 783 -767 339 -232 725 -398 1115 -477 257 -52 294 -56 635 -56 348 0
397 5 665 62 743 158 1435 618 1879 1248 31 44 65 89 75 100 25 28 152 250
203 355 89 185 168 410 217 615 77 323 85 390 85 740 1 284 -13 461 -44 575
-5 19 -26 103 -46 185 -40 167 -107 362 -184 535 -53 121 -200 386 -235 424
-11 12 -35 45 -54 72 -245 351 -583 669 -951 892 -134 81 -357 192 -386 192
-12 0 -46 11 -75 24 -133 58 -399 135 -589 170 -183 34 -521 59 -675 50z m430
-85 c200 -20 461 -76 632 -134 39 -14 81 -25 93 -25 43 0 274 -104 453 -204
367 -205 721 -521 976 -870 24 -32 51 -66 61 -76 27 -27 142 -224 209 -358
108 -215 170 -388 237 -651 62 -246 84 -427 84 -704 0 -431 -69 -781 -235
-1192 -66 -164 -227 -458 -293 -535 -12 -14 -48 -61 -81 -106 -84 -116 -223
-274 -337 -384 -813 -785 -1981 -1055 -3054 -707 -579 188 -1128 581 -1490
1068 -39 52 -83 110 -99 129 -67 84 -214 347 -276 495 -52 123 -119 321 -149
437 -88 345 -101 448 -101 798 1 302 11 400 66 635 110 466 276 828 533 1164
327 427 670 714 1111 931 176 86 205 97 410 159 437 132 830 173 1250 130z"/>
<path d="M4630 8621 c-155 -43 -282 -121 -410 -250 -310 -313 -450 -792 -386
-1312 16 -126 33 -204 73 -319 32 -95 122 -280 140 -287 7 -3 33 -33 57 -67
91 -127 244 -259 373 -325 121 -61 193 -76 353 -75 129 0 154 3 225 27 131 43
245 117 365 237 59 58 119 126 136 152 16 27 34 48 41 48 14 0 103 173 137
268 65 182 99 396 99 617 1 83 -5 177 -12 210 -73 350 -161 552 -330 759 -104
128 -266 244 -421 302 -67 25 -90 28 -225 31 -122 2 -162 -1 -215 -16z m139
-173 c-42 -171 -30 -440 31 -661 21 -74 53 -165 70 -194 21 -38 124 -262 155
-339 29 -72 41 -124 59 -258 6 -44 -17 -244 -40 -343 -18 -81 -63 -203 -74
-203 -4 0 -15 -17 -23 -37 -34 -84 -121 -260 -144 -291 -25 -34 -43 -35 -43
-2 0 11 12 54 26 97 62 189 77 263 82 414 3 111 0 165 -12 226 -29 146 -96
330 -176 492 -94 187 -122 313 -122 556 0 189 43 361 136 540 77 151 112 152
75 3z"/>
<path d="M3818 8107 c-207 -109 -362 -240 -524 -440 -90 -113 -155 -213 -221
-342 -56 -110 -134 -295 -124 -295 4 0 25 25 47 55 133 188 210 283 315 387
65 64 128 120 141 124 13 4 54 28 93 54 38 26 105 66 149 88 43 23 84 46 91
52 7 6 29 47 48 93 54 123 117 275 117 281 0 12 -18 4 -132 -57z"/>
<path d="M5743 8074 c3 -16 33 -101 67 -189 l61 -160 98 -62 c54 -35 103 -63
108 -63 16 0 187 -155 259 -236 79 -88 175 -215 217 -287 42 -70 50 -57 16 26
-80 194 -206 425 -272 502 -15 17 -60 71 -102 122 -110 133 -264 264 -409 348
l-49 29 6 -30z"/>
<path d="M3700 7617 c-154 -69 -289 -167 -443 -324 -97 -99 -148 -162 -229
-278 -101 -146 -213 -350 -268 -490 -13 -33 -30 -67 -37 -75 -6 -9 -32 -76
-56 -150 -108 -326 -120 -385 -114 -530 5 -126 21 -181 79 -277 66 -110 127
-165 250 -227 62 -32 132 -60 156 -63 l42 -6 0 145 c0 335 76 669 221 964 32
66 71 134 86 151 16 16 56 70 90 119 55 78 203 237 273 292 24 19 24 20 12 93
-29 181 -35 329 -22 502 7 92 11 169 9 171 -2 2 -24 -5 -49 -17z m-636 -1152
c15 -8 34 -15 42 -15 19 0 34 -33 34 -73 0 -58 -63 -117 -125 -117 -41 0 -95
30 -116 64 -38 62 -19 114 49 137 60 22 80 22 116 4z m-127 -541 c50 -38 68
-72 68 -128 0 -67 -35 -117 -100 -141 -108 -42 -225 33 -225 145 0 54 44 116
100 139 38 16 127 7 157 -15z"/>
<path d="M5905 7328 c0 -239 -2 -274 -24 -385 l-25 -123 24 -32 c13 -18 58
-73 100 -123 42 -49 94 -115 115 -145 22 -30 51 -66 65 -80 58 -57 159 -289
210 -486 58 -223 82 -390 81 -577 0 -143 3 -169 16 -174 40 -16 267 89 336
155 48 46 90 105 126 180 77 156 84 273 27 485 -51 191 -125 417 -142 434 -8
8 -14 18 -14 23 0 18 -119 259 -175 355 -184 315 -409 561 -658 718 -31 21
-58 37 -60 37 -1 0 -2 -118 -2 -262z m680 -865 c60 -21 65 -27 65 -75 0 -54
-19 -87 -62 -109 -63 -32 -123 -19 -167 37 -35 44 -23 134 17 134 10 0 22 4
28 9 8 8 34 17 59 20 6 1 33 -7 60 -16z m203 -540 c41 -30 72 -82 72 -120 0
-75 -65 -147 -145 -160 -74 -12 -165 47 -180 118 -15 68 24 146 90 175 42 20
129 13 163 -13z"/>
<path d="M3685 6590 c-65 -77 -122 -140 -126 -140 -15 0 -70 -89 -133 -217
-110 -219 -160 -394 -213 -738 -26 -175 -24 -403 5 -511 41 -151 136 -368 250
-569 53 -93 151 -248 162 -255 4 -3 54 -72 109 -154 274 -400 530 -703 684
-810 134 -92 317 -128 479 -95 74 15 202 79 271 136 82 67 440 504 617 752 25
35 72 100 106 145 178 240 386 665 438 896 27 125 28 163 6 356 -29 256 -72
442 -151 664 -45 124 -159 347 -199 390 -19 21 -64 74 -100 118 -36 45 -72 81
-80 82 -10 0 -32 -34 -60 -91 -25 -50 -49 -94 -55 -97 -5 -4 -32 -40 -60 -81
-27 -41 -83 -109 -122 -151 -40 -43 -73 -82 -73 -88 0 -5 35 -18 78 -27 255
-57 419 -234 453 -491 12 -89 1 -216 -24 -273 -46 -106 -176 -250 -274 -303
-208 -113 -486 -78 -659 84 -35 33 -73 75 -85 95 -12 19 -25 31 -29 26 -4 -4
1 -89 11 -188 10 -106 18 -267 18 -392 l1 -212 53 -58 c62 -66 77 -92 77 -126
0 -35 -20 -47 -92 -57 -66 -9 -70 -12 -136 -99 -43 -57 -100 -42 -152 39 -33
52 -39 55 -124 64 -109 13 -103 65 24 212 l27 32 6 293 c3 175 12 337 21 399
8 57 13 107 10 109 -2 3 -36 -28 -75 -68 -144 -146 -294 -221 -443 -221 -135
0 -306 65 -394 149 -59 56 -145 183 -169 249 -13 35 -17 77 -17 167 0 105 4
129 27 195 38 105 82 173 154 239 106 98 210 138 386 148 59 3 107 8 107 11 0
2 -42 51 -92 107 -51 56 -106 119 -121 139 -17 22 -40 39 -57 43 -24 4 -27 8
-19 22 8 12 1 37 -31 104 -22 49 -49 110 -59 135 -10 25 -23 48 -28 49 -5 2
-63 -60 -128 -137z m229 -1799 c21 -23 122 -527 113 -563 -8 -29 -48 -48 -103
-48 -36 0 -62 20 -68 53 -2 12 -25 126 -50 252 -25 127 -46 242 -46 256 0 63
110 99 154 50z m380 8 l26 -20 0 -285 c0 -271 -1 -285 -20 -304 -28 -28 -98
-27 -128 0 -22 20 -22 26 -22 301 l0 280 25 24 c30 31 82 33 119 4z m1079 -10
c16 -20 18 -45 15 -302 l-3 -279 -24 -19 c-32 -26 -89 -25 -118 3 -23 21 -23
22 -23 303 0 301 0 298 50 318 28 12 85 -2 103 -24z m352 17 c63 -27 63 -35 5
-327 -46 -238 -54 -266 -77 -288 -30 -26 -76 -25 -119 4 -33 22 -32 47 21 313
46 235 62 283 98 300 29 14 32 14 72 -2z m-1085 -807 c30 -15 70 -39 89 -53
37 -28 37 -28 114 23 97 64 210 80 289 40 57 -29 121 -99 157 -169 34 -70 32
-91 -21 -172 -64 -100 -170 -157 -362 -194 -205 -39 -452 15 -579 126 -56 50
-110 150 -100 189 17 67 96 170 160 208 84 49 159 50 253 2z"/>
<path d="M4059 5957 c-100 -28 -176 -93 -243 -207 -42 -72 -62 -127 -82 -224
-23 -113 -8 -182 55 -249 25 -27 61 -57 81 -67 61 -30 179 -52 280 -51 157 2
244 38 320 133 45 56 56 106 46 201 -30 288 -257 519 -457 464z m186 -331 c68
-31 145 -92 145 -115 0 -9 -22 -34 -49 -54 -131 -100 -305 -103 -432 -7 -74
55 -77 64 -37 102 115 107 244 133 373 74z"/>
<path d="M5350 5961 c-103 -21 -218 -121 -278 -243 -67 -136 -89 -294 -53
-373 25 -55 101 -131 158 -158 43 -19 65 -22 208 -22 205 0 237 9 321 87 76
72 100 129 91 217 -33 303 -243 534 -447 492z m120 -312 c65 -14 125 -48 175
-99 l40 -41 -40 -34 c-22 -19 -65 -47 -95 -62 -48 -24 -67 -28 -145 -28 -76 0
-99 4 -145 26 -61 28 -130 84 -130 104 0 7 24 31 53 53 108 82 182 104 287 81z"/>
<path d="M4560 5928 c0 -3 20 -35 44 -72 38 -57 57 -105 94 -236 6 -20 15 -26
43 -28 48 -4 89 13 89 37 0 36 42 156 71 204 16 26 29 51 29 56 0 4 -48 8
-107 9 -96 1 -130 5 -235 28 -16 4 -28 4 -28 2z"/>
<path d="M6498 8855 c-96 -54 -35 -204 73 -180 37 8 79 59 79 96 0 67 -92 118
-152 84z"/>
<path d="M2931 8824 c-60 -50 -25 -144 54 -144 89 0 117 116 38 158 -33 18
-59 14 -92 -14z"/>
<path d="M6831 8604 c-26 -21 -31 -33 -31 -69 0 -89 97 -129 161 -66 40 40 40
88 0 130 -38 40 -86 42 -130 5z"/>
<path d="M2585 8585 c-59 -58 -5 -158 76 -140 89 20 71 165 -21 165 -19 0 -40
-9 -55 -25z"/>
<path d="M7146 8315 c-58 -54 -20 -155 59 -155 51 0 85 36 85 90 0 81 -85 120
-144 65z"/>
<path d="M2293 8308 c-32 -16 -48 -61 -34 -97 12 -27 47 -51 76 -51 29 0 68
46 68 80 0 24 -7 40 -27 57 -29 25 -49 28 -83 11z"/>
<path d="M7425 7985 c-35 -34 -33 -78 4 -116 32 -32 47 -35 86 -17 27 12 55
54 55 83 0 9 -13 30 -29 46 -38 37 -82 39 -116 4z"/>
<path d="M2005 7965 c-30 -30 -31 -54 -4 -89 51 -65 153 -1 114 73 -24 48 -72
55 -110 16z"/>
<path d="M7666 7629 c-33 -26 -34 -62 -1 -94 30 -30 64 -32 99 -4 32 25 34 66
6 97 -26 28 -69 28 -104 1z"/>
<path d="M1782 7614 c-28 -19 -29 -57 -2 -84 24 -24 48 -25 78 -4 43 30 16
104 -38 104 -9 0 -26 -7 -38 -16z"/>
<path d="M7861 7262 c-28 -22 -31 -75 -6 -102 24 -26 76 -26 100 0 58 64 -27
157 -94 102z"/>
<path d="M1609 7246 c-31 -15 -39 -74 -13 -93 28 -21 62 -16 80 12 33 50 -14
108 -67 81z"/>
<path d="M8007 6852 c-25 -27 -22 -78 5 -96 12 -9 30 -16 38 -16 27 0 60 39
60 69 0 54 -68 82 -103 43z"/>
<path d="M1460 6830 c-11 -11 -20 -27 -20 -35 0 -16 34 -55 48 -55 4 0 18 7
30 16 28 20 28 58 0 78 -29 20 -34 20 -58 -4z"/>
<path d="M1360 6434 c-10 -11 -11 -23 -4 -42 8 -22 16 -27 43 -27 40 0 57 21
47 58 -5 23 -12 27 -40 27 -18 0 -39 -7 -46 -16z"/>
<path d="M8087 6436 c-17 -44 35 -89 77 -66 26 13 38 42 29 66 -3 9 -21 14
-53 14 -32 0 -50 -5 -53 -14z"/>
<path d="M8145 6030 c-22 -24 -14 -65 16 -80 47 -26 92 46 53 84 -21 22 -47
20 -69 -4z"/>
<path d="M1332 6024 c-27 -19 -28 -48 -2 -74 24 -24 43 -25 64 -4 23 22 20 60
-6 78 -12 9 -25 16 -28 16 -3 0 -16 -7 -28 -16z"/>
<path d="M8130 5601 c-15 -28 -12 -46 8 -64 24 -22 45 -21 65 1 20 22 22 53 5
70 -19 19 -66 15 -78 -7z"/>
<path d="M1334 5585 c-15 -23 -15 -27 0 -50 29 -44 86 -28 86 25 0 53 -57 69
-86 25z"/>
<path d="M8082 5204 c-12 -8 -22 -26 -22 -39 0 -21 32 -55 52 -55 14 0 48 39
48 55 0 16 -34 55 -48 55 -4 0 -18 -7 -30 -16z"/>
<path d="M1399 5189 c-26 -26 -21 -57 13 -82 25 -19 28 -19 52 -3 20 12 26 25
26 51 0 54 -52 73 -91 34z"/>
<path d="M1530 4803 c-40 -16 -53 -78 -22 -106 38 -34 95 -15 107 35 5 21 1
33 -19 52 -25 26 -38 30 -66 19z"/>
<path d="M7960 4790 c-11 -11 -20 -27 -20 -35 0 -18 35 -55 53 -55 45 0 65 61
31 94 -21 21 -40 20 -64 -4z"/>
<path d="M1672 4404 c-47 -33 -16 -124 43 -124 30 0 75 41 75 68 0 11 -9 31
-21 46 -24 30 -63 34 -97 10z"/>
<path d="M7802 4413 c-24 -10 -34 -53 -18 -79 24 -35 54 -40 82 -13 28 26 30
46 8 77 -14 21 -43 27 -72 15z"/>
<path d="M1871 4044 c-28 -35 -26 -69 4 -99 49 -50 125 -18 125 52 0 70 -87
101 -129 47z"/>
<path d="M7580 4050 c-26 -26 -25 -64 2 -90 29 -27 66 -22 91 11 46 62 -38
134 -93 79z"/>
<path d="M2125 3715 c-41 -40 -33 -105 17 -131 61 -31 118 6 118 77 0 71 -85
105 -135 54z"/>
<path d="M7325 3715 c-47 -46 -19 -118 45 -118 66 0 95 82 44 122 -35 27 -59
26 -89 -4z"/>
<path d="M2418 3420 c-32 -24 -40 -65 -23 -107 38 -90 165 -62 165 37 0 78
-82 118 -142 70z"/>
<path d="M7045 3428 c-67 -39 -54 -129 21 -144 67 -13 116 79 68 126 -25 25
-64 33 -89 18z"/>
<path d="M2741 3154 c-25 -21 -31 -33 -31 -66 0 -52 14 -77 56 -94 29 -12 39
-12 67 0 37 15 67 54 67 86 0 34 -29 80 -56 90 -41 16 -71 11 -103 -16z"/>
<path d="M6692 3147 c-29 -30 -28 -78 1 -112 57 -67 165 0 136 85 -13 36 -36
50 -82 50 -22 0 -41 -8 -55 -23z"/>
<path d="M3089 2931 c-55 -55 -31 -146 46 -171 27 -9 40 -8 64 4 100 52 72
196 -39 196 -33 0 -48 -6 -71 -29z"/>
<path d="M6365 2951 c-92 -39 -69 -173 30 -173 105 0 119 154 15 176 -14 3
-34 1 -45 -3z"/>
<path d="M3478 2770 c-40 -31 -53 -73 -39 -121 15 -49 51 -74 109 -74 37 0 48
5 73 33 34 38 39 88 12 132 -30 52 -109 67 -155 30z"/>
<path d="M5957 2769 c-11 -6 -25 -26 -33 -45 -12 -29 -12 -39 0 -68 34 -82
132 -91 172 -14 34 65 -11 138 -85 138 -20 0 -44 -5 -54 -11z"/>
<path d="M3882 2650 c-36 -22 -52 -54 -52 -107 0 -27 8 -43 34 -69 29 -29 41
-34 81 -34 42 0 52 5 81 36 94 100 -26 246 -144 174z"/>
<path d="M5557 2645 c-52 -30 -63 -105 -21 -154 45 -53 116 -50 161 8 21 27
16 97 -10 126 -28 33 -90 42 -130 20z"/>
<path d="M4302 2585 c-23 -10 -39 -28 -53 -61 -20 -44 -20 -48 -4 -89 50 -131
235 -93 235 48 0 82 -98 139 -178 102z"/>
<path d="M5154 2580 c-76 -31 -85 -142 -14 -197 24 -20 94 -16 122 7 102 80
12 239 -108 190z"/>
<path d="M4730 2557 c-13 -7 -35 -28 -48 -47 -39 -58 -15 -135 53 -167 29 -14
41 -14 74 -4 104 31 113 176 14 217 -40 17 -61 17 -93 1z"/>
<path d="M2888 2003 c-15 -2 -41 -17 -58 -33 -23 -22 -30 -36 -30 -67 0 -34
19 -63 190 -285 105 -135 190 -249 190 -252 0 -3 -63 -6 -140 -6 l-140 0 -7
30 c-9 46 -48 63 -77 34 -28 -27 -20 -80 18 -122 l34 -37 157 -3 c208 -4 245
11 245 105 0 38 -9 55 -82 150 -185 244 -271 353 -279 353 -5 0 -9 9 -9 20 0
20 5 20 132 18 l131 -3 17 -30 c18 -32 52 -44 76 -25 31 27 7 102 -43 136 -23
15 -50 19 -163 20 -74 1 -147 0 -162 -3z"/>
<path d="M3523 2000 c-27 -11 -38 -43 -23 -70 9 -18 20 -20 95 -20 l85 0 0
-275 0 -275 -75 0 c-62 0 -79 -4 -95 -20 -23 -23 -24 -33 -10 -61 10 -18 23
-19 228 -19 229 0 242 2 242 45 0 41 -30 55 -113 55 l-77 0 2 273 3 272 80 3
c86 3 105 12 105 48 0 48 -28 54 -235 53 -104 0 -200 -4 -212 -9z"/>
<path d="M4222 2000 c-29 -12 -37 -35 -24 -65 8 -18 20 -25 49 -27 l38 -3 3
-272 2 -273 -29 0 c-16 0 -39 -9 -52 -19 -20 -16 -22 -23 -14 -47 l11 -29 136
0 137 0 31 30 c30 29 124 209 150 289 16 51 8 102 -28 180 -57 122 -111 205
-145 223 -37 19 -228 29 -265 13z m229 -111 c31 -31 119 -218 119 -253 0 -17
-26 -85 -60 -153 l-59 -123 -35 0 -36 0 0 268 c0 148 3 272 7 275 13 13 43 7
64 -14z"/>
<path d="M5095 1986 c-14 -14 -25 -31 -25 -39 0 -8 -12 -50 -26 -93 -14 -44
-41 -133 -59 -199 -18 -66 -47 -168 -64 -228 -17 -59 -31 -115 -31 -125 0 -42
61 -58 81 -21 6 12 19 46 30 77 11 31 25 60 32 64 14 9 158 11 181 2 9 -3 25
-36 36 -72 11 -36 25 -71 31 -79 23 -27 79 -9 79 26 0 29 -163 600 -190 668
-5 12 -18 27 -30 33 -17 9 -24 7 -45 -14z m64 -321 c18 -60 34 -118 37 -127 5
-16 -3 -18 -70 -18 -42 0 -76 1 -76 3 0 4 56 205 66 240 3 10 7 17 9 15 2 -2
17 -52 34 -113z"/>
<path d="M5595 1997 c-3 -6 -4 -171 -3 -366 3 -387 2 -382 61 -367 l27 6 0
295 c0 161 4 296 9 299 12 8 91 -115 91 -141 0 -22 24 -53 41 -53 23 0 49 22
49 42 0 22 60 128 85 148 13 11 15 -21 15 -282 0 -215 3 -297 12 -306 19 -19
66 -15 78 7 6 13 10 148 10 370 l0 351 -23 6 c-13 3 -41 4 -63 2 -34 -3 -43
-9 -76 -58 -77 -111 -84 -112 -140 -30 -63 90 -63 90 -118 90 -31 0 -52 -5
-55 -13z"/>
<path d="M6500 2002 c-52 -8 -89 -56 -172 -220 -63 -127 -60 -162 22 -331 80
-165 110 -195 183 -188 65 6 82 25 158 177 51 103 63 136 67 187 4 57 1 67
-44 159 -27 54 -56 112 -66 129 -33 62 -91 96 -148 87z m46 -109 c9 -10 42
-68 72 -130 l55 -114 -17 -52 c-9 -29 -38 -92 -64 -142 -67 -128 -72 -127
-150 29 -34 69 -62 138 -62 154 0 47 116 272 140 272 5 0 16 -8 26 -17z"/>
<path d="M4540 716 c0 -292 0 -295 23 -320 12 -14 35 -27 52 -28 l30 -3 3 265
c2 146 0 280 -3 299 -8 42 -46 81 -80 81 l-25 0 0 -294z"/>
<path d="M3436 783 c-40 -11 -98 -58 -122 -98 -32 -56 -34 -163 -3 -214 45
-74 114 -110 212 -111 38 0 67 -4 67 -10 0 -21 -65 -50 -113 -50 -41 0 -54 -5
-78 -30 -20 -19 -29 -38 -27 -52 3 -22 7 -23 99 -22 82 1 104 5 140 25 44 25
98 91 99 122 0 16 20 17 268 17 147 0 285 5 306 10 55 12 115 59 143 111 20
36 24 55 21 105 -5 74 -37 130 -100 171 -36 25 -51 28 -119 28 -70 0 -81 -3
-120 -30 -61 -43 -93 -109 -98 -202 l-3 -74 -142 3 -141 3 -6 82 c-5 66 -12
91 -33 123 -41 62 -97 94 -170 96 -33 2 -70 0 -80 -3z m872 -138 c32 -37 31
-107 -3 -140 -21 -22 -33 -25 -100 -25 l-75 0 0 60 c0 36 7 74 16 91 31 61
114 68 162 14z m-749 19 c32 -23 51 -73 51 -134 l0 -50 -80 0 c-75 0 -83 2
-105 26 -40 43 -31 116 19 156 27 22 85 23 115 2z"/>
<path d="M4730 720 c0 -33 26 -75 55 -88 14 -7 62 -12 106 -12 115 0 159 -31
159 -110 l0 -30 -115 0 c-124 0 -160 -10 -189 -52 -9 -12 -16 -33 -16 -46 l0
-23 398 3 c356 3 400 5 429 21 40 22 43 21 43 -4 0 -20 2 -20 328 -17 361 3
355 2 419 70 49 51 63 98 63 204 0 51 -4 95 -9 98 -16 10 -69 -15 -85 -39 -9
-14 -16 -46 -16 -76 0 -57 -24 -119 -47 -119 -11 0 -14 17 -12 90 2 85 1 93
-22 115 -13 14 -35 26 -49 27 l-25 3 -3 -117 c-1 -65 -7 -118 -12 -118 -22 0
-40 47 -40 105 0 52 -4 65 -27 93 -16 18 -39 33 -53 35 -25 2 -25 2 -28 -91
-1 -51 2 -108 7 -127 l9 -35 -170 0 c-157 0 -170 1 -164 17 4 10 10 62 13 115
l6 98 -29 0 c-54 -1 -77 -30 -85 -106 -6 -59 -11 -72 -38 -96 l-31 -28 -170 0
-170 0 0 43 c-1 89 -67 176 -154 202 -31 9 -92 15 -163 15 -107 0 -113 -1
-113 -20z"/>
<path d="M5481 304 c-26 -22 -31 -33 -31 -70 0 -48 2 -49 49 -33 36 13 61 53
61 99 0 25 -4 30 -24 30 -14 0 -38 -12 -55 -26z"/>
<path d="M5594 315 c-8 -20 13 -79 35 -99 27 -24 74 -26 79 -3 6 29 -6 61 -32
90 -27 29 -73 36 -82 12z"/>
</g>
</svg>
