<svg xmlns="http://www.w3.org/2000/svg" viewBox="0 0 297.68 291.84"><defs><style>.cls-1{fill:none;stroke:#1d1d1b;stroke-miterlimit:10;stroke-width:2px;}</style></defs><g id="Layer_2" data-name="Layer 2"><g id="Layer_1-2" data-name="Layer 1"><path class="cls-1" d="M149.38,116.73l44.67-.54c.81-18.29,0-36.92-.75-55.19-.37-8.51.22-19-3.19-27C183.27,18,165,4.72,148.26,1.78c-17.43-3-35.12,3-48.36,14.45C72.37,40,80.24,82.67,79.78,115.15c-10.72-.59-20-7.19-23.53-16.65-4.45-12,1.46-25.57,12.26-31.88" transform="translate(-7.5)"/><path class="cls-1" d="M163.09,73.73,137.23,74c-4.31.06-8.63.06-12.94.16-4.9.12-5.88.74-6.08,5.73-.65,16.49.23,33.07,1,49.53.37,8.52-.22,19,3.18,27,6.85,16.08,25.09,29.31,41.85,32.25,22,3.84,48.08-8.37,60.65-26.42,7.47-10.72,6.88-21.07,7.09-33.47.3-17.83.49-35.65.74-53.47,10.73.58,20,7.18,23.54,16.64,4.25,11.45-.73,25.15-12.26,31.89" transform="translate(-7.5)"/><path d="M7.5,222.26H18.12l9.59,29.16,3.33,11h.42l3.22-11,9.69-29.16H55v68.33H46.66V256.42c0-6.66,1-18.33,1.46-24.16h-.31L44,245.59l-9.79,26.87H27.91l-9.58-26.87-4-13.33h-.2c.62,5.83,1.45,17.5,1.45,24.16v34.17H7.5Z" transform="translate(-7.5)"/><path d="M74.37,222.26h42.29v7.39H83.12V251h28.33v7.39H83.12v24.79H117.7v7.4H74.37Z" transform="translate(-7.5)"/><path d="M135.3,222.26h21.35c13.86,0,24,5,24,19.27,0,13.64-10.1,20.2-24,20.2h-12.5v28.86H135.3Zm20.1,32.39c10.63,0,16.46-4.37,16.46-13.12,0-9-5.83-12.19-16.46-12.19H144.15v25.31Zm6.36.11,20.83,35.83h-9.9l-17.81-31.25Z" transform="translate(-7.5)"/><path d="M193,256.42c0-22.08,12.6-35.41,30.3-35.41a25.15,25.15,0,0,1,18.86,8.33l-5,5.52a17.8,17.8,0,0,0-13.86-6.14c-12.81,0-21.14,10.52-21.14,27.49,0,17.19,7.6,27.92,20.94,27.92,4.79,0,9.27-1.46,11.77-4V262.36H221.34v-7.19H243v28.75c-4.27,4.38-11.56,7.92-20.41,7.92C205.4,291.84,193,278.71,193,256.42Z" transform="translate(-7.5)"/><path d="M261.85,222.26h42.29v7.39H270.6V251h28.33v7.39H270.6v24.79h34.58v7.4H261.85Z" transform="translate(-7.5)"/></g></g></svg>