<svg xmlns="http://www.w3.org/2000/svg" viewBox="0 0 300.22 288.82"><defs><style>.cls-1{fill:#1d1d1b;}</style></defs><g id="Layer_2" data-name="Layer 2"><g id="Layer_1-2" data-name="Layer 1"><polygon class="cls-1" points="109.23 141.14 90.6 141.14 73.85 159.66 63.01 171.59 81.51 171.7 109.23 141.14"/><path class="cls-1" d="M297.2,169.7a16.37,16.37,0,0,0-7.1-6.2q-4.71-2.28-12.41-2.28H246.62l-2.08,15.61h26.61c5.73,0,9.24,1.41,11.3,3.57,4,4.2,1.49,11.75,1,13.76s-1.07,4.12-1.74,6.35h-56L231,160.78H215.38L208,216.12h84.89q1.17-3.68,2.29-7.59c.77-2.59,1.43-5.13,2-7.63s3.88-14.08,2.76-22A23.66,23.66,0,0,0,297.2,169.7Z"/><polygon class="cls-1" points="216.07 200.51 186.27 200.51 184.19 216.13 216.07 216.13 216.07 200.51"/><path class="cls-1" d="M193.24,169.69a16.44,16.44,0,0,0-7.09-6.19q-4.71-2.28-12.41-2.28H154l-2.08,15.61H167.2q8.58,0,11.29,3.57t1.78,10.49a50.89,50.89,0,0,1-1.07,5.57,25.9,25.9,0,0,1-1.43,4H145.25l-2.08,15.62H189c.77-2.46,1.54-5,2.29-7.59s2.84-10.18,3.33-12.41.84-4.2,1.06-5.91a54.07,54.07,0,0,0,.4-11.32A20.52,20.52,0,0,0,193.24,169.69Z"/><path class="cls-1" d="M130,180.18a16.4,16.4,0,0,0-7.1-6.19q-4.71-2.3-12.41-2.29H81.74l-2.08,15.62h24.26q8.6,0,11.3,3.57c1.68,2.22,2.3,5.44,1.87,9.62H51.85l5.53-41.59H30.46a33.07,33.07,0,0,0-13,2.28,23.91,23.91,0,0,0-8.73,6.19,27,27,0,0,0-5.25,9.2A58.61,58.61,0,0,0,.84,187.91q-.34,2.57-.5,5.91c-.12,2.23-.21,4.59-.29,7.08s-.07,5,0,7.63.16,5.14.27,7.59H34.15l-2.65,20H32l17.73-20h79.46l.44-3.29h.22c.5-2.16,1-4.26,1.41-6.21.49-2.24.84-4.21,1.07-5.92a54.7,54.7,0,0,0,.39-11.32A20.35,20.35,0,0,0,130,180.18ZM15.67,200.51c-.07-2.23-.09-4.36,0-6.35a49.42,49.42,0,0,1,.4-5.58q.91-6.93,4.58-10.49c2.43-2.38,6.52-3.57,12.23-3.57h6.85l-3.46,26H15.67Z"/><polygon class="cls-1" points="265.34 236.08 280.96 236.08 282.92 221.33 267.31 221.33 265.34 236.08"/><polygon class="cls-1" points="219.39 236.08 235 236.08 236.97 221.33 221.35 221.33 219.39 236.08"/><polygon class="cls-1" points="198.42 236.08 214.03 236.08 216 221.33 200.38 221.33 198.42 236.08"/><polygon class="cls-1" points="14.1 57.93 76.38 112.97 114.44 112.97 52.17 57.93 102.48 0 64.41 0 14.1 57.93"/><polygon class="cls-1" points="79.48 57.93 141.75 112.97 179.82 112.97 117.55 57.93 167.86 0 129.79 0 79.48 57.93"/><polygon class="cls-1" points="211.37 6.71 92.68 6.71 91.8 0 210.49 0 211.37 6.71"/><polygon class="cls-1" points="225.32 112.97 106.63 112.97 105.75 106.26 224.44 106.26 225.32 112.97"/><polygon class="cls-1" points="183.97 56.49 184.84 63.19 234.06 63.19 233.18 56.49 183.97 56.49"/><polygon class="cls-1" points="249.85 63.2 242.4 63.2 241.51 56.49 248.97 56.49 249.85 63.2"/><polygon class="cls-1" points="271.2 63.2 261.05 63.2 260.17 56.49 270.32 56.49 271.2 63.2"/><polygon class="cls-1" points="225.98 6.71 218.53 6.71 217.65 0 225.1 0 225.98 6.71"/><polygon class="cls-1" points="241.36 6.71 231.21 6.71 230.33 0 240.48 0 241.36 6.71"/><polygon class="cls-1" points="239.93 112.97 232.48 112.97 231.6 106.26 239.05 106.26 239.93 112.97"/><polygon class="cls-1" points="255.32 112.97 245.16 112.97 244.28 106.26 254.43 106.26 255.32 112.97"/><polygon class="cls-1" points="286.12 63.2 275.97 63.2 275.08 56.49 285.24 56.49 286.12 63.2"/><polygon class="cls-1" points="256.28 6.71 246.13 6.71 245.25 0 255.4 0 256.28 6.71"/><polygon class="cls-1" points="270.24 112.97 260.08 112.97 259.2 106.26 269.35 106.26 270.24 112.97"/><path class="cls-1" d="M176.89,266.92h.78l.38-3.67-1,.08c-.65.05-1.7.18-3.21.39l-.39.06a.8.8,0,0,1-.27-.79c.09-.86.44-1.18,1.31-1.18a3.61,3.61,0,0,1,1.5.38l.81.38,1.41-3.27-.72-.37a6.09,6.09,0,0,0-2.85-.68,5.49,5.49,0,0,0-3.43,1.09,4.37,4.37,0,0,0-1.68,3.13,3.57,3.57,0,0,0,.3,1.85l-.95.13-.37,3.57,1.13-.2A47.85,47.85,0,0,1,176.89,266.92Z"/><path class="cls-1" d="M199.14,257.7a3.31,3.31,0,0,0,2.47-5.21,2.57,2.57,0,0,0-2-.78,2.92,2.92,0,0,0-3.07,2.91,2.82,2.82,0,0,0,.58,2.3A2.6,2.6,0,0,0,199.14,257.7Z"/><path class="cls-1" d="M193.3,257.7a3.31,3.31,0,0,0,2.49-5.21,2.63,2.63,0,0,0-2-.78,2.92,2.92,0,0,0-3.06,2.91,2.88,2.88,0,0,0,.58,2.31A2.62,2.62,0,0,0,193.3,257.7Z"/><path class="cls-1" d="M247.65,280.75a2.88,2.88,0,0,0-3.05,2.91,2.82,2.82,0,0,0,.58,2.3,2.57,2.57,0,0,0,2,.78,3.32,3.32,0,0,0,2.47-5.22A2.6,2.6,0,0,0,247.65,280.75Z"/><path class="cls-1" d="M257.15,267.94c-.17-3.25-.88-5.49-2.18-6.83h0a7.5,7.5,0,0,0-5.62-2,14.4,14.4,0,0,0-7.52,2l-.63.38,1.66,4.18.84-.41a12.23,12.23,0,0,1,5.3-1.44,2.64,2.64,0,0,1,2.33.92c.35.49.81,1.62,1,4.2a20.53,20.53,0,0,0,1.07,6h-14.9a2.63,2.63,0,0,1-2-.71,2.36,2.36,0,0,1-.52-2l1.34-12.8h-5L230.7,275h-1.58a2.78,2.78,0,0,1-2.21-.88,2.93,2.93,0,0,1-.63-2.38l1-9.27h-5L221,275h-1.58a2.78,2.78,0,0,1-2.21-.88,2.93,2.93,0,0,1-.63-2.38l1-9.27h-5L211.22,275H200a2.61,2.61,0,0,1-2-.71,2.35,2.35,0,0,1-.52-2l1.34-12.8h-5.12L192.05,275h-4.28a2.26,2.26,0,0,1-2-.8,3,3,0,0,1-.52-2.08l2-18.9,2.49,0,.43-4.23-7.46,0L180,275H167.11a2.07,2.07,0,0,1-1.86-1,3.93,3.93,0,0,1-.56-2.76A27.23,27.23,0,0,1,165.8,266l.35-1.13h-4.6l-.23.52a19.16,19.16,0,0,0-1.62,6,7.63,7.63,0,0,0,1.57,6.05,7.11,7.11,0,0,0,5.63,2.28h17.57l.13-1.27a4.12,4.12,0,0,0,1.78,1.07l0,.2h10.33l.1-.89a5.79,5.79,0,0,0,3.4.89H215.7l.09-.87a5.94,5.94,0,0,0,3.39.87h6.26l.09-.87a5.94,5.94,0,0,0,3.39.87h6.26l.09-.9a5.11,5.11,0,0,0,1.8.72l0,.18h21.74l.43-4.08-.3-.3C258.25,274.62,257.39,272.79,257.15,267.94Z"/><path class="cls-1" d="M290.36,249,287.63,275h-8.91l1.63-15.48h-6A12.72,12.72,0,0,0,266,262.3a11.21,11.21,0,0,0-3.92,7.74c-.32,3,.27,5.42,1.76,7.1s3.74,2.53,6.68,2.53h2.76l0,.14A4.49,4.49,0,0,1,271.7,283a5.39,5.39,0,0,1-3.62,1.16,10.19,10.19,0,0,1-4.81-1.42l-.68-.37-2.74,3.9.72.49a12.26,12.26,0,0,0,7.13,2.11,10.82,10.82,0,0,0,7.28-2.39,9.76,9.76,0,0,0,3.24-6.62v-.14h14l2.79-26.49,2.35,0,.43-4.23ZM269.3,265.76a7.2,7.2,0,0,1,4.91-1.59h.67L273.74,275H271a3.91,3.91,0,0,1-3-1c-.68-.76-.93-2-.75-3.78A6.47,6.47,0,0,1,269.3,265.76Z"/><polygon class="cls-1" points="10.59 250.25 7.69 250.25 7.69 250.25 2.63 250.25 2.39 254.34 5.03 254.32 2.52 278.21 18.86 278.21 19.34 273.63 8.13 273.63 10.59 250.25"/><path class="cls-1" d="M35.08,257.21c-6,0-10.58,4.44-11.25,10.78A9.87,9.87,0,0,0,26,275.86a8.8,8.8,0,0,0,6.68,2.78c5.06,0,10.51-3.33,11.29-10.78A10,10,0,0,0,41.82,260,8.77,8.77,0,0,0,35.08,257.21Zm3.67,10.59c-.39,3.72-2.8,6.54-5.62,6.54a3.71,3.71,0,0,1-2.82-1.23A6.57,6.57,0,0,1,29,268.06c.34-3.26,2.24-6.54,5.7-6.54a3.51,3.51,0,0,1,2.75,1.14A6.94,6.94,0,0,1,38.75,267.8Z"/><path class="cls-1" d="M64.57,259.14a6.79,6.79,0,0,0-5.09-1.93c-4.6,0-9.65,3.71-10.39,10.78a9.72,9.72,0,0,0,2.15,7.66A7.49,7.49,0,0,0,57,278.13a8.65,8.65,0,0,0,5.28-1.71c-.47,3.65-2.44,5.5-5.86,5.5a8.88,8.88,0,0,1-4.89-1.33l-.86-.58-1.82,4.21.57.4a12,12,0,0,0,6.6,1.72,11.83,11.83,0,0,0,7.64-2.45c2.22-1.81,3.42-4.65,3.9-9.18l1.15-10.93c.23-2.25.46-3.71.69-5.13l.16-1H64.81Zm-1.21,6.71L63,269.24a5.57,5.57,0,0,1-.39,1.56,4.83,4.83,0,0,1-4.32,3,3.72,3.72,0,0,1-2.89-1.15A6,6,0,0,1,54.3,268c.39-3.8,2.6-6.34,5.48-6.34a3.45,3.45,0,0,1,3.56,2.94A3.93,3.93,0,0,1,63.36,265.85Z"/><polygon class="cls-1" points="74.79 278.21 79.95 278.21 82.11 257.64 76.94 257.64 74.79 278.21"/><path class="cls-1" d="M80.22,250.21A3.25,3.25,0,0,0,77,253.13a2.77,2.77,0,0,0,.67,2.19,2.69,2.69,0,0,0,2,.87A3.15,3.15,0,0,0,83,253.3a2.84,2.84,0,0,0-.66-2.22A2.75,2.75,0,0,0,80.22,250.21Z"/><path class="cls-1" d="M96.14,261.52a5.91,5.91,0,0,1,3.25.94l.86.58,1.85-4.12-.64-.4a9.52,9.52,0,0,0-5-1.31c-4.29,0-7.55,2.6-7.94,6.31-.2,1.92.5,4.57,5,6.23,2.55,1,2.68,1.68,2.59,2.56-.14,1.27-1.29,2-3.09,2a7.28,7.28,0,0,1-3.87-1.21l-.88-.61-1.84,4.27.63.39a10.85,10.85,0,0,0,5.61,1.42c4.76,0,8.09-2.52,8.5-6.42s-2.39-5.59-4.89-6.58-2.78-1.49-2.7-2.29C93.69,262.24,94.72,261.52,96.14,261.52Z"/><path class="cls-1" d="M115.71,252l-5.23,1.36-.46,4.33H107.1l-.45,4.34h2.92l-1,9.32c-.28,2.66,0,4.42,1,5.52a5.11,5.11,0,0,0,4.24,1.78,9.71,9.71,0,0,0,3.4-.53l.52-.2.19-4.32-1.14.31a7.18,7.18,0,0,1-1.79.2c-.72,0-.94-.24-1-.32-.23-.25-.47-.87-.31-2.38l1-9.38h4.9l.46-4.34h-4.91Z"/><polygon class="cls-1" points="123.86 278.21 129.03 278.21 131.18 257.64 126.02 257.64 123.86 278.21"/><path class="cls-1" d="M129.29,250.21a3.25,3.25,0,0,0-3.23,2.92,2.77,2.77,0,0,0,.67,2.19,2.69,2.69,0,0,0,2,.87A3.15,3.15,0,0,0,132,253.3a2.84,2.84,0,0,0-.66-2.22A2.75,2.75,0,0,0,129.29,250.21Z"/><path class="cls-1" d="M148.3,261.71a6.54,6.54,0,0,1,3.43.77l.87.53,1.73-4.32-.69-.36a11.43,11.43,0,0,0-5-1.08,11.77,11.77,0,0,0-12,10.78,9.74,9.74,0,0,0,2.13,7.74,9.24,9.24,0,0,0,7.1,2.83,14.45,14.45,0,0,0,5.91-1.18l.55-.27-.53-4.32-1.06.44a9.49,9.49,0,0,1-4,.87,4.86,4.86,0,0,1-3.74-1.5,5.77,5.77,0,0,1-1.2-4.58C142.17,264.2,144.74,261.71,148.3,261.71Z"/></g></g></svg>