<svg xmlns="http://www.w3.org/2000/svg" viewBox="0 0 36.94 53.56"><defs><style>.cls-1{fill:none;stroke:#1d1d1b;stroke-miterlimit:10;}</style></defs><g id="Layer_2" data-name="Layer 2"><g id="Layer_1-2" data-name="Layer 1"><path class="cls-1" d="M18.47,34.86a4,4,0,0,1-4-4V13.33c0-1.46-.19-3.13.68-4.43a4,4,0,0,1,3.3-1.76,4,4,0,0,1,4,4V30.88A4,4,0,0,1,18.47,34.86Z"/><path class="cls-1" d="M26.43,2.29V16.37c0,3.25.95,9.66-4,9.66a4,4,0,0,1-4-4V2.29"/><circle class="cls-1" cx="22.5" cy="1.65" r="1.15"/><path class="cls-1" d="M14.49,30.88V11.25a4,4,0,0,1,8-.13q0,7.46,0,14.91A3.28,3.28,0,0,0,24,25.81a3.78,3.78,0,0,0,1.85-2.12,7,7,0,0,0,.55-2.83c.1-2.12.06-3.17.06-4.56V6.45c0-1.35-.08-2.53-.08-4.22"/><path d="M0,46.4H.25a1.43,1.43,0,0,0,.38,0,.5.5,0,0,0,.26-.16A.88.88,0,0,0,1,45.85a3,3,0,0,0,.05-.58V42H2.26v3.29a3.76,3.76,0,0,1-.12,1,1.52,1.52,0,0,1-.36.69,1.47,1.47,0,0,1-.61.38,3,3,0,0,1-.89.12H0Z"/><path d="M6.48,44.46a1.27,1.27,0,0,1-.08.44,1.1,1.1,0,0,1-.23.37,1.22,1.22,0,0,1-.4.24,1.64,1.64,0,0,1-.58.09H3v-1H4.77a1,1,0,0,0,.33,0,.16.16,0,0,0,.12-.15s0-.07,0-.11l-.07-.15L5,43.87l-.28-.41L4,42.39l1.06-.68L5.84,43c.11.17.2.33.28.47a3.64,3.64,0,0,1,.2.39,3.43,3.43,0,0,1,.12.33A1.55,1.55,0,0,1,6.48,44.46Z"/><path d="M9.57,45.06a.78.78,0,0,1-.08.43.34.34,0,0,1-.27.11H8.84a2.49,2.49,0,0,1-.57-.06,1.16,1.16,0,0,1-.44-.23,1,1,0,0,1-.29-.42,1.74,1.74,0,0,1-.1-.65V39.47H8.62v4.61a.85.85,0,0,0,0,.25.35.35,0,0,0,.08.15.31.31,0,0,0,.14.07l.19,0h.3a.24.24,0,0,1,.11.06.35.35,0,0,1,.07.15A.91.91,0,0,1,9.57,45.06Z"/><path d="M9.21,45.6H9.08A.27.27,0,0,1,9,45.53a.42.42,0,0,1-.07-.15,1,1,0,0,1,0-.28A.7.7,0,0,1,9,44.68a.28.28,0,0,1,.26-.11h1.47a.27.27,0,0,1,.12.06.35.35,0,0,1,.08.15.91.91,0,0,1,0,.27.76.76,0,0,1-.09.43.31.31,0,0,1-.27.11Z"/><path d="M11.09,44.57l.26,0a.38.38,0,0,0,.17-.08.29.29,0,0,0,.1-.16,1.87,1.87,0,0,0,0-.27V42h1.19v1.94a1.23,1.23,0,0,0,0,.29.35.35,0,0,0,.12.19.49.49,0,0,0,.23.11,1.79,1.79,0,0,0,.36,0h.14a.24.24,0,0,1,.11.06.35.35,0,0,1,.07.15.91.91,0,0,1,0,.27.78.78,0,0,1-.08.43.34.34,0,0,1-.27.11h-.26l-.26-.07a1,1,0,0,1-.24-.14.83.83,0,0,1-.21-.24,1.06,1.06,0,0,1-.27.25,1.15,1.15,0,0,1-.32.14,1.93,1.93,0,0,1-.36.06H10.41a.24.24,0,0,1-.11-.06.42.42,0,0,1-.08-.15,1.91,1.91,0,0,1,0-.28.72.72,0,0,1,.08-.42.29.29,0,0,1,.27-.11Zm.56-4.09a.59.59,0,0,1,0-.23.8.8,0,0,1,.13-.19.64.64,0,0,1,.19-.13.65.65,0,0,1,.45,0,.59.59,0,0,1,.18.13.59.59,0,0,1,.13.19.59.59,0,0,1,.05.23.54.54,0,0,1-.05.22.43.43,0,0,1-.13.19.59.59,0,0,1-.18.13.54.54,0,0,1-.22,0A.56.56,0,0,1,12,41a.64.64,0,0,1-.19-.13.54.54,0,0,1-.17-.41Z"/><path d="M13.57,45.6h-.13a.27.27,0,0,1-.12-.06.42.42,0,0,1-.07-.15,1,1,0,0,1,0-.28.81.81,0,0,1,.08-.42.31.31,0,0,1,.27-.11H15l.12.06a.5.5,0,0,1,.08.15,1.65,1.65,0,0,1,0,.27.78.78,0,0,1-.08.43.32.32,0,0,1-.27.11Z"/><path d="M15.92,44.57v-5.1H17.1V45.6H14.77a.24.24,0,0,1-.11-.06.42.42,0,0,1-.08-.15,1,1,0,0,1,0-.28.7.7,0,0,1,.09-.42.29.29,0,0,1,.27-.11Z"/><path d="M19.36,39.47V45.6H18.18V39.47Z"/><path d="M22.46,46.4h.25a1.38,1.38,0,0,0,.38,0,.5.5,0,0,0,.26-.16.88.88,0,0,0,.14-.35,3,3,0,0,0,.05-.58V42h1.18v3.29a3.76,3.76,0,0,1-.12,1,1.52,1.52,0,0,1-.36.69,1.41,1.41,0,0,1-.61.38,3,3,0,0,1-.89.12h-.28Z"/><path d="M28.94,44.46a1.27,1.27,0,0,1-.08.44,1,1,0,0,1-.23.37,1.12,1.12,0,0,1-.4.24,1.62,1.62,0,0,1-.57.09H25.47v-1h1.77a.85.85,0,0,0,.32,0,.16.16,0,0,0,.12-.15.45.45,0,0,0,0-.11.93.93,0,0,0-.07-.15l-.16-.24-.28-.41-.71-1.07,1.06-.68L28.3,43c.11.17.2.33.28.47a3.64,3.64,0,0,1,.2.39,3.43,3.43,0,0,1,.12.33A1.55,1.55,0,0,1,28.94,44.46Z"/><path d="M32,45.06a.76.76,0,0,1-.09.43.34.34,0,0,1-.27.11H31.3a2.49,2.49,0,0,1-.57-.06,1.16,1.16,0,0,1-.44-.23,1,1,0,0,1-.29-.42,2,2,0,0,1-.1-.65V39.47h1.18v4.61a.85.85,0,0,0,0,.25.35.35,0,0,0,.08.15.31.31,0,0,0,.14.07l.19,0h.3a.24.24,0,0,1,.11.06.26.26,0,0,1,.07.15A.64.64,0,0,1,32,45.06Z"/><path d="M31.68,45.6h-.14a.24.24,0,0,1-.11-.06.42.42,0,0,1-.08-.15,1,1,0,0,1,0-.28.7.7,0,0,1,.09-.42.29.29,0,0,1,.27-.11h1.46a.23.23,0,0,1,.12.06.35.35,0,0,1,.08.15.91.91,0,0,1,0,.27.88.88,0,0,1-.08.43.35.35,0,0,1-.28.11Z"/><path d="M33,45.6h-.14a.24.24,0,0,1-.11-.06.3.3,0,0,1-.07-.15,1,1,0,0,1,0-.28.81.81,0,0,1,.08-.42.31.31,0,0,1,.27-.11h1.47a.24.24,0,0,1,.11.06.27.27,0,0,1,.08.15.91.91,0,0,1,0,.27.88.88,0,0,1-.08.43.35.35,0,0,1-.28.11Z"/><path d="M35.38,44.57V42h1.18v3.6H34.2a.24.24,0,0,1-.11-.06.42.42,0,0,1-.07-.15,1,1,0,0,1,0-.28.81.81,0,0,1,.08-.42.31.31,0,0,1,.27-.11Zm0-4.09a.59.59,0,0,1,0-.23.76.76,0,0,1,.12-.19.8.8,0,0,1,.19-.13.85.85,0,0,1,.23,0,.78.78,0,0,1,.22,0,.64.64,0,0,1,.19.13.76.76,0,0,1,.12.19.46.46,0,0,1,0,.23.42.42,0,0,1,0,.22.52.52,0,0,1-.12.19.64.64,0,0,1-.19.13.54.54,0,0,1-.22,0,.59.59,0,0,1-.23,0,.8.8,0,0,1-.19-.13.52.52,0,0,1-.12-.19A.54.54,0,0,1,35.38,40.48Z"/><path d="M1.4,50l1.48,2.37h0V50h.72v3.53H2.84L1.37,51.12h0v2.37H.63V50Z"/><path d="M5.4,50.86a1.45,1.45,0,0,1,.84.19.58.58,0,0,1,.28.52V53a21251517001001.34,21251517001001.34,0,0,1,0,.3.87.87,0,0,0,.07.24H5.9a1,1,0,0,1-.05-.25,1,1,0,0,1-.37.24,1.48,1.48,0,0,1-.49.08,1,1,0,0,1-.64-.2.72.72,0,0,1-.23-.57.68.68,0,0,1,.22-.55A1.6,1.6,0,0,1,5.15,52a2.27,2.27,0,0,0,.34-.05.72.72,0,0,0,.2,0,.23.23,0,0,0,.13-.22.4.4,0,0,0,0-.15.18.18,0,0,0-.07-.1.46.46,0,0,0-.14-.07l-.21,0a.55.55,0,0,0-.34.09.39.39,0,0,0-.13.3H4.19a.8.8,0,0,1,.35-.64A1.46,1.46,0,0,1,5.4,50.86Zm-.58,1.9a.3.3,0,0,0,.1.24.5.5,0,0,0,.33.09.58.58,0,0,0,.43-.15.62.62,0,0,0,.14-.43v-.27a.38.38,0,0,1-.17.07l-.14,0-.23,0a.68.68,0,0,0-.35.12A.3.3,0,0,0,4.82,52.76Z"/><path d="M9.56,50v3.53H8.89v-.33h0a.75.75,0,0,1-.31.3,1,1,0,0,1-.46.1,1,1,0,0,1-.84-.39,1.48,1.48,0,0,1-.31-1,1.41,1.41,0,0,1,.31-.95,1,1,0,0,1,.82-.38.92.92,0,0,1,.44.1.79.79,0,0,1,.32.28h0V50Zm-1.9,2.25a1,1,0,0,0,.17.59.53.53,0,0,0,.45.23.52.52,0,0,0,.45-.22,1.27,1.27,0,0,0,0-1.2.5.5,0,0,0-.45-.22.53.53,0,0,0-.46.22A1,1,0,0,0,7.66,52.21Z"/><path d="M11.27,50.86a1.15,1.15,0,0,1,.91.39,1.44,1.44,0,0,1,.34,1v.13H10.67a.73.73,0,0,0,.17.49.59.59,0,0,0,.45.16.65.65,0,0,0,.36-.1.4.4,0,0,0,.2-.23h.62a1.24,1.24,0,0,1-.44.65,1.42,1.42,0,0,1-1.71-.17,1.32,1.32,0,0,1-.35-1,1.36,1.36,0,0,1,.36-1A1.24,1.24,0,0,1,11.27,50.86Zm.54,1.07a.74.74,0,0,0-.18-.41.52.52,0,0,0-.38-.13.6.6,0,0,0-.41.14.59.59,0,0,0-.17.4Z"/><path d="M14.42,50.86a.35.35,0,0,1,.16,0v.65l-.12,0h-.13a.66.66,0,0,0-.53.22.93.93,0,0,0-.17.58v1.18h-.7V50.93h.67v.48h0a.94.94,0,0,1,.33-.4A.85.85,0,0,1,14.42,50.86Z"/><path d="M18.07,50l1.32,3.53h-.81l-.26-.79H17l-.28.79h-.79L17.27,50Zm-.41.87-.46,1.29h.92l-.45-1.29Z"/><path d="M20.35,50v3.53h-.71V50Z"/><path d="M22.38,51.84v.6H20.9v-.6Z"/><path d="M23.76,50l1.48,2.37h0V50H26v3.53H25.2l-1.47-2.37h0v2.37H23V50Z"/><path d="M27.76,50.86a1.51,1.51,0,0,1,.85.19.59.59,0,0,1,.27.52V53a.76.76,0,0,0,0,.15s0,.1,0,.15a.87.87,0,0,0,.07.24h-.71a1,1,0,0,1-.05-.25,1,1,0,0,1-.37.24,1.48,1.48,0,0,1-.49.08,1,1,0,0,1-.64-.2.72.72,0,0,1-.23-.57.68.68,0,0,1,.22-.55,1.6,1.6,0,0,1,.81-.25,2.27,2.27,0,0,0,.34-.05.72.72,0,0,0,.2,0,.21.21,0,0,0,.13-.22.77.77,0,0,0,0-.15.2.2,0,0,0-.08-.1.46.46,0,0,0-.14-.07l-.21,0a.55.55,0,0,0-.34.09.42.42,0,0,0-.13.3h-.71a.8.8,0,0,1,.35-.64A1.46,1.46,0,0,1,27.76,50.86Zm-.58,1.9a.3.3,0,0,0,.1.24.5.5,0,0,0,.33.09.58.58,0,0,0,.43-.15.62.62,0,0,0,.14-.43v-.27a.38.38,0,0,1-.17.07l-.14,0-.23,0a.68.68,0,0,0-.35.12A.33.33,0,0,0,27.18,52.76Z"/><path d="M31.92,50v3.53h-.67v-.33h0a.75.75,0,0,1-.31.3,1,1,0,0,1-.46.1,1,1,0,0,1-.84-.39,1.48,1.48,0,0,1-.31-1,1.41,1.41,0,0,1,.31-.95,1,1,0,0,1,.82-.38.92.92,0,0,1,.44.1.79.79,0,0,1,.32.28h0V50ZM30,52.21a1,1,0,0,0,.17.59.53.53,0,0,0,.45.23.52.52,0,0,0,.45-.22,1.27,1.27,0,0,0,0-1.2.5.5,0,0,0-.45-.22.53.53,0,0,0-.46.22A1,1,0,0,0,30,52.21Z"/><path d="M33.63,50.86a1.15,1.15,0,0,1,.91.39,1.44,1.44,0,0,1,.34,1v.13H33a.73.73,0,0,0,.17.49.61.61,0,0,0,.46.16.64.64,0,0,0,.35-.1.37.37,0,0,0,.2-.23h.62a1.24,1.24,0,0,1-.44.65,1.42,1.42,0,0,1-1.71-.17,1.49,1.49,0,0,1,0-1.93A1.24,1.24,0,0,1,33.63,50.86Zm.54,1.07a.74.74,0,0,0-.18-.41.5.5,0,0,0-.38-.13.6.6,0,0,0-.41.14.64.64,0,0,0-.17.4Z"/><path d="M36.78,50.86a.35.35,0,0,1,.16,0v.65l-.12,0h-.13a.66.66,0,0,0-.53.22.93.93,0,0,0-.17.58v1.18h-.7V50.93H36v.48h0a.94.94,0,0,1,.33-.4A.85.85,0,0,1,36.78,50.86Z"/></g></g></svg>