<?xml version="1.0" standalone="no"?>
<!DOCTYPE svg PUBLIC "-//W3C//DTD SVG 20010904//EN"
 "http://www.w3.org/TR/2001/REC-SVG-20010904/DTD/svg10.dtd">
<svg version="1.0" xmlns="http://www.w3.org/2000/svg"
 width="353.000000pt" height="378.000000pt" viewBox="0 0 353.000000 378.000000"
 preserveAspectRatio="xMidYMid meet">

<g transform="translate(0.000000,378.000000) scale(0.100000,-0.100000)"
fill="#000000" stroke="none">
<path d="M1705 3600 l-180 -180 -39 26 c-84 57 -134 67 -353 72 l-203 4 -2
-263 -3 -262 -50 -12 c-90 -20 -154 -64 -298 -204 l-138 -135 181 -181 180
-181 -37 -73 -38 -74 -3 -218 -4 -219 265 0 264 0 7 -38 c13 -85 65 -162 205
-305 l135 -138 181 181 181 180 73 -37 74 -38 218 -3 219 -4 0 260 0 259 41 7
c90 14 148 53 297 200 l142 141 -180 187 -181 187 25 38 c44 68 55 132 58 343
l3 195 -256 3 -257 2 -6 33 c-15 80 -56 138 -193 280 -76 78 -140 143 -143
145 -3 1 -86 -79 -185 -178z m308 1 c111 -116 155 -181 171 -253 l6 -28 -175
0 -175 0 0 -197 c0 -111 5 -215 11 -237 8 -31 8 -41 -3 -47 -18 -12 -126 -11
-171 2 -37 10 -38 12 -30 42 4 18 8 104 8 192 0 173 -5 194 -72 284 l-26 33
164 164 c90 90 167 164 170 164 4 0 58 -54 122 -119z m-630 -150 c32 -13 70
-33 84 -45 l25 -22 -126 -120 -125 -121 142 -140 c78 -77 152 -146 165 -152
12 -6 22 -16 22 -21 0 -26 -126 -140 -154 -140 -6 0 -20 15 -30 34 -10 19 -60
75 -111 125 -100 99 -162 134 -252 146 l-53 7 0 240 0 240 178 -4 c155 -4 184
-7 235 -27z m206 -191 c21 -46 26 -73 29 -164 5 -119 -10 -216 -33 -216 -25 0
-139 102 -227 203 l-51 58 109 110 109 110 19 -23 c10 -13 30 -48 45 -78z
m607 6 c8 -21 -15 -124 -37 -169 -36 -70 -212 -237 -250 -237 -19 0 -29 87
-29 248 l0 172 155 0 c126 0 157 -3 161 -14z m393 4 l124 0 -5 -172 c-5 -179
-17 -234 -63 -305 l-17 -26 -122 122 -122 121 -139 -142 c-77 -79 -149 -156
-160 -171 l-20 -29 -42 31 c-39 28 -102 107 -92 115 2 1 24 17 49 33 25 17 80
67 123 111 91 94 127 163 135 260 l5 65 111 -7 c61 -3 167 -6 235 -6z m-1476
-348 c51 -23 175 -136 219 -200 23 -33 27 -47 19 -55 -8 -8 -74 -13 -196 -15
l-185 -4 0 155 0 154 50 -8 c27 -4 69 -16 93 -27z m-183 -142 l0 -170 188 0
c103 0 204 4 225 9 34 8 38 7 43 -16 8 -28 0 -180 -9 -189 -3 -4 -20 -1 -38 5
-18 6 -94 11 -173 11 -125 0 -148 -3 -198 -24 -31 -13 -75 -38 -98 -56 l-42
-33 -164 164 -164 164 113 113 c115 117 167 155 240 177 82 26 77 36 77 -155z
m1630 -81 c-67 -57 -128 -71 -285 -67 -77 1 -146 7 -152 11 -23 14 14 66 136
190 l115 118 111 -111 110 -111 -35 -30z m-778 96 l106 0 18 -33 c17 -33 94
-110 127 -128 16 -9 17 -15 6 -57 -6 -27 -10 -84 -7 -131 l4 -83 -43 -23 c-41
-22 -109 -86 -130 -124 -9 -16 -16 -16 -77 -5 -63 10 -120 9 -179 -7 -20 -4
-26 0 -37 26 -14 33 -102 131 -134 147 -17 9 -17 15 -6 82 10 63 8 138 -6 175
-2 6 16 22 41 35 25 13 69 50 98 82 47 53 55 57 82 51 17 -4 78 -7 137 -7z
m1063 -551 c-120 -115 -194 -163 -272 -179 l-33 -7 0 171 0 171 -198 0 c-108
0 -212 -4 -229 -9 l-32 -9 -7 45 c-6 43 0 136 11 166 5 12 13 12 58 0 37 -10
90 -13 179 -10 118 3 131 6 190 35 35 17 75 43 88 57 l24 26 171 -171 170
-172 -120 -114z m-1535 135 l50 -11 -21 -38 c-12 -21 -74 -90 -138 -154 l-116
-116 -110 110 -109 109 24 27 c29 30 68 52 125 70 50 16 227 18 295 3z m1190
-165 l0 -157 -54 6 c-29 3 -75 16 -102 30 -69 35 -260 234 -242 252 12 12 124
23 251 24 l147 1 0 -156z m-1033 77 c27 -28 55 -62 63 -76 14 -26 13 -28 -15
-48 -17 -12 -70 -59 -118 -106 -99 -96 -132 -153 -149 -255 l-11 -66 -243 0
-244 0 0 118 c1 172 13 250 49 328 l32 68 127 -127 128 -128 135 138 c75 76
144 153 153 171 9 17 23 32 30 32 7 0 35 -22 63 -49z m733 -145 c82 -77 163
-120 245 -131 l55 -6 -2 -237 -3 -237 -170 3 c-178 3 -259 18 -313 60 l-23 18
126 123 126 124 -123 124 c-68 68 -144 138 -170 155 -27 17 -48 36 -48 41 0
21 53 79 102 112 l51 34 37 -57 c20 -31 70 -88 110 -126z m-407 19 c31 -5 37
-10 32 -23 -4 -9 -11 -66 -16 -126 -16 -173 10 -284 87 -375 l27 -33 -164
-164 -164 -165 -121 123 c-121 123 -161 183 -179 266 l-7 33 166 -3 166 -3 0
200 c0 110 -4 215 -9 232 -9 32 -9 33 27 38 20 4 44 8 52 10 15 3 37 1 103
-10z m-213 -101 c6 -32 10 -119 10 -191 l0 -133 -151 0 -151 0 4 53 c2 29 15
75 28 101 39 82 221 259 243 237 4 -4 12 -34 17 -67z m484 -83 l116 -116 -113
-113 -114 -113 -28 37 c-56 74 -75 137 -75 262 0 62 5 133 11 158 l11 44 38
-21 c21 -12 90 -74 154 -138z"/>
<path d="M1620 2736 c0 -7 13 -16 29 -19 18 -4 31 -14 35 -29 10 -37 7 -344
-4 -372 -5 -14 -20 -28 -35 -32 -56 -14 -19 -24 90 -24 110 0 148 11 85 25
-19 4 -32 14 -35 28 -3 12 -4 105 -3 207 l3 185 33 10 c17 5 32 15 32 22 0 10
-28 13 -115 13 -91 0 -115 -3 -115 -14z m94 -32 c10 -26 7 -402 -4 -409 -6 -3
-10 75 -12 210 -3 200 0 240 16 199z"/>
<path d="M1287 980 c-91 -23 -178 -95 -218 -179 -31 -65 -37 -181 -13 -258 25
-80 114 -172 194 -198 68 -23 169 -24 237 -1 45 15 134 78 133 94 -1 4 -18 26
-39 49 l-39 43 -58 -35 c-111 -67 -220 -40 -276 69 -30 59 -23 160 16 210 46
61 81 78 156 74 53 -3 73 -9 109 -34 l45 -31 43 50 c24 28 43 54 43 58 0 12
-78 61 -122 76 -54 19 -162 25 -211 13z"/>
<path d="M0 660 l0 -320 70 0 70 0 0 100 0 100 55 0 55 0 66 -100 67 -100 84
0 84 0 -76 111 c-41 62 -74 113 -73 113 54 29 93 64 109 99 25 57 25 148 -1
202 -43 90 -121 115 -352 115 l-158 0 0 -320z m330 177 c63 -22 78 -90 31
-138 -28 -28 -33 -29 -125 -29 l-96 0 0 90 0 90 78 -1 c42 0 93 -5 112 -12z"/>
<path d="M720 660 l0 -320 70 0 70 0 0 320 0 320 -70 0 -70 0 0 -320z"/>
<path d="M1827 974 c-4 -4 -7 -148 -7 -321 l0 -313 75 0 75 0 0 125 0 125 125
0 125 0 0 -125 0 -125 70 0 70 0 0 320 0 320 -70 0 -70 0 0 -125 0 -125 -125
0 -124 0 -3 123 -3 122 -65 3 c-36 2 -69 0 -73 -4z"/>
<path d="M2640 660 l0 -320 70 0 70 0 0 320 0 320 -70 0 -70 0 0 -320z"/>
<path d="M3040 660 l0 -320 245 0 245 0 0 60 0 60 -175 0 -175 0 0 65 0 65
150 0 150 0 0 65 0 65 -150 0 -150 0 0 65 0 65 170 0 170 0 0 65 0 65 -240 0
-240 0 0 -320z"/>
<path d="M984 95 c0 -55 1 -76 3 -47 2 29 2 74 0 100 -2 26 -3 2 -3 -53z"/>
<path d="M2124 95 c0 -55 1 -76 3 -47 2 29 2 74 0 100 -2 26 -3 2 -3 -53z"/>
<path d="M350 115 l0 -65 35 0 c22 0 43 8 55 20 43 43 10 110 -55 110 l-35 0
0 -65z m68 39 c39 -27 27 -72 -25 -88 -22 -7 -23 -5 -23 42 0 65 9 74 48 46z"/>
<path d="M470 115 l0 -65 35 0 c19 0 35 5 35 10 0 6 -11 10 -25 10 -16 0 -25
6 -25 15 0 9 9 15 25 15 14 0 25 5 25 10 0 6 -11 10 -25 10 -18 0 -25 5 -25
20 0 15 7 20 25 20 14 0 25 5 25 10 0 6 -16 10 -35 10 l-35 0 0 -65z"/>
<path d="M570 165 c-16 -20 -6 -43 25 -55 36 -14 33 -40 -6 -40 -17 0 -28 -4
-24 -10 9 -15 51 -12 65 5 16 20 6 43 -25 57 -32 15 -33 38 0 38 14 0 25 5 25
10 0 16 -46 12 -60 -5z"/>
<path d="M660 115 c0 -37 4 -65 10 -65 6 0 10 28 10 65 0 37 -4 65 -10 65 -6
0 -10 -28 -10 -65z"/>
<path d="M711 154 c-26 -34 -27 -58 0 -85 14 -14 30 -19 52 -17 27 2 33 8 35
31 3 24 0 27 -25 26 -17 -1 -21 -3 -10 -6 25 -7 21 -33 -6 -33 -29 0 -47 18
-47 45 0 29 19 45 52 45 15 0 28 5 28 10 0 22 -59 10 -79 -16z"/>
<path d="M820 115 c0 -37 4 -65 10 -65 6 0 10 21 10 48 l0 47 30 -47 c17 -27
35 -48 40 -48 6 0 10 28 10 65 0 37 -4 65 -10 65 -5 0 -10 -21 -10 -47 l0 -48
-31 48 c-17 26 -35 47 -40 47 -5 0 -9 -29 -9 -65z"/>
<path d="M1080 160 c-40 -40 -11 -110 45 -110 14 0 25 5 25 10 0 6 -10 10 -23
10 -29 0 -47 18 -47 45 0 27 18 45 47 45 13 0 23 5 23 10 0 18 -49 11 -70 -10z"/>
<path d="M1180 160 c-24 -24 -26 -57 -4 -88 30 -43 104 -13 104 43 0 30 -32
65 -60 65 -11 0 -29 -9 -40 -20z m76 -24 c10 -41 -4 -66 -36 -66 -32 0 -46 25
-36 66 9 35 63 35 72 0z"/>
<path d="M1290 115 c0 -75 17 -89 22 -17 l3 47 28 -47 c15 -27 32 -48 37 -48
6 0 10 29 10 65 0 37 -4 65 -10 65 -5 0 -10 -21 -10 -47 l0 -47 -30 47 c-16
26 -34 47 -40 47 -6 0 -10 -27 -10 -65z"/>
<path d="M1420 165 c-16 -20 -6 -43 25 -55 36 -14 33 -40 -6 -40 -17 0 -28 -4
-24 -10 9 -15 51 -12 65 5 16 20 6 43 -25 57 -32 15 -33 38 0 38 14 0 25 5 25
10 0 16 -46 12 -60 -5z"/>
<path d="M1510 134 c0 -25 5 -54 10 -65 14 -25 56 -25 70 0 13 25 13 111 0
111 -5 0 -10 -22 -10 -48 0 -53 -15 -78 -37 -61 -7 7 -13 32 -13 60 0 27 -4
49 -10 49 -5 0 -10 -21 -10 -46z"/>
<path d="M1620 115 l0 -65 35 0 c19 0 35 5 35 10 0 6 -11 10 -25 10 -24 0 -25
3 -25 55 0 30 -4 55 -10 55 -6 0 -10 -28 -10 -65z"/>
<path d="M1685 170 c3 -5 13 -10 21 -10 10 0 14 -14 14 -55 0 -30 5 -55 10
-55 6 0 10 25 10 55 0 41 4 55 14 55 8 0 18 5 21 10 4 6 -13 10 -45 10 -32 0
-49 -4 -45 -10z"/>
<path d="M1790 115 c0 -37 4 -65 10 -65 6 0 10 28 10 65 0 37 -4 65 -10 65 -6
0 -10 -28 -10 -65z"/>
<path d="M1830 115 c0 -37 4 -65 10 -65 6 0 10 21 10 48 l0 47 30 -47 c17 -27
35 -48 40 -48 6 0 10 28 10 65 0 37 -4 65 -10 65 -5 0 -10 -21 -10 -47 l0 -47
-30 47 c-16 26 -34 47 -40 47 -6 0 -10 -27 -10 -65z"/>
<path d="M1970 160 c-43 -43 -12 -115 47 -108 22 2 29 9 31 31 3 23 0 27 -20
26 -13 0 -17 -3 -10 -6 6 -2 12 -11 12 -19 0 -11 -8 -14 -27 -12 -22 2 -29 9
-31 31 -4 35 13 57 44 57 13 0 24 5 24 10 0 18 -49 11 -70 -10z"/>
<path d="M2210 160 c-40 -40 -11 -110 45 -110 14 0 25 5 25 10 0 6 -10 10 -23
10 -29 0 -47 18 -47 45 0 27 18 45 47 45 13 0 23 5 23 10 0 18 -49 11 -70 -10z"/>
<path d="M2310 160 c-24 -24 -26 -57 -4 -88 30 -43 104 -13 104 43 0 30 -32
65 -60 65 -11 0 -29 -9 -40 -20z m76 -24 c10 -41 -4 -66 -36 -66 -32 0 -46 25
-36 66 9 35 63 35 72 0z"/>
<path d="M2430 115 c0 -37 4 -65 10 -65 6 0 10 21 10 48 l1 47 25 -47 c13 -27
29 -48 34 -48 6 0 10 29 10 65 0 37 -4 65 -10 65 -5 0 -10 -19 -10 -42 l-1
-43 -25 43 c-14 23 -30 42 -35 42 -5 0 -9 -29 -9 -65z"/>
<path d="M2535 170 c3 -5 13 -10 21 -10 10 0 14 -14 14 -55 0 -30 5 -55 10
-55 6 0 10 25 10 55 0 41 4 55 14 55 8 0 18 5 21 10 4 6 -13 10 -45 10 -32 0
-49 -4 -45 -10z"/>
<path d="M2640 116 c0 -37 4 -66 10 -66 6 0 10 12 10 26 0 33 33 30 38 -4 2
-12 8 -22 13 -22 11 0 11 21 0 39 -6 9 -5 21 2 33 17 26 -3 52 -42 56 l-31 3
0 -65z m60 23 c0 -10 -2 -19 -4 -19 -2 0 -11 -3 -20 -6 -12 -5 -16 0 -16 18 0
14 3 27 6 31 11 11 34 -5 34 -24z"/>
<path d="M2755 128 c-10 -29 -20 -59 -23 -65 -2 -7 1 -13 6 -13 6 0 14 9 17
20 9 28 51 27 60 -2 3 -13 8 -18 11 -12 7 16 -29 117 -43 121 -6 2 -19 -19
-28 -49z m34 -22 c-14 -15 -22 0 -13 26 7 22 7 22 14 3 4 -11 4 -24 -1 -29z"/>
<path d="M2860 160 c-39 -39 -11 -110 44 -110 14 0 28 5 31 10 4 6 -6 10 -22
10 -34 0 -53 16 -53 45 0 29 19 45 53 45 16 0 26 4 22 10 -10 17 -54 11 -75
-10z"/>
<path d="M2955 170 c3 -5 13 -10 21 -10 10 0 14 -14 14 -55 0 -30 5 -55 10
-55 6 0 10 24 10 54 0 45 3 54 20 59 18 5 20 0 20 -54 0 -33 4 -59 10 -59 6 0
10 28 10 65 l0 65 -61 0 c-37 0 -58 -4 -54 -10z"/>
<path d="M3100 115 c0 -37 4 -65 10 -65 6 0 10 21 10 48 l1 47 25 -47 c13 -27
29 -48 34 -48 6 0 10 29 10 65 0 37 -4 65 -10 65 -5 0 -10 -19 -10 -42 l-1
-43 -25 43 c-14 23 -30 42 -35 42 -5 0 -9 -29 -9 -65z"/>
<path d="M3231 154 c-26 -34 -27 -58 0 -85 14 -14 30 -19 52 -17 27 2 33 8 35
31 3 24 0 27 -25 26 -17 -1 -21 -3 -10 -6 25 -7 21 -33 -6 -33 -29 0 -47 18
-47 45 0 29 19 45 52 45 15 0 28 5 28 10 0 22 -59 10 -79 -16z"/>
</g>
</svg>
