<svg xmlns="http://www.w3.org/2000/svg" viewBox="0 0 61.92 43.1"><defs><style>.cls-1,.cls-2,.cls-4,.cls-5{fill:#1d1d1b;}.cls-2{font-size:2.98px;font-family:ArialMT, Arial;letter-spacing:0.2em;}.cls-3{letter-spacing:0.18em;}.cls-4,.cls-5{stroke:#fff;stroke-miterlimit:10;}.cls-4{stroke-width:0.12px;}.cls-5{stroke-width:0.03px;}</style></defs><g id="Layer_2" data-name="Layer 2"><g id="Layer_1-2" data-name="Layer 1"><path class="cls-1" d="M20.6,4.81A6.43,6.43,0,1,0,27,11.24,6.43,6.43,0,0,0,20.6,4.81ZM25,12.16c-.77,3.35-3.34,5.66-5.74,5.15-3.17-.67-3.73-3.64-3-7S18.53,4.43,22,5.17,25.71,8.8,25,12.16Z"/><path class="cls-1" d="M47.71,16.24a1.37,1.37,0,0,1-1.22.83.77.77,0,0,1-.59-.38,2.12,2.12,0,0,1-.2-.62,1.79,1.79,0,0,1,0-.51l0-.63q0-.81,0-1.62V10.07c0-.54,0-1.07,0-1.61a4,4,0,0,0-.47-1.89,3.41,3.41,0,0,0-1.35-1.34,5.87,5.87,0,0,0-1.67-.59,5.45,5.45,0,0,0-3.27.3,6.76,6.76,0,0,0-1.45.78A7,7,0,0,0,36.3,6.84,9,9,0,0,0,34.73,9.7l.2.06a7.28,7.28,0,0,1,.62-1.47A6.89,6.89,0,0,1,37.62,5.9,5.34,5.34,0,0,1,39,5.19,5,5,0,0,1,42.11,5a2.41,2.41,0,0,1,.66.38,2.33,2.33,0,0,1,.5.54,2.71,2.71,0,0,1,.33.63c.08.21.16.42.22.62A4.11,4.11,0,0,1,44,8.44c0,.25,0,.5,0,.74h-.64c-.28,0-.57,0-.85,0-.58,0-1.15.09-1.71.16a11.19,11.19,0,0,0-3.35,1,12.38,12.38,0,0,0-1.57,1,5.24,5.24,0,0,0-1.4,1.45A3.43,3.43,0,0,0,34,14.9,3.15,3.15,0,0,0,35,17a3.45,3.45,0,0,0,2,.8,4.61,4.61,0,0,0,1,0,5.38,5.38,0,0,0,.9-.22,9.83,9.83,0,0,0,1.65-.73A5.64,5.64,0,0,0,42,15.64a8.55,8.55,0,0,0,1.64-3c.12-.36.21-.73.3-1.1l0,1.78c0,.53,0,1.07,0,1.61v.41a2.61,2.61,0,0,0,.08.57,2.15,2.15,0,0,0,.61,1,1.88,1.88,0,0,0,1,.47,2.85,2.85,0,0,0,1,0,1.44,1.44,0,0,0,.75-.4,2.63,2.63,0,0,0,.49-.66Zm-3.84-5.31a10.17,10.17,0,0,1-.44,1.64,7.63,7.63,0,0,1-1.69,2.87,5.28,5.28,0,0,1-1.33,1,3.15,3.15,0,0,1-1.57.33,5.16,5.16,0,0,1-.79-.06,2.48,2.48,0,0,1-.7-.2,1.87,1.87,0,0,1-.89-.84,3.78,3.78,0,0,1-.29-2.19,3.63,3.63,0,0,1,.46-1.38,3.55,3.55,0,0,1,1.12-1.13,8.55,8.55,0,0,1,3-1.29,13.46,13.46,0,0,1,1.67-.25,7.89,7.89,0,0,1,.84-.05h.42a.74.74,0,0,0,.21,0c0,.25,0,.49,0,.73v.61A2,2,0,0,1,43.87,10.93Z"/><circle class="cls-1" cx="31.06" cy="1.31" r="1.31"/><path class="cls-1" d="M28.31,6.45l0,.16.43-.17a10,10,0,0,1,1.31-.37h0a7.43,7.43,0,0,1,1.42-.14V6s-1.42.08-1.42,2.4v9.52a5.87,5.87,0,0,1-1.76,4.2,5.93,5.93,0,0,0,3.16-3A5.83,5.83,0,0,0,32,16.67V4.37A8.7,8.7,0,0,1,28.31,6.45Z"/><text class="cls-2" transform="translate(20.48 42.13)">ES<tspan class="cls-3" x="5.16" y="0">T</tspan><tspan x="7.52" y="0" xml:space="preserve"> - 2016</tspan></text><path class="cls-1" d="M10.31,30.06h.47v2.36a4.83,4.83,0,0,1-.06.72,1.13,1.13,0,0,1-.2.45A1.07,1.07,0,0,1,10,34a1.64,1.64,0,0,1-.71.15,1.3,1.3,0,0,1-.79-.22.86.86,0,0,1-.34-.51,6.37,6.37,0,0,1,0-1V30.06h.3V30H7.35v.06h.32v2.75a1.56,1.56,0,0,0,.16.81,1.15,1.15,0,0,0,.54.5,2.14,2.14,0,0,0,.8.19h.08a1.48,1.48,0,0,0,.71-.15,1.32,1.32,0,0,0,.56-.4,1.16,1.16,0,0,0,.27-.51,4.92,4.92,0,0,0,.06-.8V30.06h.47V30h-1Z"/><polygon class="cls-1" points="14.83 30.06 15.26 30.06 15.26 30.94 15.26 33.45 12.63 30.03 12.63 30.03 12.63 30 11.68 30 11.68 30.06 12.15 30.06 12.15 31.05 12.15 33.27 12.15 34.18 11.68 34.18 11.68 34.23 12.62 34.23 12.62 34.18 12.23 34.18 12.23 33.27 12.23 30.5 12.23 30.26 15.34 34.21 15.34 30.83 15.34 30.06 15.77 30.06 15.77 30 14.83 30 14.83 30.06"/><path class="cls-1" d="M18.38,32.43h1v.84a1,1,0,0,1-.09.49.69.69,0,0,1-.36.33,1.23,1.23,0,0,1-.6.14,1.4,1.4,0,0,1-1.09-.48,2.33,2.33,0,0,1-.44-1.52V32h0v0a1.48,1.48,0,0,1,0-.21,1.57,1.57,0,0,1,1.52-1.68c1.3,0,1.19,1.38,1.19,1.38l.47-.69A1.94,1.94,0,0,0,18.61,30a2,2,0,0,0-2.3,1.58,3.07,3.07,0,0,0,0,.53,2.11,2.11,0,0,0,.61,1.55,1.85,1.85,0,0,0,1.32.6,1.83,1.83,0,0,0,1.39-.5,1.49,1.49,0,0,0,.15-.2.76.76,0,0,1,.12.42h0v.25h0l0-1v-.5h0v-.36h.23v-.06H18.38Z"/><path class="cls-1" d="M7.76,34.24l-.24.29a2.26,2.26,0,0,1-2,.62c-1,0-3.62-.68-4.34-.75l-.33,0h.2V30.06h.38V30H.13v.06H.35a.26.26,0,0,1,.28.28v3.59s0,.36-.28.46l-.22,0H.07c-.08,0-.1.07,0,0H.14a4.26,4.26,0,0,1,1.07,0,17,17,0,0,1,2.11.4l1.05.23c1.54.31,2.56.11,2.78.39h0a2.06,2.06,0,0,1,.47-1h0l.15-.19Z"/><path class="cls-1" d="M5,34.28a2.15,2.15,0,1,0-2.52-1.7A2.14,2.14,0,0,0,5,34.28ZM3.1,32.15c0-1.15.38-2.08,1.56-2.06s1.45,1,1.41,2.11-.74,2.07-1.56,2C3.43,34.23,3.06,33.29,3.1,32.15Z"/><path class="cls-1" d="M22.78,34.24H21.66V32.09h1.2v.43h.05v-.94h-.05V32h-1.2v-1.9h1.12c.74,0,.75.13.92.3l-.08-.29s0,0,0-.06v0H20.69v.06h.47v4.17h-.47v.05H23.6v0s0,0,0-.06l.08-.28C23.53,34.11,23.52,34.23,22.78,34.24Z"/><path class="cls-4" d="M35.45,34h0V32.26h.45a2.71,2.71,0,0,0,1-.1.91.91,0,0,0,.43-.39,1.1,1.1,0,0,0,.15-.59.94.94,0,0,0-.22-.64,1.23,1.23,0,0,0-.56-.36,3.49,3.49,0,0,0-1-.12H34.46c-.12,0-.2,0-.22.11s.07.17.25.07a1.44,1.44,0,0,1,.37-.1V34h0a.26.26,0,0,1-.25.24h-.26v.05H36v-.05H35.7A.26.26,0,0,1,35.45,34Zm0-3.83h.31a1.12,1.12,0,0,1,.82.26,1.06,1.06,0,0,1,.25.79,1.11,1.11,0,0,1-.15.6.67.67,0,0,1-.37.3,1.85,1.85,0,0,1-.57,0h-.29Z"/><path class="cls-4" d="M41.33,34.21c-.21,0-.32,0-.5-.31l-1.74-4.11a.34.34,0,0,1-.19.34h0a.45.45,0,0,1-.37,0c-.18-.06-.22.09-.18.16s.09.07.2.05a1.15,1.15,0,0,0,.31-.16c-.06.13-.1.25-.1.25h0L37.29,34a.5.5,0,0,1-.46.31h-.11v.05h1.36v-.05H37.9c-.31,0-.44-.37-.31-.75l.25-.59v0h1.95l.21.53h0c.15.4.08.75-.31.74h-.1v.06h1.85v-.06Zm-3.46-1.35c.28-.67.73-1.71,1-2.24l.93,2.24Z"/><path class="cls-5" d="M33.2,32.14a8.52,8.52,0,0,0-.9-.37,4.39,4.39,0,0,1-1-.48.59.59,0,0,1-.24-.38.48.48,0,0,1,0-.12.55.55,0,0,1,.09-.29l0,0,.11-.13a.77.77,0,0,1,.65-.22,1.38,1.38,0,0,1,.74.25,1.21,1.21,0,0,1,.36.39.18.18,0,0,0,.07.08.23.23,0,1,0,.26-.38h0a2.56,2.56,0,0,0-.57-.29,1.83,1.83,0,0,0-.61-.11,2.24,2.24,0,0,0-.79.12l0,0a1.11,1.11,0,0,0-.34.18,1,1,0,0,0-.39.73.93.93,0,0,0,.14.54,1.15,1.15,0,0,0,.46.41,6.47,6.47,0,0,0,.88.37,3.76,3.76,0,0,1,.94.48.64.64,0,0,1,.22.41s0,.09,0,.13A.87.87,0,0,1,33,34a1.06,1.06,0,0,1-.65.24.86.86,0,0,1-.22,0,1.38,1.38,0,0,1-.69-.37,1.13,1.13,0,0,1-.29-.44.18.18,0,0,0-.06-.09.23.23,0,0,0-.33,0,.24.24,0,0,0,0,.33h0a3,3,0,0,0,.52.38,2.49,2.49,0,0,0,.58.2l.32,0h0a2.75,2.75,0,0,0,.47,0h0a1.57,1.57,0,0,0,.64-.29,1.1,1.1,0,0,0,.46-.86,1,1,0,0,0-.15-.59A1.18,1.18,0,0,0,33.2,32.14Z"/><polygon class="cls-1" points="27.17 32.02 26.74 32.02 26.74 32.09 27.19 32.09 27.93 32.09 27.93 32.02 27.17 32.02"/><polygon class="cls-1" points="52.76 30.19 52.26 30.19 52.26 30.26 52.78 30.26 53.64 30.26 53.64 30.19 52.76 30.19"/><polygon class="cls-1" points="44.71 32.05 44.28 32.05 44.28 32.13 44.73 32.13 45.47 32.13 45.47 32.05 44.71 32.05"/><path class="cls-1" d="M56.27,30.19,54.7,32.65v1.56h-.46V32.69l-1.64-2.5h.63l1.43,2.36,1.49-2.36Z"/><path class="cls-1" d="M50.51,32.56h1v.84a1,1,0,0,1-.09.49.73.73,0,0,1-.36.33,1.33,1.33,0,0,1-.6.14,1.42,1.42,0,0,1-1.08-.48,2.3,2.3,0,0,1-.44-1.52,1.94,1.94,0,0,0,0-.22h0v-.26a1.6,1.6,0,0,1,1.52-1.69c1.31,0,1.19,1.38,1.19,1.38l.47-.68a1.93,1.93,0,0,0-1.35-.73,2,2,0,0,0-2.3,1.59,2.27,2.27,0,0,0,0,.53A2.09,2.09,0,0,0,49,33.83a1.89,1.89,0,0,0,1.32.6,1.86,1.86,0,0,0,1.38-.5l.16-.21a.84.84,0,0,1,.11.43h0v.25h0l0-1v-.49h0v-.36h.23V32.5H50.51Z"/><rect class="cls-1" x="55.74" y="30.19" width="0.94" height="0.08"/><path class="cls-1" d="M54.24,33.34v1h-.38v.06h1.22v-.06H55A.26.26,0,0,1,54.7,34v-.83Z"/><path class="cls-1" d="M54,34.31c.23,0,.28-.15.28-.27v-.83l.47.13v1h.38v.06"/><polygon class="cls-1" points="57.69 30.45 57.69 30.69 57.69 33.46 57.69 34.32 58.08 34.32 58.08 34.38 57.15 34.38 57.15 34.32 57.62 34.32 57.62 33.46 57.62 31.24 57.62 30.24 57.15 30.24 57.15 30.19 57.92 30.19 57.92 30.21 57.92 30.21 57.69 30.45"/><path class="cls-1" d="M61.73,34.32h-.28v-.74h0v-.22h0V30.24h.42v0H61l-1.49,3.63L58,30.19h-.34v4.16h.08V30.6l1.62,3.78,1.66-4v2.95h0v1h-.37v.06h1.31v-.06Z"/></g></g></svg>