<?xml version="1.0" standalone="no"?>
<!DOCTYPE svg PUBLIC "-//W3C//DTD SVG 20010904//EN"
 "http://www.w3.org/TR/2001/REC-SVG-20010904/DTD/svg10.dtd">
<svg version="1.0" xmlns="http://www.w3.org/2000/svg"
 width="947.000000pt" height="291.000000pt" viewBox="0 0 947.000000 291.000000"
 preserveAspectRatio="xMidYMid meet">

<g transform="translate(0.000000,291.000000) scale(0.100000,-0.100000)"
fill="#000000" stroke="none">
<path d="M5516 2878 c-69 -111 -316 -552 -316 -566 0 -10 88 -171 196 -358
108 -186 201 -348 206 -360 8 -17 -24 -79 -195 -375 l-205 -354 -409 -3 c-381
-2 -411 -1 -425 15 -13 15 -356 603 -397 680 -10 21 3 49 140 285 83 145 155
267 159 272 10 11 22 -8 217 -349 261 -455 284 -495 291 -495 12 0 342 580
342 601 0 18 -139 264 -417 739 l-79 135 -339 2 c-187 2 -345 0 -351 -5 -6 -4
-158 -262 -338 -573 -210 -364 -326 -576 -326 -593 0 -16 29 -77 69 -144 38
-64 202 -349 366 -632 163 -283 304 -523 313 -532 14 -17 64 -18 768 -18 633
0 755 2 767 14 17 18 748 1282 754 1306 3 11 -137 262 -352 636 -389 675 -401
694 -415 694 -5 0 -16 -10 -24 -22z"/>
<path d="M7432 1498 c-7 -7 -12 -24 -12 -38 0 -14 5 -31 12 -38 28 -28 88 -2
88 38 0 40 -60 66 -88 38z"/>
<path d="M7562 1498 c-7 -7 -12 -24 -12 -38 0 -31 17 -50 45 -50 28 0 45 19
45 50 0 31 -17 50 -45 50 -12 0 -26 -5 -33 -12z"/>
<path d="M9043 1408 c4 -57 10 -178 13 -270 l7 -167 -31 -30 c-26 -27 -38 -31
-82 -31 -44 0 -56 4 -81 29 -24 24 -29 38 -29 76 0 39 -3 46 -16 41 -9 -3 -21
-6 -28 -6 -6 0 -17 -19 -23 -43 -21 -77 -40 -91 -126 -95 -70 -4 -78 -2 -101
21 -33 34 -34 57 -1 57 17 0 25 6 25 18 0 9 3 27 6 40 6 20 3 22 -32 22 -40 1
-49 4 -187 59 -97 40 -175 54 -238 46 -60 -8 -75 -21 -83 -67 l-7 -37 38 16
c56 23 149 13 256 -29 l89 -35 -79 -38 c-126 -60 -151 -67 -275 -72 l-117 -6
-30 31 c-24 24 -31 39 -31 71 0 22 -4 42 -8 45 -19 11 -51 -7 -56 -32 -20 -84
-52 -112 -129 -112 -83 0 -106 44 -107 201 0 47 -3 114 -6 148 -7 59 -8 61
-35 61 -27 0 -29 -3 -29 -40 0 -38 -2 -41 -52 -66 -121 -61 -178 -128 -178
-208 0 -31 6 -61 16 -75 34 -47 128 -65 206 -37 35 12 37 12 50 -12 40 -76
203 -81 264 -9 20 23 29 28 32 18 19 -55 93 -78 221 -68 103 8 185 35 292 97
50 29 91 51 93 49 1 -2 8 -22 14 -45 14 -48 37 -71 89 -90 83 -29 180 -12 221
41 l22 27 25 -30 c33 -40 84 -56 151 -49 70 7 110 32 136 85 20 42 21 53 14
251 -4 113 -9 239 -13 279 l-6 72 -35 0 -35 0 6 -102z m-1524 -370 c1 -65 -6
-70 -92 -70 -126 0 -107 106 32 177 l46 23 7 -36 c4 -21 7 -63 7 -94z"/>
<path d="M9287 1453 c4 -81 23 -572 23 -605 0 -25 3 -28 37 -28 l36 0 -6 168
c-4 92 -10 247 -13 345 l-7 177 -37 0 -36 0 3 -57z"/>
<path d="M80 1085 l0 -375 215 0 215 0 0 40 0 40 -165 0 -165 0 0 135 0 135
145 0 145 0 0 40 0 40 -145 0 -145 0 0 120 0 120 155 0 155 0 0 40 0 40 -205
0 -205 0 0 -375z"/>
<path d="M630 1085 l0 -375 210 0 210 0 0 40 0 40 -160 0 -160 0 0 335 0 335
-50 0 -50 0 0 -375z"/>
<path d="M1160 1085 l0 -375 50 0 50 0 0 375 0 375 -50 0 -50 0 0 -375z"/>
<path d="M1340 1420 l0 -40 115 0 115 0 0 -335 0 -335 50 0 50 0 0 335 0 335
115 0 115 0 0 40 0 40 -280 0 -280 0 0 -40z"/>
<path d="M1980 1085 l0 -375 215 0 215 0 0 40 0 40 -165 0 -165 0 0 135 0 135
145 0 145 0 0 40 0 40 -145 0 -145 0 0 120 0 120 155 0 155 0 0 40 0 40 -205
0 -205 0 0 -375z"/>
<path d="M8286 1384 c-19 -18 -21 -55 -4 -72 7 -7 24 -12 38 -12 14 0 31 5 38
12 28 28 2 88 -38 88 -10 0 -26 -7 -34 -16z"/>
<path d="M8766 1294 c-19 -18 -21 -55 -4 -72 15 -15 61 -15 76 0 28 28 2 88
-38 88 -10 0 -26 -7 -34 -16z"/>
<path d="M7806 664 c-19 -18 -21 -55 -4 -72 15 -15 61 -15 76 0 28 28 2 88
-38 88 -10 0 -26 -7 -34 -16z"/>
<path d="M8550 655 c-41 -13 -100 -30 -131 -39 -55 -16 -57 -18 -68 -61 -6
-24 -11 -51 -11 -59 0 -24 50 -76 73 -76 12 0 40 -16 62 -36 l40 -35 -123 4
c-68 3 -125 7 -128 10 -5 4 -13 73 -30 255 l-6 54 -27 -39 c-27 -36 -28 -41
-20 -113 4 -41 8 -97 8 -123 l1 -48 -60 5 c-34 3 -66 8 -72 12 -6 4 -8 30 -3
73 l7 66 -33 -32 c-23 -23 -34 -44 -38 -75 l-6 -43 -87 0 c-129 -1 -131 1
-123 82 l7 68 -33 -32 c-23 -23 -34 -44 -38 -75 l-6 -43 -98 1 c-53 0 -100 3
-103 7 -6 6 -18 97 -31 231 l-8 80 -27 -40 c-27 -38 -27 -40 -18 -129 5 -50
10 -105 10 -122 l0 -33 -142 1 c-84 0 -158 5 -178 12 -32 11 -35 16 -33 47 0
19 4 49 9 65 7 28 6 29 -11 15 -45 -37 -70 -154 -41 -192 23 -31 65 -38 218
-38 143 0 151 1 169 22 l18 23 1 -22 c0 -23 2 -23 125 -23 124 0 126 0 137 25
l11 25 23 -25 c22 -24 29 -25 129 -25 103 0 106 1 117 25 l11 25 23 -25 c20
-22 32 -25 87 -25 56 0 67 3 80 22 l16 23 0 -23 1 -22 187 2 188 3 14 52 c13
48 12 53 -7 78 -11 14 -50 50 -87 80 l-65 54 89 27 89 27 12 45 c6 24 10 45 8
47 -2 1 -37 -8 -78 -20z"/>
<path d="M1282 573 c-42 -20 -70 -56 -78 -99 -21 -113 67 -201 181 -180 59 11
43 32 -25 31 -51 0 -63 4 -86 26 -30 31 -42 98 -25 141 17 44 67 70 124 64 35
-4 47 -2 47 8 0 30 -85 35 -138 9z"/>
<path d="M1470 440 l0 -150 85 0 c69 0 85 3 85 15 0 12 -14 15 -65 15 l-65 0
0 135 c0 128 -1 135 -20 135 -19 0 -20 -7 -20 -150z"/>
<path d="M1670 440 c0 -143 1 -150 20 -150 19 0 20 7 20 150 0 143 -1 150 -20
150 -19 0 -20 -7 -20 -150z"/>
<path d="M1780 440 c0 -143 1 -150 20 -150 19 0 20 7 20 121 l0 122 66 -109
c79 -131 81 -134 105 -134 18 0 19 10 19 150 0 143 -1 150 -20 150 -19 0 -20
-7 -20 -117 l0 -117 -72 117 c-58 94 -77 117 -95 117 -23 0 -23 -1 -23 -150z"/>
<path d="M2070 440 c0 -143 1 -150 20 -150 19 0 20 7 20 150 0 143 -1 150 -20
150 -19 0 -20 -7 -20 -150z"/>
<path d="M2252 573 c-42 -20 -70 -56 -78 -99 -21 -113 67 -201 181 -180 59 11
43 32 -25 31 -51 0 -63 4 -86 26 -30 31 -42 98 -25 141 17 44 67 70 124 64 35
-4 47 -2 47 8 0 30 -85 35 -138 9z"/>
<path d="M2480 583 c-28 -10 -60 -47 -60 -68 0 -34 34 -70 85 -89 56 -22 71
-59 35 -88 -25 -20 -56 -23 -94 -8 -22 8 -26 7 -26 -10 0 -43 124 -38 160 7
40 51 22 93 -58 131 -62 30 -76 56 -46 87 14 13 28 16 61 11 33 -4 43 -2 43 8
0 23 -59 34 -100 19z"/>
<path d="M7260 528 c-48 -33 -60 -56 -37 -73 17 -13 17 -14 -4 -20 -20 -7 -20
-8 -5 -17 32 -18 96 18 96 54 0 13 -7 18 -27 18 -30 0 -21 16 12 22 23 4 34
38 12 38 -8 0 -29 -10 -47 -22z"/>
<path d="M7865 160 c-18 -20 -18 -21 12 -52 l31 -31 17 27 18 26 32 -25 33
-25 17 26 c17 26 16 27 -9 52 l-25 26 -26 -24 -25 -23 -23 21 c-28 27 -29 27
-52 2z"/>
</g>
</svg>
