<svg xmlns="http://www.w3.org/2000/svg" viewBox="0 0 419.3 399.69"><defs><style>.cls-1,.cls-2,.cls-5,.cls-6{fill:#fff;}.cls-2{font-size:19.76px;font-family:Avenir-Roman, Avenir;letter-spacing:0.12em;}.cls-3{letter-spacing:0.03em;}.cls-4{letter-spacing:0.12em;}.cls-5{font-size:80.8px;letter-spacing:0.08em;}.cls-5,.cls-6{font-family:BroadsheetLDO, Broadsheet LDO;}.cls-6{font-size:17px;letter-spacing:0.08em;}</style></defs><g id="Layer_2" data-name="Layer 2"><g id="Layer_1-2" data-name="Layer 1"><path class="cls-1" d="M269.65,142.61a25.79,25.79,0,0,0-18.58-7.5h-8.53l2.6,8.86h6.32c10.39,0,18.8,7.17,18.8,16,0,7.76-6.49,12.89-15.1,14.35-7.22,1.11-9.87-5.48-10.3-7.05L237.08,139,236,135.11l-1.25-4.52,11.5-11.33c4.28-4.28,6.91-10.1,7.25-14,.9-10.18-7.65-16.27-14.75-16.27a15.17,15.17,0,0,0-13.32,7.63h0a19.81,19.81,0,0,0-2.61,8.31v0a20.13,20.13,0,0,0,.36,5.53l.31,1.55,10.79,56.07c.78,3.74-.46,6.46-3.86,6.51h-1.91v1.41h22.53a27.66,27.66,0,0,0,8.78-1.41c8.92-3,15.24-10.4,15.24-19.06A18.64,18.64,0,0,0,269.65,142.61ZM232.33,122l-1.09-3.86c-1.24-4.76-2.14-13.64,2.7-20.64,3.26-4.73,9.21-5.8,12.19-2.16C252,102.51,232.33,122,232.33,122Z"/><path class="cls-1" d="M186.77,105v0a19.8,19.8,0,0,0-2.6-8.31h0A15.18,15.18,0,0,0,170.85,89c-7.11,0-15.66,6.09-14.76,16.27.34,3.9,3,9.72,7.26,14l11.49,11.33-1.24,4.52L172.54,139l-7.78,28.33c-.43,1.57-3.08,8.16-10.3,7.05-8.61-1.46-15.1-6.59-15.1-14.35,0-8.84,8.42-16,18.8-16h6.32l2.61-8.86h-8.54a25.75,25.75,0,0,0-18.57,7.5,18.65,18.65,0,0,0-5.45,13c0,8.66,6.32,16.07,15.24,19.06a27.66,27.66,0,0,0,8.78,1.41h22.53v-1.41h-1.91c-3.4,0-4.64-2.77-3.86-6.51l10.79-56.07.31-1.55A20.13,20.13,0,0,0,186.77,105Zm-8.39,13.19L177.29,122s-19.64-19.52-13.8-26.66c3-3.64,8.94-2.57,12.2,2.16C180.52,104.53,179.62,113.41,178.38,118.17Z"/><path class="cls-1" d="M219.15,127a19.91,19.91,0,0,0-4.24-3q-2.37-1.25-4.85-2.33c-1.65-.72-4.46-1.87-6.05-2.57a27.47,27.47,0,0,1-4.26-2.31,11.49,11.49,0,0,1-1.51-1.19,5,5,0,0,1-1.12-2.09c-.77-2.86,1.55-5.79,1.65-6h0l5.83-7.86c1.24,1.41,2.77,3.23,4.24,5.16l1,1.34c2.51,3.47,4.56,7.1,4.2,9.3a7.69,7.69,0,0,1-1.62,3.85c-.38.44.06.47.06.47a9.24,9.24,0,0,0,4.87-7.16h0a12.32,12.32,0,0,0-.55-5.39v0a13.35,13.35,0,0,0-1.55-3.09l-.55-.83-2.89-4h0l-3.7-5.1a39,39,0,0,0,3.67-5.46,38.45,38.45,0,0,0,5.45-19.63c-.06-8.53-5.58-14.78-12.41-14.78s-12.35,6.25-12.41,14.78a38.54,38.54,0,0,0,5.44,19.63,39.46,39.46,0,0,0,3.68,5.46l-8.58,11.73a20.09,20.09,0,0,0-1.6,2.24,9.4,9.4,0,0,0-1.1,4.8,8.67,8.67,0,0,0,1.93,5.93,18.9,18.9,0,0,0,5,4.13,48.19,48.19,0,0,0,6.44,3.16,55.12,55.12,0,0,1,6.4,3,19.22,19.22,0,0,1,4.93,3.82,8,8,0,0,1,2,5.49,7.8,7.8,0,0,1-1.2,4.28,1.4,1.4,0,0,0-.1.16l-10.51,14.27-7-9.09h0c-.85-1.11-1.66-2.15-2.33-3-4-5-6.42-9.79-6-12.55a6.58,6.58,0,0,1,1.73-3.48c.38-.44-.05-.47-.05-.47a9.26,9.26,0,0,0-4.88,7.16h0a12.32,12.32,0,0,0,.54,5.39v0a13,13,0,0,0,1.55,3.1l.55.82,12.4,16.68a43.9,43.9,0,0,0-3.48,5.22,38.7,38.7,0,0,0-5.45,19.63c.07,8.54,5.58,14.78,12.41,14.79s12.35-6.25,12.41-14.79a38.59,38.59,0,0,0-5.44-19.63,40.3,40.3,0,0,0-3.68-5.46l12.27-16.74a10.72,10.72,0,0,0,.68-.94l0,0h0a12.58,12.58,0,0,0,.86-1.53,13.48,13.48,0,0,0,1.12-5.93,12.69,12.69,0,0,0-1.2-5.48A13.9,13.9,0,0,0,219.15,127ZM195.41,68.62c-.06-7.37,3.94-11.69,9.38-11.69h0c5.44,0,9.44,4.32,9.38,11.69-.09,10.6-9.33,21-9.39,21.09h0C204.75,89.62,195.5,79.22,195.41,68.62Zm9.51,97.65h0c.06.1,9.3,10.49,9.39,21.09.06,7.37-3.94,11.69-9.38,11.69h0c-5.44,0-9.44-4.32-9.37-11.69C195.61,176.77,204.86,166.36,204.92,166.27Z"/><text class="cls-2" transform="translate(84.68 337.1) scale(1.1 1)">F&amp;B CONSU<tspan class="cls-3" x="135.19" y="0">LT</tspan><tspan class="cls-4" x="157.52" y="0">ANTS</tspan></text><text class="cls-2" transform="translate(132.78 16.87) scale(1.1 1)">SOLUTIONS</text><text class="cls-5" transform="translate(0 296.63) scale(0.96 1)">MYSTERY</text><text class="cls-6" transform="translate(149.72 395.68) scale(0.96 1)">Management</text></g></g></svg>