<svg xmlns="http://www.w3.org/2000/svg" viewBox="0 0 43.87 16.92"><defs><style>.cls-1{fill:#2b2523;}</style></defs><g id="Layer_2" data-name="Layer 2"><g id="Layer_1-2" data-name="Layer 1"><circle id="L" class="cls-1" cx="3.39" cy="13.53" r="3.39"/><path id="B" class="cls-1" d="M14.59,13.53h0A3.17,3.17,0,0,0,13,10.77h0a3.19,3.19,0,0,0-3.19,0h0a3.18,3.18,0,0,0-1.6,2.76h0a3.2,3.2,0,0,0,1.6,2.77h0a3.19,3.19,0,0,0,3.19,0h0A3.19,3.19,0,0,0,14.59,13.53Z"/><path class="cls-1" d="M5,1,8,7.08a1.41,1.41,0,0,1,.18.55c0,.26-.21.5-.63.71a1.43,1.43,0,0,1-.58.18.56.56,0,0,1-.35-.1.59.59,0,0,1-.19-.2c0-.08-.1-.18-.17-.33L5.66,6.72h-3L2.08,7.89l-.16.32a.94.94,0,0,1-.2.2.56.56,0,0,1-.35.1,1.47,1.47,0,0,1-.58-.18c-.42-.21-.63-.44-.63-.7a1.31,1.31,0,0,1,.19-.55L3.28,1a.93.93,0,0,1,.36-.4A1,1,0,0,1,4.16.46.91.91,0,0,1,5,1ZM4.15,3.63,3.43,5.11H4.87Z"/><path class="cls-1" d="M11.92,2.69a2.33,2.33,0,0,1,1.81.83,3,3,0,0,1,.72,2V7.46a3.12,3.12,0,0,1,0,.37.9.9,0,0,1-.09.28c-.1.19-.38.29-.85.29s-.81-.13-.89-.4a1.9,1.9,0,0,1-.06-.55V5.54a.94.94,0,0,0-.26-.7.92.92,0,0,0-.68-.25,1,1,0,0,0-.7.26,1,1,0,0,0-.26.69V7.46a3.12,3.12,0,0,1,0,.37.73.73,0,0,1-.1.28c-.1.19-.37.29-.84.29S9,8.3,8.85,8.11a1.11,1.11,0,0,1-.1-.29,3.66,3.66,0,0,1,0-.37V3.6a3.44,3.44,0,0,1,0-.36A.77.77,0,0,1,8.86,3c.1-.18.38-.27.83-.27s.72.09.82.25a.88.88,0,0,1,.11.45.79.79,0,0,1,.19-.22,2.64,2.64,0,0,1,.29-.23A1.49,1.49,0,0,1,11.92,2.69Z"/><path class="cls-1" d="M18.53,4.61l-.71,0v1.5a.69.69,0,0,0,.1.42.37.37,0,0,0,.34.13l.39,0a.72.72,0,0,1,.29.1c.17.09.25.34.25.73s-.1.73-.3.83a1.11,1.11,0,0,1-.29.1h-.36a2.54,2.54,0,0,1-1.72-.51,2.18,2.18,0,0,1-.59-1.72V4.57a2.94,2.94,0,0,1-.44,0,.52.52,0,0,1-.4-.18,1,1,0,0,1-.15-.63A2.64,2.64,0,0,1,15,3.14a.71.71,0,0,1,.15-.29.7.7,0,0,1,.44-.14l.35,0V1.64a3,3,0,0,1,0-.37.77.77,0,0,1,.1-.26q.15-.27.84-.27c.49,0,.78.13.88.4a2.38,2.38,0,0,1,.05.55V2.76c.32,0,.56,0,.72,0l.37,0a1,1,0,0,1,.29.1c.19.1.28.38.28.84s-.09.73-.29.83a.77.77,0,0,1-.29.1Z"/><path class="cls-1" d="M21.87,1.63a.49.49,0,0,1-.29.23,2,2,0,0,1-.55.06,2,2,0,0,1-.55-.06.49.49,0,0,1-.29-.23,1,1,0,0,1-.09-.29,3.12,3.12,0,0,1,0-.37,3.18,3.18,0,0,1,0-.38,1,1,0,0,1,.09-.28c.1-.19.38-.29.85-.29s.73.1.82.29A.83.83,0,0,1,22,.6,3.32,3.32,0,0,1,22,1a3.12,3.12,0,0,1,0,.37A.9.9,0,0,1,21.87,1.63Zm-1.79,2a3.32,3.32,0,0,1,0-.38A1,1,0,0,1,20.19,3c.1-.18.38-.28.85-.28a1.08,1.08,0,0,1,.73.19.57.57,0,0,1,.2.46,2.82,2.82,0,0,1,0,.32v3.8a3.12,3.12,0,0,1,0,.37.77.77,0,0,1-.1.29c-.09.19-.37.28-.84.28s-.73-.1-.83-.29a1,1,0,0,1-.09-.28,3.18,3.18,0,0,1,0-.38Z"/><path class="cls-1" d="M26.19,2.7c.5,0,.79.14.88.42a1.86,1.86,0,0,1,.07.54,2,2,0,0,1-.07.54.5.5,0,0,1-.23.28,1.31,1.31,0,0,1-.66.13l-.69,0V7.48a1.35,1.35,0,0,1-.11.61.52.52,0,0,1-.31.27,2.09,2.09,0,0,1-.55.06A1.65,1.65,0,0,1,24,8.35a.48.48,0,0,1-.29-.23,1,1,0,0,1-.1-.28c0-.09,0-.22,0-.38V4.58h-.4a.67.67,0,0,1-.4-.13,1.17,1.17,0,0,1-.2-.79c0-.6.21-.89.64-.89h.36V2.19A2.17,2.17,0,0,1,25.9,0l.37,0a.77.77,0,0,1,.29.1c.2.09.29.37.29.84a1.2,1.2,0,0,1-.18.74.63.63,0,0,1-.48.2h-.3c-.27,0-.4.09-.4.27v.6Z"/><path class="cls-1" d="M31.23,3.3c0-.41.33-.61.86-.61a2,2,0,0,1,.63.07A.45.45,0,0,1,33,3a.83.83,0,0,1,.1.29,3.32,3.32,0,0,1,0,.38v3.8a3.12,3.12,0,0,1,0,.37,1,1,0,0,1-.09.29c-.1.19-.35.28-.75.28a1.45,1.45,0,0,1-.79-.15.57.57,0,0,1-.23-.42,1.53,1.53,0,0,1-1.34.57,2.36,2.36,0,0,1-1.74-.86,2.85,2.85,0,0,1,0-4,2.44,2.44,0,0,1,1.78-.85,1.82,1.82,0,0,1,.67.13,1.48,1.48,0,0,1,.42.25A1.33,1.33,0,0,1,31.23,3.3Zm-2,2.26a1,1,0,0,0,1,.93.88.88,0,0,0,.67-.29,1,1,0,0,0,0-1.3.84.84,0,0,0-.69-.31.86.86,0,0,0-.69.31A1,1,0,0,0,29.25,5.56Z"/><path class="cls-1" d="M37.31,4.61l-.71,0v1.5a.77.77,0,0,0,.09.42.39.39,0,0,0,.35.13l.39,0a.72.72,0,0,1,.29.1c.17.09.25.34.25.73s-.1.73-.31.83a1,1,0,0,1-.28.1H37A2.53,2.53,0,0,1,35.3,7.9a2.18,2.18,0,0,1-.59-1.72V4.57a3,3,0,0,1-.44,0,.52.52,0,0,1-.4-.18,1,1,0,0,1-.16-.63,2.53,2.53,0,0,1,.06-.65.53.53,0,0,1,.15-.29.69.69,0,0,1,.43-.14l.36,0V1.64a3,3,0,0,1,0-.37.61.61,0,0,1,.1-.26c.1-.18.37-.27.84-.27s.78.13.88.4a2.38,2.38,0,0,1,.05.55V2.76c.32,0,.56,0,.72,0l.37,0a1.11,1.11,0,0,1,.29.1c.19.1.28.38.28.84s-.1.73-.29.83a.83.83,0,0,1-.29.1Z"/><path class="cls-1" d="M42.15,4.58H43a1.27,1.27,0,0,1,.55.09.46.46,0,0,1,.23.28,1.63,1.63,0,0,1,.06.49,1.75,1.75,0,0,1,0,.5.44.44,0,0,1-.19.26,1.32,1.32,0,0,1-.55.1h-.93v.87a1.29,1.29,0,0,1-.09.56.53.53,0,0,1-.28.23,1.66,1.66,0,0,1-.5.06A1.63,1.63,0,0,1,40.79,8a.41.41,0,0,1-.26-.2,1.38,1.38,0,0,1-.1-.6V6.3h-.94A1.13,1.13,0,0,1,39,6.21a.45.45,0,0,1-.22-.28,1.67,1.67,0,0,1,0-.49,1.75,1.75,0,0,1,.06-.5A.43.43,0,0,1,39,4.68a1.31,1.31,0,0,1,.59-.1h.87V3.7a1.24,1.24,0,0,1,.09-.55.45.45,0,0,1,.28-.24,2,2,0,0,1,1,0,.42.42,0,0,1,.27.21,1.46,1.46,0,0,1,.1.59Z"/></g></g></svg>